<svg xmlns="http://www.w3.org/2000/svg" xmlns:xlink="http://www.w3.org/1999/xlink" aria-hidden="true" role="img" id="footer-sample-full" width="1em" height="1em" preserveAspectRatio="xMidYMid meet" viewBox="0 0 24 24" class="iconify iconify--eos-icons"><path d="M12 8L9 9.75v3.5L12 15l3-1.75v-3.5zm1.517 2.04l-1.53.892l-1.517-.885L12 9.155zm-3.527.882l1.484.866v1.75l-1.484-.865zm2.474 2.653v-1.767l1.546-.902v1.767z" fill="white"></path><path d="M3 0L0 1.75v3.5L3 7l3-1.75v-3.5zm1.517 2.04l-1.53.892l-1.517-.885L3 1.155zM.99 2.921l1.484.866v1.75L.99 4.674zm2.474 2.653V3.808l1.546-.902v1.767z" fill="white"></path><path d="M3 17l-3 1.75v3.5L3 24l3-1.75v-3.5zm1.517 2.04l-1.53.892l-1.517-.885L3 18.155zm-3.527.882l1.484.866v1.75L.99 21.674zm2.474 2.653v-1.767l1.546-.902v1.767z" fill="white"></path><path d="M21 0l-3 1.75v3.5L21 7l3-1.75v-3.5zm1.517 2.04l-1.53.892l-1.517-.885L21 1.155zm-3.527.882l1.484.866v1.75l-1.484-.865zm2.474 2.653V3.808l1.546-.902v1.767z" fill="white"></path><path d="M21 17l-3 1.75v3.5L21 24l3-1.75v-3.5zm1.517 2.04l-1.53.892l-1.517-.885l1.53-.892zm-3.527.882l1.484.866v1.75l-1.484-.865zm2.474 2.653v-1.767l1.546-.902v1.767z" fill="white"></path><path d="M9 3h6v1H9z" fill="white"></path><path d="M9 20h6v1H9z" fill="white"></path><path d="M3.5 9v6h-1V9z" fill="white"></path><path d="M7.293 8.828L5.17 6.708L5.878 6L8 8.121z" fill="white"></path><path d="M16 8.293l2.121-2.121l.707.707L16.708 9z" fill="white"></path><path d="M8.129 14.878L6.008 17l-.708-.708l2.122-2.12z" fill="white"></path><path d="M16.879 14.129L19 16.25l-.707.707l-2.121-2.121z" fill="white"></path><path d="M21.5 9v6h-1V9z" fill="white"></path></svg>