<svg width="26" height="21" viewBox="0 0 28 21" fill="none" xmlns="http://www.w3.org/2000/svg">
<svg width="11" height="11" viewBox="0 0 11 11" fill="none" xmlns="http://www.w3.org/2000/svg" x="17" y="11">
<path d="M1.3689 4V9C1.3689 9.26522 1.46568 9.51957 1.63795 9.70711C1.81023 9.89464 2.04388 10 2.28752 10H8.71786C8.96149 10 9.19514 9.89464 9.36742 9.70711C9.53969 9.51957 9.63648 9.26522 9.63648 9V4" stroke="white"/>
<path d="M9.39997 1H7.56641L7.79606 3.5C7.79606 3.5 8.25537 4 8.94434 4C9.306 4.00052 9.65538 3.8572 9.9268 3.597C9.95549 3.56781 9.97687 3.53115 9.98892 3.49047C10.001 3.44979 10.0033 3.40643 9.9957 3.3645L9.67142 1.25C9.66058 1.18015 9.62737 1.11673 9.57769 1.07097C9.52801 1.02521 9.46505 1.00007 9.39997 1V1Z" stroke="white" stroke-width="1.5"/>
<path d="M7.56641 1L7.79606 3.5C7.79606 3.5 7.33675 4 6.64779 4C5.95882 4 5.49951 3.5 5.49951 3.5V1H7.56641Z" stroke="white" stroke-width="1.5"/>
<path d="M5.49943 1V3.5C5.49943 3.5 5.04012 4 4.35116 4C3.66219 4 3.20288 3.5 3.20288 3.5L3.43254 1H5.49943Z" stroke="white" stroke-width="1.5"/>
<path d="M3.43254 1H1.59943C1.53421 0.999974 1.47109 1.02513 1.4213 1.071C1.37151 1.11687 1.33828 1.18047 1.32752 1.2505L1.00371 3.365C0.990385 3.451 1.01289 3.5395 1.0726 3.5975C1.22326 3.7425 1.55993 4.0005 2.05461 4.0005C2.74357 4.0005 3.20288 3.5005 3.20288 3.5005L3.43254 1.0005V1Z" stroke="white" stroke-width="1.5"/>
</svg>
<path d="M15.5833 1.59414H13.2812V0.531615C13.2813 0.390716 13.2255 0.255551 13.1259 0.155853C13.0263 0.0561561 12.8912 9.40589e-05 12.7504 1.26145e-07C12.6095 -9.38067e-05 12.4743 0.0557881 12.3746 0.155352C12.2749 0.254917 12.2188 0.390008 12.2188 0.530907V1.59414H9.03125V0.531615C9.0313 0.461849 9.0176 0.392757 8.99095 0.328284C8.96429 0.26381 8.9252 0.205218 8.8759 0.155853C8.8266 0.106488 8.76806 0.0673168 8.70363 0.0405755C8.63919 0.0138342 8.57012 4.6629e-05 8.50035 1.18228e-07C8.35946 -9.38146e-05 8.22429 0.0557881 8.1246 0.155352C8.0249 0.254917 7.96884 0.390008 7.96875 0.530907V1.59414H4.78125V0.531615C4.7813 0.461849 4.7676 0.392757 4.74095 0.328284C4.71429 0.26381 4.6752 0.205218 4.6259 0.155853C4.5766 0.106488 4.51806 0.0673168 4.45363 0.0405755C4.38919 0.0138342 4.32012 4.6629e-05 4.25035 1.18228e-07C4.10946 -9.38146e-05 3.9743 0.0557881 3.8746 0.155352C3.7749 0.254917 3.71884 0.390008 3.71875 0.530907V1.59414H1.41667C1.04107 1.59414 0.680839 1.7433 0.415182 2.00883C0.149526 2.27436 0.0001878 2.63452 0 3.01013V15.5833C0 15.959 0.149256 16.3194 0.414932 16.5851C0.680609 16.8507 1.04094 17 1.41667 17H15.5833C15.9591 17 16.3194 16.8507 16.5851 16.5851C16.8507 16.3194 17 15.959 17 15.5833V3.01013C16.9998 2.63452 16.8505 2.27436 16.5848 2.00883C16.3192 1.7433 15.9589 1.59414 15.5833 1.59414ZM15.9375 15.584C15.9375 15.6778 15.9003 15.7678 15.834 15.8342C15.7678 15.9006 15.6778 15.938 15.584 15.9382H1.41667C1.32274 15.9382 1.23265 15.9009 1.16623 15.8345C1.09981 15.768 1.0625 15.6779 1.0625 15.584V3.01083C1.06269 2.91702 1.10008 2.82712 1.16648 2.76085C1.23288 2.69459 1.32286 2.65737 1.41667 2.65737H3.71875V3.71989C3.71866 3.86079 3.77454 3.99595 3.8741 4.09565C3.97366 4.19535 4.10875 4.25141 4.24965 4.25151C4.39054 4.2516 4.5257 4.19572 4.6254 4.09615C4.72509 3.99659 4.78116 3.8615 4.78125 3.7206V2.65737H7.96875V3.71989C7.96866 3.86079 8.02454 3.99595 8.1241 4.09565C8.22366 4.19535 8.35875 4.25141 8.49965 4.25151C8.64054 4.2516 8.77571 4.19572 8.8754 4.09615C8.97509 3.99659 9.03116 3.8615 9.03125 3.7206V2.65737H12.2188V3.71989C12.2187 3.86079 12.2745 3.99595 12.3741 4.09565C12.4737 4.19535 12.6087 4.25141 12.7496 4.25151C12.8905 4.2516 13.0257 4.19572 13.1254 4.09615C13.2251 3.99659 13.2812 3.8615 13.2812 3.7206V2.65737H15.5833C15.677 2.65756 15.7668 2.69486 15.8331 2.7611C15.8993 2.82735 15.9366 2.91715 15.9368 3.01083L15.9375 15.584Z" fill="white"/>
<path d="M4 6H6V8H4V6Z" fill="white"/>
<path d="M4 9H6V10H4V9Z" fill="white"/>
<path d="M4 11H6V13H4V11Z" fill="white"/>
<path d="M7 11H10V13H7V11Z" fill="white"/>
<path d="M7 9H10V10H7V9Z" fill="white"/>
<path d="M7 6H10V8H7V6Z" fill="white"/>
<path d="M11 11H13V13H11V11Z" fill="white"/>
<path d="M11 9H13V10H11V9Z" fill="white"/>
<path d="M11 6H13V8H11V6Z" fill="white"/>
</svg>
