<svg width="200" height="200" viewBox="0 0 200 200" fill="none" xmlns="http://www.w3.org/2000/svg">
<path d="M100 137.5C104.945 137.5 109.778 136.034 113.889 133.287C118 130.54 121.205 126.635 123.097 122.067C124.989 117.499 125.484 112.472 124.52 107.623C123.555 102.773 121.174 98.3186 117.678 94.8223C114.181 91.326 109.727 88.945 104.877 87.9804C100.028 87.0157 95.0011 87.5108 90.4329 89.403C85.8648 91.2952 81.9603 94.4995 79.2133 98.6107C76.4662 102.722 75 107.555 75 112.5C75 119.13 77.6339 125.489 82.3223 130.178C87.0107 134.866 93.3696 137.5 100 137.5ZM100 100C102.472 100 104.889 100.733 106.945 102.107C109 103.48 110.602 105.432 111.548 107.716C112.495 110.001 112.742 112.514 112.26 114.939C111.778 117.363 110.587 119.591 108.839 121.339C107.091 123.087 104.863 124.278 102.439 124.76C100.014 125.242 97.5005 124.995 95.2165 124.048C92.9324 123.102 90.9801 121.5 89.6066 119.445C88.2331 117.389 87.5 114.972 87.5 112.5C87.5 109.185 88.817 106.005 91.1612 103.661C93.5054 101.317 96.6848 100 100 100ZM87.5 37.5H112.5V50H87.5V37.5Z" fill="black"/>
<path d="M150 12.5H50C46.6858 12.5033 43.5083 13.8213 41.1648 16.1648C38.8213 18.5083 37.5033 21.6858 37.5 25V175C37.5033 178.314 38.8213 181.492 41.1648 183.835C43.5083 186.179 46.6858 187.497 50 187.5H150C153.314 187.495 156.49 186.176 158.833 183.833C161.176 181.49 162.495 178.314 162.5 175V25C162.497 21.6858 161.179 18.5083 158.835 16.1648C156.492 13.8213 153.314 12.5033 150 12.5ZM125 175H75V162.5C75 160.842 75.6585 159.253 76.8306 158.081C78.0027 156.908 79.5924 156.25 81.25 156.25H118.75C120.408 156.25 121.997 156.908 123.169 158.081C124.342 159.253 125 160.842 125 162.5V175ZM137.5 175V162.5C137.5 157.527 135.525 152.758 132.008 149.242C128.492 145.725 123.723 143.75 118.75 143.75H81.25C76.2772 143.75 71.5081 145.725 67.9917 149.242C64.4754 152.758 62.5 157.527 62.5 162.5V175H50V25H150V175H137.5Z" fill="black"/>
</svg>
