<svg width="18" height="20" viewBox="0 0 18 20" fill="none" xmlns="http://www.w3.org/2000/svg">
<path d="M0 1.875C0 1.37772 0.203188 0.900806 0.564866 0.549175C0.926543 0.197544 1.41708 0 1.92857 0H10.9286C11.4401 0 11.9306 0.197544 12.2923 0.549175C12.654 0.900806 12.8571 1.37772 12.8571 1.875V4.11625L17.0589 8.20125C17.6613 8.78711 17.9998 9.58157 18 10.41V19.375C18 19.5408 17.9323 19.6997 17.8117 19.8169C17.6912 19.9342 17.5276 20 17.3571 20C17.1866 20 17.0231 19.9342 16.9026 19.8169C16.782 19.6997 16.7143 19.5408 16.7143 19.375V10.41C16.7138 9.91289 16.5104 9.43629 16.1486 9.085L12.8571 5.885V9.74125L13.9551 10.8075C14.0757 10.9249 14.1433 11.084 14.1432 11.2498C14.1431 11.4157 14.0752 11.5747 13.9545 11.6919C13.8947 11.7499 13.8238 11.7959 13.7457 11.8273C13.6677 11.8587 13.584 11.8748 13.4995 11.8747C13.329 11.8746 13.1654 11.8086 13.0449 11.6912L9.18771 7.94125C8.64514 7.41375 8.343 7.43625 8.21057 7.46875C7.98814 7.52125 7.79143 7.69375 7.51629 7.95125C7.38771 8.07125 7.33371 8.18875 7.35943 8.36375C7.39286 8.5825 7.569 8.97375 8.16943 9.5575L9.729 11.0738L10.0967 11.4325C10.1566 11.4905 10.2041 11.5595 10.2366 11.6354C10.269 11.7114 10.2857 11.7928 10.2857 11.875C10.2857 12.8425 10.2934 13.8162 10.5686 14.5512C10.6997 14.9025 10.8784 15.1587 11.1137 15.33C11.3439 15.4975 11.6833 15.625 12.2143 15.625C12.3848 15.625 12.5483 15.6908 12.6689 15.8081C12.7894 15.9253 12.8571 16.0842 12.8571 16.25V18.125C12.8571 18.6223 12.654 19.0992 12.2923 19.4508C11.9306 19.8025 11.4401 20 10.9286 20H1.92857C1.41708 20 0.926543 19.8025 0.564866 19.4508C0.203188 19.0992 0 18.6223 0 18.125V1.875ZM6.42857 6.875C5.88866 6.87493 5.35743 7.00708 4.88391 7.25926C4.41039 7.51144 4.00984 7.87552 3.71922 8.3179C3.4286 8.76028 3.25729 9.26671 3.22108 9.79043C3.18487 10.3142 3.28494 10.8383 3.51206 11.3145C3.73917 11.7907 4.08601 12.2037 4.52056 12.5152C4.95511 12.8267 5.46337 13.0268 5.99843 13.097C6.5335 13.1671 7.07812 13.1051 7.58204 12.9167C8.08596 12.7282 8.53293 12.4194 8.88171 12.0187L8.81743 11.9562L7.25914 10.4412C6.57386 9.775 6.17914 9.14875 6.08786 8.54625C6.04353 8.27251 6.06965 7.99235 6.16388 7.73082C6.25811 7.46928 6.41752 7.23452 6.62786 7.0475L6.67157 7.00625L6.79243 6.89375C6.6716 6.8809 6.55012 6.87464 6.42857 6.875V6.875ZM9 18.125V18.75H10.2857V18.125C10.2857 17.9592 10.3534 17.8003 10.474 17.6831C10.5946 17.5658 10.7581 17.5 10.9286 17.5H11.5714V16.825C11.1298 16.7598 10.7109 16.5921 10.35 16.3363C9.95849 16.456 9.61647 16.694 9.37367 17.0157C9.13088 17.3374 8.99997 17.726 9 18.125V18.125ZM1.28571 3.75H1.92857C2.44006 3.75 2.9306 3.55246 3.29228 3.20083C3.65395 2.84919 3.85714 2.37228 3.85714 1.875V1.25H2.57143V1.875C2.57143 2.04076 2.5037 2.19973 2.38314 2.31694C2.26258 2.43415 2.09907 2.5 1.92857 2.5H1.28571V3.75ZM9 1.875C9 2.37228 9.20319 2.84919 9.56487 3.20083C9.92654 3.55246 10.4171 3.75 10.9286 3.75H11.5714V2.5H10.9286C10.7581 2.5 10.5946 2.43415 10.474 2.31694C10.3534 2.19973 10.2857 2.04076 10.2857 1.875V1.25H9V1.875ZM3.85714 18.125C3.85714 17.6277 3.65395 17.1508 3.29228 16.7992C2.9306 16.4475 2.44006 16.25 1.92857 16.25H1.28571V17.5H1.92857C2.09907 17.5 2.26258 17.5658 2.38314 17.6831C2.5037 17.8003 2.57143 17.9592 2.57143 18.125V18.75H3.85714V18.125Z" fill="white"/>
</svg>
