<svg width="220" height="220" viewBox="0 0 220 220" fill="none" xmlns="http://www.w3.org/2000/svg">
<path d="M27.5 0L0 16.0417V48.125L27.5 64.1667L55 48.125V16.0417L27.5 0ZM41.4058 18.7L27.3808 26.8767L13.475 18.7642L27.5 10.5875L41.4058 18.7ZM9.075 26.7758L22.6783 34.7142V50.7558L9.075 42.845V26.7758ZM31.7533 51.095V34.9067L45.925 26.6383V42.8358L31.7533 51.095Z" fill="url(#paint0_linear_2818_917)"/>
<path d="M27.5 155.833L0 171.875V203.958L27.5 220L55 203.958V171.875L27.5 155.833ZM41.4058 174.533L27.3808 182.71L13.475 174.597L27.5 166.421L41.4058 174.533ZM9.075 182.618L22.6783 190.556V206.598L9.075 198.678V182.618ZM31.7533 206.937V190.74L45.925 182.471V198.669L31.7533 206.937Z" fill="url(#paint1_linear_2818_917)"/>
<path d="M192.5 0L165 16.0417V48.125L192.5 64.1667L220 48.125V16.0417L192.5 0ZM206.406 18.7L192.381 26.8767L178.475 18.7642L192.5 10.5875L206.406 18.7ZM174.075 26.785L187.678 34.7233V50.765L174.075 42.8358V26.785ZM196.753 51.1042V34.9067L210.925 26.6383V42.8358L196.753 51.1042Z" fill="url(#paint2_linear_2818_917)"/>
<path d="M192.5 155.833L165 171.875V203.958L192.5 220L220 203.958V171.875L192.5 155.833ZM206.406 174.533L192.381 182.71L178.475 174.597L192.5 166.421L206.406 174.533ZM174.075 182.618L187.678 190.556V206.598L174.075 198.669V182.618ZM196.753 206.937V190.74L210.925 182.471V198.669L196.753 206.937Z" fill="url(#paint3_linear_2818_917)"/>
<path d="M82.5 27.5H137.5V36.6667H82.5V27.5Z" fill="url(#paint4_linear_2818_917)"/>
<path d="M82.5 183.333H137.5V192.5H82.5V183.333Z" fill="url(#paint5_linear_2818_917)"/>
<path d="M32.0827 82.5V137.5H22.916V82.5H32.0827Z" fill="url(#paint6_linear_2818_917)"/>
<path d="M66.8524 80.9233L47.3916 61.49L53.8816 55L73.3333 74.4425L66.8524 80.9233Z" fill="url(#paint7_linear_2818_917)"/>
<path d="M146.666 76.0177L166.109 56.5752L172.589 63.056L153.156 82.4985L146.666 76.0177Z" fill="url(#paint8_linear_2818_917)"/>
<path d="M74.5223 136.381L55.0798 155.833L48.5898 149.343L68.0415 129.909L74.5223 136.381Z" fill="url(#paint9_linear_2818_917)"/>
<path d="M154.723 129.515L174.166 148.957L167.685 155.438L148.242 135.995L154.723 129.515Z" fill="url(#paint10_linear_2818_917)"/>
<path d="M197.083 82.5V137.5H187.916V82.5H197.083Z" fill="url(#paint11_linear_2818_917)"/>
<defs>
<linearGradient id="paint0_linear_2818_917" x1="27.5" y1="0" x2="27.5" y2="64.1667" gradientUnits="userSpaceOnUse">
<stop stop-color="#3C64EE"/>
<stop offset="1" stop-color="#FF5082" stop-opacity="0"/>
</linearGradient>
<linearGradient id="paint1_linear_2818_917" x1="27.5" y1="155.833" x2="27.5" y2="220" gradientUnits="userSpaceOnUse">
<stop stop-color="#3C64EE"/>
<stop offset="1" stop-color="#FF5082" stop-opacity="0"/>
</linearGradient>
<linearGradient id="paint2_linear_2818_917" x1="192.5" y1="0" x2="192.5" y2="64.1667" gradientUnits="userSpaceOnUse">
<stop stop-color="#3C64EE"/>
<stop offset="1" stop-color="#FF5082" stop-opacity="0"/>
</linearGradient>
<linearGradient id="paint3_linear_2818_917" x1="192.5" y1="155.833" x2="192.5" y2="220" gradientUnits="userSpaceOnUse">
<stop stop-color="#3C64EE"/>
<stop offset="1" stop-color="#FF5082" stop-opacity="0"/>
</linearGradient>
<linearGradient id="paint4_linear_2818_917" x1="110" y1="27.5" x2="110" y2="36.6667" gradientUnits="userSpaceOnUse">
<stop stop-color="#3C64EE"/>
<stop offset="1" stop-color="#FF5082" stop-opacity="0"/>
</linearGradient>
<linearGradient id="paint5_linear_2818_917" x1="110" y1="183.333" x2="110" y2="192.5" gradientUnits="userSpaceOnUse">
<stop stop-color="#3C64EE"/>
<stop offset="1" stop-color="#FF5082" stop-opacity="0"/>
</linearGradient>
<linearGradient id="paint6_linear_2818_917" x1="27.4993" y1="82.5" x2="27.4993" y2="137.5" gradientUnits="userSpaceOnUse">
<stop stop-color="#3C64EE"/>
<stop offset="1" stop-color="#FF5082" stop-opacity="0"/>
</linearGradient>
<linearGradient id="paint7_linear_2818_917" x1="60.3624" y1="55" x2="60.3624" y2="80.9233" gradientUnits="userSpaceOnUse">
<stop stop-color="#3C64EE"/>
<stop offset="1" stop-color="#FF5082" stop-opacity="0"/>
</linearGradient>
<linearGradient id="paint8_linear_2818_917" x1="159.628" y1="56.5752" x2="159.628" y2="82.4985" gradientUnits="userSpaceOnUse">
<stop stop-color="#3C64EE"/>
<stop offset="1" stop-color="#FF5082" stop-opacity="0"/>
</linearGradient>
<linearGradient id="paint9_linear_2818_917" x1="61.5561" y1="129.909" x2="61.5561" y2="155.833" gradientUnits="userSpaceOnUse">
<stop stop-color="#3C64EE"/>
<stop offset="1" stop-color="#FF5082" stop-opacity="0"/>
</linearGradient>
<linearGradient id="paint10_linear_2818_917" x1="161.204" y1="129.515" x2="161.204" y2="155.438" gradientUnits="userSpaceOnUse">
<stop stop-color="#3C64EE"/>
<stop offset="1" stop-color="#FF5082" stop-opacity="0"/>
</linearGradient>
<linearGradient id="paint11_linear_2818_917" x1="192.499" y1="82.5" x2="192.499" y2="137.5" gradientUnits="userSpaceOnUse">
<stop stop-color="#3C64EE"/>
<stop offset="1" stop-color="#FF5082" stop-opacity="0"/>
</linearGradient>
</defs>
<svg width="60" height="60" viewBox="0 0 60 60" fill="none" xmlns="http://www.w3.org/2000/svg" x="80" y="78">
<path d="M36.8787 36.8756C34.9228 34.9187 32.2696 33.819 29.5029 33.8184C26.7361 33.8177 24.0824 34.9161 22.1256 36.8721C20.1687 38.828 19.069 41.4811 19.0684 44.2479C19.0677 47.0146 20.1661 49.6683 22.1221 51.6252L29.4951 58.9999L36.8734 51.6216C37.8418 50.6535 38.6099 49.504 39.134 48.2389C39.6581 46.9739 39.9278 45.6179 39.9278 44.2486C39.9278 42.8793 39.6581 41.5233 39.134 40.2583C38.6099 38.9932 37.8418 37.8438 36.8734 36.8756H36.8787ZM32.3728 47.0077C32.3568 47.029 32.3356 47.0484 32.3161 47.0697L32.256 47.1263L29.4968 49.8837L26.6828 47.0768C26.1262 46.5193 25.7471 45.8095 25.5935 45.0369C25.4399 44.2643 25.5185 43.4635 25.8196 42.7355C26.1206 42.0075 26.6305 41.385 27.285 40.9466C27.9394 40.5081 28.7091 40.2733 29.4968 40.2719C30.2778 40.2721 31.0414 40.5019 31.6928 40.9326C32.3442 41.3633 32.8546 41.9759 33.1607 42.6944C33.4667 43.4128 33.5549 44.2054 33.4142 44.9735C33.2734 45.7417 32.9101 46.4515 32.3692 47.0148L32.3728 47.0077Z" fill="url(#paint0_linear_2818_955)"/>
<path d="M51.6255 22.1227C50.6574 21.1526 49.5069 20.3837 48.2402 19.8603C46.9736 19.3369 45.6159 19.0695 44.2454 19.0733C42.5296 19.0732 40.8404 19.4963 39.3272 20.3051C37.8141 21.1139 36.5239 22.2835 35.5708 23.7102C34.6178 25.1369 34.0313 26.7767 33.8635 28.4842C33.6957 30.1917 33.9516 31.9142 34.6087 33.4992C35.2657 35.0841 36.3036 36.4825 37.6303 37.5705C38.957 38.6584 40.5315 39.4023 42.2145 39.7363C43.8974 40.0702 45.6367 39.9839 47.2783 39.4849C48.9199 38.9859 50.413 38.0897 51.6255 36.8758L59.0002 29.501L51.6255 22.1227ZM47.0771 32.3167C46.5195 32.8735 45.8096 33.2526 45.0368 33.4062C44.264 33.5597 43.463 33.4809 42.735 33.1797C42.0069 32.8784 41.3845 32.3682 40.9461 31.7135C40.5078 31.0588 40.2733 30.2889 40.2722 29.501C40.2724 28.7201 40.5022 27.9564 40.9329 27.305C41.3636 26.6536 41.9762 26.1432 42.6947 25.8371C43.4131 25.5311 44.2057 25.4429 44.9738 25.5837C45.742 25.7244 46.4518 26.0877 47.0151 26.6286C47.0364 26.6445 47.0558 26.6657 47.0771 26.6852L47.1337 26.7454L49.8911 29.5027L47.0771 32.3167Z" fill="url(#paint1_linear_2818_955)"/>
<path d="M22.1226 22.1221C21.1541 21.1537 20.0044 20.3854 18.739 19.8613C17.4736 19.3372 16.1174 19.0674 14.7478 19.0674C13.3782 19.0674 12.0219 19.3372 10.7566 19.8613C9.49122 20.3854 8.34148 21.1537 7.37301 22.1221L0 29.5005L7.37478 36.8752C8.34261 37.8446 9.49223 38.6133 10.7577 39.1375C12.0233 39.6617 13.3798 39.931 14.7496 39.9299C16.8129 39.9303 18.83 39.3186 20.5456 38.1723C22.2612 37.026 23.5983 35.3965 24.3876 33.4902C25.1769 31.5838 25.383 29.4861 24.9798 27.4625C24.5766 25.4389 23.5823 23.5804 22.1226 22.1221ZM18.7334 29.4987C18.7316 30.2856 18.4969 31.0545 18.059 31.7083C17.6211 32.3622 16.9994 32.8719 16.2724 33.1731C15.5454 33.4744 14.7455 33.5538 13.9734 33.4013C13.2014 33.2488 12.4917 32.8713 11.9338 32.3162L9.11981 29.5005L11.8772 26.7431C11.8931 26.7236 11.9143 26.7024 11.9338 26.6829C11.9533 26.6635 11.9745 26.6422 11.9957 26.6263C12.559 26.0854 13.2689 25.7221 14.037 25.5814C14.8052 25.4407 15.5977 25.5288 16.3162 25.8348C17.0346 26.1409 17.6473 26.6513 18.078 27.3027C18.5087 27.9541 18.7384 28.7178 18.7387 29.4987H18.7334Z" fill="url(#paint2_linear_2818_955)"/>
<path d="M36.8761 7.37478L29.5013 0L22.123 7.37478C20.6641 8.83327 19.6706 10.6916 19.268 12.7148C18.8653 14.738 19.0717 16.8351 19.8611 18.741C20.6504 20.6469 21.9871 22.2759 23.7023 23.422C25.4175 24.5681 27.434 25.1798 29.4968 25.1798C31.5597 25.1798 33.5762 24.5681 35.2914 23.422C37.0066 22.2759 38.3433 20.6469 39.1326 18.741C39.922 16.8351 40.1284 14.738 39.7257 12.7148C39.3231 10.6916 38.3296 8.83327 36.8707 7.37478H36.8761ZM32.317 17.5671C31.948 17.938 31.5092 18.2321 31.0259 18.4326C30.5426 18.6331 30.0245 18.7359 29.5013 18.7352C28.7135 18.7337 27.9439 18.4989 27.2894 18.0604C26.6349 17.622 26.125 16.9995 25.824 16.2715C25.523 15.5436 25.4443 14.7427 25.5979 13.9701C25.7516 13.1975 26.1306 12.4877 26.6873 11.9303L29.5013 9.11627L32.2604 11.8736C32.2799 11.8896 32.2993 11.9108 32.3206 11.9303C32.3418 11.9497 32.3613 11.971 32.3772 11.9922C33.0989 12.7444 33.4968 13.7496 33.4855 14.7919C33.4743 15.8343 33.0547 16.8306 32.317 17.5671Z" fill="url(#paint3_linear_2818_955)"/>
<path d="M10.7676 52.2178C10.2347 52.2337 9.704 52.1425 9.20698 51.9495C8.70997 51.7566 8.25675 51.4658 7.87417 51.0944C7.4916 50.7231 7.18745 50.2788 6.97975 49.7877C6.77206 49.2967 6.66504 48.7689 6.66504 48.2358C6.66504 47.7026 6.77206 47.1749 6.97975 46.6839C7.18745 46.1928 7.4916 45.7485 7.87417 45.3771C8.25675 45.0058 8.70997 44.715 9.20698 44.522C9.704 44.3291 10.2347 44.2378 10.7676 44.2537H14.7497V48.2358C14.7497 49.2919 14.3301 50.3047 13.5833 51.0515C12.8366 51.7983 11.8237 52.2178 10.7676 52.2178Z" fill="url(#paint4_linear_2818_955)"/>
<path d="M14.7534 14.7495H10.7484C9.96092 14.7456 9.19227 14.5086 8.53941 14.0683C7.88655 13.6281 7.37873 13.0043 7.08006 12.2757C6.78138 11.5471 6.70522 10.7463 6.8612 9.97446C7.01718 9.20261 7.39829 8.49427 7.95646 7.93882C8.51462 7.38337 9.22481 7.00571 9.99741 6.85349C10.77 6.70128 11.5704 6.78134 12.2975 7.08356C13.0247 7.38578 13.646 7.89663 14.0831 8.55163C14.5202 9.20663 14.7534 9.97643 14.7534 10.7639V14.7495Z" fill="url(#paint5_linear_2818_955)"/>
<path d="M51.0518 51.0536C50.4974 51.6092 49.7912 51.9887 49.0219 52.1446C48.2526 52.3005 47.4544 52.2257 46.7275 51.9297C46.0005 51.6337 45.3771 51.1296 44.9355 50.4807C44.4939 49.8318 44.2537 49.0669 44.2451 48.282C44.2451 48.2272 44.2451 48.1723 44.2451 48.121V44.2451H48.1829H48.3422C49.0124 44.262 49.6673 44.4496 50.2448 44.7902C50.696 45.0553 51.0905 45.4067 51.4059 45.8243C51.7212 46.242 51.9512 46.7176 52.0827 47.2242C52.2142 47.7307 52.2446 48.2582 52.1722 48.7765C52.0997 49.2947 51.9259 49.7937 51.6606 50.2448C51.4924 50.5388 51.2878 50.8105 51.0518 51.0536Z" fill="url(#paint6_linear_2818_955)"/>
<path d="M48.3157 14.7465C48.288 14.7483 48.2602 14.7483 48.2325 14.7465C48.2048 14.7484 48.177 14.7484 48.1493 14.7465H44.2451V10.7662C44.245 9.97821 44.4786 9.20787 44.9162 8.55254C45.3538 7.89721 45.9758 7.38631 46.7037 7.0844C47.4316 6.78249 48.2326 6.70312 49.0056 6.85633C49.7786 7.00953 50.4888 7.38843 51.0465 7.94515C51.5989 8.49703 51.977 9.19911 52.1337 9.96411C52.2904 10.7291 52.2188 11.5233 51.9279 12.2479C51.6369 12.9726 51.1394 13.5958 50.4972 14.04C49.855 14.4842 49.0964 14.7299 48.3157 14.7465Z" fill="url(#paint7_linear_2818_955)"/>
<path d="M51.0571 7.94869C51.6089 8.5014 51.9861 9.20413 52.1418 9.96949C52.2974 10.7349 52.2247 11.5291 51.9326 12.2534C51.6404 12.9778 51.1419 13.6003 50.4988 14.0435C49.8557 14.4868 49.0966 14.7313 48.3157 14.7465C48.288 14.7483 48.2602 14.7483 48.2325 14.7465C48.2048 14.7484 48.177 14.7484 48.1493 14.7465H44.2451V10.7662C44.245 9.97821 44.4786 9.20787 44.9162 8.55254C45.3538 7.89721 45.9758 7.38631 46.7037 7.0844C47.4316 6.78249 48.2326 6.70312 49.0056 6.85633C49.7786 7.00953 50.4888 7.38843 51.0465 7.94515L51.0571 7.94869Z" fill="url(#paint8_linear_2818_955)"/>
<defs>
<linearGradient id="paint0_linear_2818_955" x1="29.4981" y1="33.8184" x2="29.4981" y2="58.9999" gradientUnits="userSpaceOnUse">
<stop stop-color="#3C64EE"/>
<stop offset="1" stop-color="#FF5082" stop-opacity="0"/>
</linearGradient>
<linearGradient id="paint1_linear_2818_955" x1="46.4069" y1="19.0732" x2="46.4069" y2="39.9358" gradientUnits="userSpaceOnUse">
<stop stop-color="#3C64EE"/>
<stop offset="1" stop-color="#FF5082" stop-opacity="0"/>
</linearGradient>
<linearGradient id="paint2_linear_2818_955" x1="12.5904" y1="19.0674" x2="12.5904" y2="39.9299" gradientUnits="userSpaceOnUse">
<stop stop-color="#3C64EE"/>
<stop offset="1" stop-color="#FF5082" stop-opacity="0"/>
</linearGradient>
<linearGradient id="paint3_linear_2818_955" x1="29.4969" y1="0" x2="29.4969" y2="25.1798" gradientUnits="userSpaceOnUse">
<stop stop-color="#3C64EE"/>
<stop offset="1" stop-color="#FF5082" stop-opacity="0"/>
</linearGradient>
<linearGradient id="paint4_linear_2818_955" x1="10.7074" y1="44.252" x2="10.7074" y2="52.2196" gradientUnits="userSpaceOnUse">
<stop stop-color="#3C64EE"/>
<stop offset="1" stop-color="#FF5082" stop-opacity="0"/>
</linearGradient>
<linearGradient id="paint5_linear_2818_955" x1="10.7678" y1="6.77832" x2="10.7678" y2="14.7495" gradientUnits="userSpaceOnUse">
<stop stop-color="#3C64EE"/>
<stop offset="1" stop-color="#FF5082" stop-opacity="0"/>
</linearGradient>
<linearGradient id="paint6_linear_2818_955" x1="48.2278" y1="44.2451" x2="48.2278" y2="52.224" gradientUnits="userSpaceOnUse">
<stop stop-color="#3C64EE"/>
<stop offset="1" stop-color="#FF5082" stop-opacity="0"/>
</linearGradient>
<linearGradient id="paint7_linear_2818_955" x1="48.2299" y1="6.78027" x2="48.2299" y2="14.7479" gradientUnits="userSpaceOnUse">
<stop stop-color="#3C64EE"/>
<stop offset="1" stop-color="#FF5082" stop-opacity="0"/>
</linearGradient>
<linearGradient id="paint8_linear_2818_955" x1="48.2334" y1="6.78027" x2="48.2334" y2="14.7479" gradientUnits="userSpaceOnUse">
<stop stop-color="#3C64EE"/>
<stop offset="1" stop-color="#FF5082" stop-opacity="0"/>
</linearGradient>
</defs>
</svg>
</svg>
