<svg width="16" height="20" viewBox="0 0 16 20" fill="none" xmlns="http://www.w3.org/2000/svg">
<path d="M4.2 9.33333H3.6V10.6667H4.2V9.33333ZM11.4 10.6667H12V9.33333H11.4V10.6667ZM4.2 5.33333H3.6V6.66667H4.2V5.33333ZM6.6 6.66667H7.2V5.33333H6.6V6.66667ZM11.4 0.666667L11.8248 0.194667L11.6484 0H11.4V0.666667ZM15 4.66667H15.6V4.39067L15.4248 4.19467L15 4.66667ZM8.4 14.6667L7.9752 15.1387L8.4 14.6667ZM7.8 15.3333L8.0688 15.9293L8.1168 15.9027L8.16 15.8667L7.8 15.3333ZM4.2 10.6667H11.4V9.33333H4.2V10.6667ZM4.2 6.66667H6.6V5.33333H4.2V6.66667ZM13.8 18.6667H1.8V20H13.8V18.6667ZM1.2 18V2H0V18H1.2ZM1.8 1.33333H11.4V0H1.8V1.33333ZM14.4 4.66667V18H15.6V4.66667H14.4ZM10.9752 1.13867L14.5752 5.13867L15.4248 4.19467L11.8248 0.194667L10.9752 1.13867ZM1.8 18.6667C1.64087 18.6667 1.48826 18.5964 1.37574 18.4714C1.26321 18.3464 1.2 18.1768 1.2 18H0C0 18.5304 0.189642 19.0391 0.527208 19.4142C0.864773 19.7893 1.32261 20 1.8 20V18.6667ZM13.8 20C14.2774 20 14.7352 19.7893 15.0728 19.4142C15.4104 19.0391 15.6 18.5304 15.6 18H14.4C14.4 18.1768 14.3368 18.3464 14.2243 18.4714C14.1117 18.5964 13.9591 18.6667 13.8 18.6667V20ZM1.2 2C1.2 1.82319 1.26321 1.65362 1.37574 1.5286C1.48826 1.40357 1.64087 1.33333 1.8 1.33333V0C1.32261 0 0.864773 0.210714 0.527208 0.585786C0.189642 0.960859 0 1.46957 0 2H1.2ZM5.3688 15.544C5.502 15.1 5.8812 14.688 6.3648 14.544C6.8172 14.4093 7.3992 14.4973 7.9752 15.1387L8.8248 14.1947C7.9608 13.2347 6.942 12.9907 6.054 13.256C5.1984 13.512 4.4976 14.2333 4.23 15.1227L5.37 15.544H5.3688ZM7.9752 15.1387C8.00896 15.1751 8.04062 15.2138 8.07 15.2547L9.018 14.436C8.95814 14.3516 8.89361 14.2715 8.8248 14.196L7.9752 15.1387ZM8.07 15.2547C8.1636 15.388 8.142 15.4307 8.1456 15.4013C8.148 15.3827 8.1528 15.4133 8.0808 15.4853C7.97705 15.5817 7.8594 15.6579 7.7328 15.7107C7.58069 15.7787 7.42205 15.827 7.26 15.8547C7.16114 15.8756 7.06004 15.8801 6.96 15.868C6.9396 15.8627 6.9816 15.868 7.044 15.9173C7.12052 15.9829 7.17677 16.0734 7.20494 16.1761C7.2331 16.2789 7.2318 16.3888 7.2012 16.4907C7.1944 16.5128 7.18513 16.5338 7.1736 16.5533C7.1712 16.556 7.1916 16.5267 7.26 16.464C7.3968 16.3413 7.6488 16.1627 8.0688 15.9307L7.5312 14.7373C7.0788 14.988 6.7392 15.2173 6.5064 15.4267C6.38834 15.5291 6.28338 15.6488 6.1944 15.7827C6.08123 15.951 6.02208 16.1566 6.0264 16.3667C6.0384 16.6547 6.1788 16.8667 6.3324 16.9907C6.468 17.1027 6.618 17.1507 6.7284 17.176C6.9528 17.2253 7.2084 17.212 7.44 17.1733C7.896 17.096 8.4864 16.8773 8.8884 16.472C9.0972 16.26 9.2952 15.956 9.3372 15.5573C9.3804 15.1493 9.2484 14.7667 9.0168 14.4373L8.0688 15.2547H8.07ZM8.16 15.8667C8.35199 15.7035 8.56063 15.5661 8.7816 15.4573L8.3052 14.2333C8.0172 14.372 7.7292 14.56 7.44 14.8L8.16 15.8667ZM8.7816 15.4573C9.5616 15.0827 10.2588 15.28 10.9728 15.6573C11.1528 15.7533 11.328 15.8573 11.5056 15.964C11.6784 16.068 11.8608 16.1787 12.0336 16.2773C12.3648 16.4627 12.7752 16.6667 13.2 16.6667V15.3333C13.0872 15.3333 12.9024 15.2707 12.576 15.088C12.4224 15 12.2616 14.9013 12.0768 14.7907C11.8968 14.6827 11.6976 14.564 11.4888 14.4547C10.6512 14.0107 9.5556 13.6333 8.3052 14.2333L8.7816 15.4573Z" fill="white"/>
</svg>
