<svg xmlns="http://www.w3.org/2000/svg" xmlns:xlink="http://www.w3.org/1999/xlink" aria-hidden="true" role="img" id="footer-sample-full" width="1em" height="1em" preserveAspectRatio="xMidYMid meet" viewBox="0 0 20 20" class="iconify iconify--fluent"><g fill="none"><path d="M2.5 5a.5.5 0 0 0 0 1h15a.5.5 0 0 0 0-1h-15z" fill="white"></path><path d="M2.5 8a.5.5 0 0 0 0 1h15a.5.5 0 0 0 0-1h-15z" fill="white"></path><path d="M2 11.5a.5.5 0 0 1 .5-.5h15a.5.5 0 0 1 0 1h-15a.5.5 0 0 1-.5-.5z" fill="white"></path><path d="M2.5 14a.5.5 0 0 0 0 1h10a.5.5 0 0 0 0-1h-10z" fill="white"></path></g></svg>