<svg width="403" height="94" viewBox="0 0 403 94" fill="none" xmlns="http://www.w3.org/2000/svg">
<path d="M0 15.8221L13.6897 7.91227L27.3775 -0.000419617V15.8221V31.6465L13.6897 23.7319L0 15.8221Z" fill="#FF5082"/>
<path d="M109.512 15.8221L95.8255 23.7319L82.1338 31.6465V15.8221V-0.000419617L95.8255 7.91227L109.512 15.8221Z" fill="#FF5082" fill-opacity="0.51"/>
<path d="M54.7545 15.8221L41.0657 23.7319L27.376 31.6465V15.8221V-0.000419617L41.0657 7.91227L54.7545 15.8221Z" fill="#FF5082" fill-opacity="0.51"/>
<path d="M54.7568 15.8221L68.4456 7.91227L82.1353 -0.000419617V15.8221V31.6465L68.4456 23.7319L54.7568 15.8221Z" fill="#FF5082"/>
<path d="M27.376 31.6453L41.0657 23.7307L54.7545 15.8209V31.6453V47.4697L41.0657 39.558L27.376 31.6453Z" fill="#FF5082"/>
<path d="M82.1353 31.6453L68.4456 39.558L54.7568 47.4697V31.6453V15.8209L68.4456 23.7307L82.1353 31.6453Z" fill="#FF5082" fill-opacity="0.51"/>
<path d="M0 61.6824L13.6897 53.7678L27.3775 45.8599V61.6824V77.5068L13.6897 69.5922L0 61.6824Z" fill="#FF5082"/>
<path d="M109.512 61.6824L95.8255 69.5922L82.1338 77.5068V61.6824V45.8599L95.8255 53.7678L109.512 61.6824Z" fill="#FF5082" fill-opacity="0.51"/>
<path d="M54.7545 61.6824L41.0657 69.5922L27.376 77.5068V61.6824V45.8599L41.0657 53.7678L54.7545 61.6824Z" fill="#FF5082" fill-opacity="0.51"/>
<path d="M54.7568 61.6824L68.4456 53.7678L82.1353 45.8599V61.6824V77.5068L68.4456 69.5922L54.7568 61.6824Z" fill="#FF5082"/>
<path d="M27.376 77.5086L41.0657 69.594L54.7545 61.6842V77.5086V93.333L41.0657 85.4184L27.376 77.5086Z" fill="#FF5082"/>
<path d="M82.1353 77.5086L68.4456 85.4184L54.7568 93.333V77.5086V61.6842L68.4456 69.594L82.1353 77.5086Z" fill="#FF5082" fill-opacity="0.51"/>
<path d="M153.778 28.8421C163.326 28.8421 169.817 35.9793 170.067 46.6671H137.124C137.832 35.9793 144.47 28.8421 153.778 28.8421ZM153.821 24.6933C141.072 24.6933 132.506 34.7108 132.506 49.6256C132.506 64.9195 140.809 74.4189 154.175 74.4189C164.57 74.4189 172.361 68.8059 174.027 60.1128L174.148 59.4849H169.603L169.512 59.8996C168.127 66.2005 162.124 70.2759 154.218 70.2759C143.725 70.2759 137.174 62.7607 137.045 50.6394H174.612V48.1256C174.612 34.1127 166.255 24.6933 153.821 24.6933Z" fill="#FF5082"/>
<path d="M184.843 73.8018H189.339V6.42186H184.843V73.8018Z" fill="#FF5082"/>
<path d="M217.155 70.3184C210.091 70.3184 204.961 66.1879 204.961 60.5025C204.961 52.9081 212.281 50.7783 218.431 50.3268L233.67 49.1867V55.7017C233.67 63.76 226.263 70.3184 217.155 70.3184ZM220.681 24.6933C210.36 24.6933 203.137 30.5369 202.271 39.5782L202.216 40.1579H206.552L206.626 39.7123C207.724 32.8308 212.83 28.8836 220.633 28.8836C228.917 28.8836 233.67 33.4896 233.67 41.518V45.252L217.906 46.4047C206.498 47.2652 200.465 52.1394 200.465 60.5025C200.465 68.6959 207.145 74.418 216.716 74.418C224.147 74.418 230.704 70.8373 233.754 65.3101V73.8016H238.122V41.2991C238.122 31.0559 231.443 24.6933 220.681 24.6933Z" fill="#FF5082"/>
<path d="M270.238 47.869L262.881 46.0633C256.097 44.4775 253.334 42.0987 253.334 37.8641C253.334 32.6668 258.653 28.7505 265.705 28.7505C273.013 28.7505 277.991 32.8867 278.694 39.5483L278.748 40.0239H283.153L283.104 39.4441C282.322 30.4829 275.508 24.6933 265.748 24.6933C256.158 24.6933 248.929 30.4154 248.929 37.9991C248.929 44.2025 252.876 48.0465 261.35 50.0963L268.975 51.9503C276.479 53.7377 279.401 56.2573 279.401 60.9424C279.401 66.4271 273.715 70.4042 265.882 70.4042C258.251 70.4042 252.492 66.0606 251.881 59.8321L251.833 59.3566H247.349L247.386 59.9237C247.952 68.3245 255.7 74.418 265.797 74.418C276.43 74.418 283.854 68.7875 283.854 60.7224C283.854 53.9519 279.907 50.2236 270.238 47.869Z" fill="#FF5082"/>
<path d="M306.847 69.7871C302.285 69.7871 300.509 67.7132 300.509 62.3934V29.3661H310.063V25.309H300.509V13.1144H296.055V25.309H289.102V29.3661H296.055V62.4792C296.055 70.4768 299.149 73.8867 306.408 73.8867C306.683 73.8867 309.892 73.8501 310.239 73.7951L310.685 73.7218V70.2328L310.721 69.5489L310.063 69.708C309.794 69.7447 307.213 69.7871 306.847 69.7871Z" fill="#FF5082"/>
<path d="M337.715 70.2759C327.308 70.2759 320.586 62.1501 320.586 49.5773C320.586 36.8156 327.149 28.8845 337.715 28.8845C348.282 28.8845 354.846 36.8156 354.846 49.5773C354.846 62.1501 348.124 70.2759 337.715 70.2759ZM337.715 24.6933C324.576 24.6933 316.09 34.461 316.09 49.5773C316.09 64.6696 324.576 74.418 337.715 74.418C350.88 74.418 359.384 64.6696 359.384 49.5773C359.384 34.461 350.88 24.6933 337.715 24.6933Z" fill="#FF5082"/>
<path d="M389.384 47.869L382.027 46.0633C375.243 44.4775 372.48 42.0987 372.48 37.8641C372.48 32.6668 377.799 28.7505 384.852 28.7505C392.16 28.7505 397.138 32.8867 397.839 39.5483L397.894 40.0239H402.299L402.25 39.4441C401.469 30.4829 394.661 24.6933 384.901 24.6933C375.311 24.6933 368.075 30.4154 368.075 37.9991C368.075 44.2025 372.022 48.0465 380.496 50.0963L388.122 51.9503C395.625 53.7377 398.547 56.2573 398.547 60.9424C398.547 66.4271 392.861 70.4042 385.028 70.4042C377.397 70.4042 371.638 66.0606 371.028 59.8321L370.979 59.3566H366.495L366.532 59.9237C367.099 68.3245 374.847 74.418 384.943 74.418C395.576 74.418 403.001 68.7875 403.001 60.7224C403.001 53.9519 399.054 50.2236 389.384 47.869Z" fill="#FF5082"/>
</svg>
