<svg width="20" height="25" viewBox="0 0 20 25" fill="none" xmlns="http://www.w3.org/2000/svg">
<path d="M19.8197 11.9825L10.656 0.319634C10.5781 0.220064 10.4785 0.139539 10.3649 0.0841595C10.2512 0.0287802 10.1264 0 10 0C9.87356 0 9.74878 0.0287802 9.63512 0.0841595C9.52145 0.139539 9.42189 0.220064 9.34396 0.319634L0.180278 11.9825C0.0636259 12.127 0 12.3071 0 12.4928C0 12.6784 0.0636259 12.8585 0.180278 13.003L9.34396 24.6659C9.42189 24.7654 9.52145 24.846 9.63512 24.9014C9.74878 24.9567 9.87356 24.9855 10 24.9855C10.1264 24.9855 10.2512 24.9567 10.3649 24.9014C10.4785 24.846 10.5781 24.7654 10.656 24.6659L19.8197 13.003C19.9364 12.8585 20 12.6784 20 12.4928C20 12.3071 19.9364 12.127 19.8197 11.9825ZM10.8331 3.23535L17.8516 12.1699L10.8331 15.3668V3.23535ZM9.16694 15.3668L2.14839 12.1699L9.16694 3.23535V15.3668ZM9.16694 17.1996V21.7502L3.60625 14.6691L9.16694 17.1996ZM10.8331 17.1996L16.3938 14.6691L10.8331 21.7502V17.1996Z" fill="white"/>
</svg>
