<svg width="30" height="21" viewBox="0 0 30 21" fill="none" xmlns="http://www.w3.org/2000/svg">
<path d="M22.2923 19.9757C21.1236 19.3994 20.4245 17.8956 20.4215 15.9527L20.4199 15.0272C20.4339 14.8702 20.4407 14.7133 20.4402 14.5605L20.4324 9.30668C20.4288 7.92832 19.8791 6.6076 18.9037 5.63368C17.9283 4.65975 16.6068 4.11198 15.2284 4.11035H15.2199L5.19625 4.12576C3.81644 4.12931 2.49438 4.68006 1.52014 5.65716C0.545889 6.63426 -0.000976215 7.95788 -0.000487955 9.33769L0.00722875 14.5915C0.0109864 15.9697 0.560768 17.2904 1.53618 18.2641C2.51159 19.2378 3.83312 19.7853 5.21137 19.7867H5.21948L15.2429 19.7717C16.2977 19.7728 17.3273 19.45 18.1927 18.847C19.4121 19.6234 20.8215 20.0495 22.2668 20.0786L22.5046 20.0825L22.2923 19.9757Z" fill="#A067FF"/>
<path d="M29.8053 16.0511C28.6242 15.4653 27.9193 13.9477 27.9193 11.9907V11.0609C27.9328 10.9087 27.9396 10.7533 27.9396 10.5979V5.34492C27.9382 3.97541 27.3937 2.66237 26.4254 1.69386C25.4572 0.725351 24.1443 0.180457 22.7748 0.178711H12.751C11.3814 0.180269 10.0683 0.725083 9.09992 1.69361C8.1315 2.66214 7.58685 3.97529 7.58545 5.34492V10.5979C7.58703 11.9675 8.13175 13.2805 9.10013 14.249C10.0685 15.2175 11.3815 15.7624 12.751 15.7641H22.7748C23.8301 15.7649 24.8601 15.441 25.725 14.8362C26.9418 15.6193 28.3519 16.0496 29.7985 16.0792L29.8651 16.0812L29.8053 16.0511Z" fill="#368BFF"/>
<path d="M20.3939 9.30769C20.3903 7.93809 19.8437 6.6258 18.8738 5.65877C17.9039 4.69173 16.5901 4.14893 15.2205 4.14941L12.8109 4.15338L7.72381 4.16126C7.63197 4.54935 7.58546 4.94683 7.58521 5.34564V10.5986C7.58676 11.9681 8.1315 13.2812 9.09991 14.2496C10.0683 15.2179 11.3813 15.7626 12.7508 15.7641H20.3826L20.3813 15.0248C20.3948 14.8726 20.4016 14.7184 20.4016 14.5607L20.3939 9.30769Z" fill="#7624FE"/>
</svg>
