<svg width="56" height="37" viewBox="0 0 56 37" fill="none" xmlns="http://www.w3.org/2000/svg">
<path d="M9.70184 35.1164H9.69011C7.48071 35.1142 5.36224 34.2365 3.79863 32.6756C2.2352 31.1148 1.3539 28.9981 1.34767 26.789C1.34767 26.7888 1.34767 26.7885 1.34767 26.7882L1.33333 17.0247C1.33333 17.0244 1.33333 17.0242 1.33333 17.0239C1.33275 14.8123 2.20938 12.6907 3.771 11.1245C5.33266 9.55831 7.45178 8.67543 9.66349 8.66959C9.66368 8.66959 9.66388 8.66959 9.66407 8.66959L28.2944 8.64095H28.2954H28.3094C30.5188 8.64377 32.637 9.52185 34.2004 11.083C35.7638 12.644 36.6449 14.7607 36.6511 16.9699C36.6511 16.9703 36.6511 16.9707 36.6511 16.9711L36.6655 26.7362L36.6655 26.7387C36.6663 26.9806 36.6555 27.2313 36.633 27.4834L36.6276 27.5437L36.6277 27.6042L36.6308 29.3244C36.6308 29.3245 36.6308 29.3246 36.6308 29.3247C36.6342 31.4842 37.0731 33.516 37.9605 35.1292C36.7574 34.7782 35.6041 34.2575 34.537 33.578L33.7875 33.1008L33.0585 33.6088C31.6739 34.5737 30.0263 35.0902 28.3387 35.0884L28.3352 35.0884L9.70384 35.1164H9.70184Z" stroke="url(#paint0_linear_6064_51)" stroke-width="2.66666"/>
<path d="M50.5691 21.9584C50.5691 24.0639 50.982 26.048 51.8182 27.6472C50.6681 27.2943 49.566 26.7842 48.5447 26.1269L47.7923 25.6427L47.059 26.1554C45.6756 27.1228 44.0279 27.641 42.3398 27.6397H42.3387H23.7065C21.5135 27.6369 19.4112 26.7645 17.8607 25.2137C16.3103 23.6632 15.4381 21.561 15.4354 19.3683V9.60457C15.4378 7.41182 16.3099 5.30954 17.8603 3.75893C19.4107 2.20832 21.5129 1.33601 23.7056 1.33333H42.3378C44.5303 1.33634 46.6322 2.20878 48.1823 3.75933C49.7326 5.31006 50.6046 7.41245 50.6068 9.60525V19.3691C50.6068 19.6193 50.5958 19.8689 50.5743 20.112L50.5691 20.1708V20.2298V21.9584Z" stroke="url(#paint1_linear_6064_51)" stroke-width="2.66666"/>
<path d="M36.556 27.639H23.7058C21.513 27.6365 19.4107 26.7645 17.8602 25.214C16.3098 23.6637 15.4376 21.5616 15.4349 19.3691V9.6051C15.4351 9.31403 15.4507 9.02342 15.4815 8.73447L23.818 8.72156L23.8182 8.72156L28.2958 8.71419C28.2961 8.71419 28.2964 8.71419 28.2967 8.71419C30.4894 8.71364 32.5927 9.58273 34.1454 11.1309C35.698 12.6789 36.5733 14.7795 36.5793 16.972C36.5793 16.9725 36.5793 16.9729 36.5793 16.9734L36.5936 26.7353C36.5936 26.7359 36.5936 26.7365 36.5936 26.7371C36.5936 26.7371 36.5936 26.7372 36.5936 26.7372C36.5936 26.9912 36.5826 27.238 36.5611 27.4803L36.5558 27.5403L36.5559 27.6005L36.556 27.639Z" stroke="url(#paint2_linear_6064_51)" stroke-width="2.66666"/>
<defs>
<linearGradient id="paint0_linear_6064_51" x1="20.9183" y1="7.30762" x2="20.9183" y2="36.9996" gradientUnits="userSpaceOnUse">
<stop stop-color="#7624FE"/>
<stop offset="1" stop-color="#368BFF"/>
</linearGradient>
<linearGradient id="paint1_linear_6064_51" x1="0.333275" y1="19.1666" x2="51.4999" y2="19" gradientUnits="userSpaceOnUse">
<stop stop-color="#7624FE"/>
<stop offset="1" stop-color="#368BFF"/>
</linearGradient>
<linearGradient id="paint2_linear_6064_51" x1="26.0143" y1="7.38086" x2="26.0143" y2="28.9723" gradientUnits="userSpaceOnUse">
<stop stop-color="#7624FE"/>
<stop offset="1" stop-color="#368BFF"/>
</linearGradient>
</defs>
</svg>
