<svg width="28" height="29" viewBox="0 0 28 29" fill="none" xmlns="http://www.w3.org/2000/svg">
<path d="M5.063 0L7.563 1.813C12.277 5.211 13.707 8.543 14 9.281L13.094 10.187V10.219L12.406 10.906L0.687 23.062L0 23.782L4.25 28.032L4.969 27.282L17.375 14.437L17.688 14.062L17.781 14L18.75 13.656L18.938 13.844L18.563 14.75L18.281 15.375L21.594 18.688L27.969 12.313L25.125 9.469L24.656 9.031L24.063 9.25L23.156 9.594L22.938 9.375L23.25 8.375L23.375 7.969L23.187 7.594C23.187 7.594 22.134 5.637 19.75 3.75C17.367 1.863 13.594 0 8.156 0H5.063ZM11.093 2.25C14.461 2.75 16.891 4.016 18.531 5.313C20.297 6.71 21 7.842 21.22 8.219L20.845 9.375L20.688 9.938L21.095 10.375L22.688 11.969L23.313 11.719L24.188 11.375L25.126 12.313L21.595 15.843L20.657 14.906L21.032 14L21.314 13.375L20.814 12.906L19.689 11.781L19.251 11.312L18.626 11.532L16.845 12.25L16.657 12.313L15.939 11.625L15.219 10.906L16.376 9.75L16.157 9.156C16.157 9.156 14.814 5.762 11.095 2.25H11.093ZM13.813 12.313L15.25 13.75L4.219 25.156L2.812 23.75L13.813 12.313Z" fill="white"/>
</svg>
