<svg width="26" height="18" viewBox="0 0 26 18" fill="none" xmlns="http://www.w3.org/2000/svg">
<path d="M13.144 0C12.3757 0 11.748 0.623056 11.748 1.39602V16.1807C11.748 16.949 12.3711 17.5768 13.144 17.5768C13.9123 17.5768 14.5401 16.9537 14.5401 16.1807V1.39602C14.5401 0.623056 13.917 0 13.144 0Z" fill="#4AB4F0"/>
<path d="M19.1846 8.78836L25.5885 2.37979C26.1319 1.83638 26.1319 0.950981 25.5885 0.407563C25.0451 -0.135854 24.1597 -0.135854 23.6163 0.407563L16.224 7.79994C15.6806 8.34335 15.6806 9.22872 16.224 9.77213L23.6163 17.1645C23.888 17.4362 24.244 17.5721 24.6048 17.5721C24.9655 17.5721 25.3168 17.4362 25.5932 17.1645C26.1366 16.6211 26.1366 15.7357 25.5932 15.1923L19.1846 8.78836Z" fill="#4AB4F0"/>
<path d="M1.39602 0C0.623056 0 0 0.623056 0 1.39602C0 2.16898 0.623056 2.79205 1.39602 2.79205C4.70337 2.79205 7.39702 5.48102 7.39702 8.78836C7.39702 12.0957 4.70337 14.7894 1.39602 14.7894C0.623056 14.7847 0 15.4078 0 16.1807C0 16.9537 0.623056 17.5768 1.39602 17.5768C6.24463 17.5768 10.1844 13.6323 10.1844 8.78836C10.1844 3.93978 6.23992 0 1.39602 0Z" fill="#4AB4F0"/>
</svg>
