<svg width="368" height="134" viewBox="0 0 368 134" fill="none" xmlns="http://www.w3.org/2000/svg">
<g filter="url(#filter0_d_48_3)">
<rect x="4" width="360" height="120" rx="50" fill="#D60000"/>
</g>
<g filter="url(#filter1_d_48_3)">
<path d="M60.8965 68.4561V91H47.7129V27.0156H72.6738C77.4785 27.0156 81.6973 27.8945 85.3301 29.6523C88.9922 31.4102 91.8047 33.915 93.7676 37.167C95.7305 40.3896 96.7119 44.0664 96.7119 48.1973C96.7119 54.4668 94.5586 59.418 90.252 63.0508C85.9746 66.6543 80.042 68.4561 72.4541 68.4561H60.8965ZM60.8965 57.7773H72.6738C76.1602 57.7773 78.8115 56.957 80.6279 55.3164C82.4736 53.6758 83.3965 51.332 83.3965 48.2852C83.3965 45.1504 82.4736 42.6162 80.6279 40.6826C78.7822 38.749 76.2334 37.7529 72.9814 37.6943H60.8965V57.7773ZM134.109 77.8164H110.994L106.6 91H92.5811L116.399 27.0156H128.616L152.566 91H138.548L134.109 77.8164ZM114.554 67.1377H130.55L122.508 43.1875L114.554 67.1377ZM191.722 74.2129C191.722 71.7227 190.843 69.8184 189.085 68.5C187.327 67.1523 184.163 65.7461 179.593 64.2812C175.022 62.7871 171.404 61.3223 168.738 59.8867C161.473 55.9609 157.84 50.6729 157.84 44.0225C157.84 40.5654 158.807 37.4893 160.74 34.7939C162.703 32.0693 165.501 29.9453 169.134 28.4219C172.796 26.8984 176.897 26.1367 181.438 26.1367C186.009 26.1367 190.081 26.9717 193.655 28.6416C197.229 30.2822 199.998 32.6113 201.961 35.6289C203.953 38.6465 204.949 42.0742 204.949 45.9121H191.766C191.766 42.9824 190.843 40.7119 188.997 39.1006C187.151 37.46 184.559 36.6396 181.219 36.6396C177.996 36.6396 175.491 37.3281 173.704 38.7051C171.917 40.0527 171.023 41.8398 171.023 44.0664C171.023 46.1465 172.063 47.8896 174.144 49.2959C176.253 50.7021 179.344 52.0205 183.416 53.251C190.916 55.5068 196.38 58.3047 199.808 61.6445C203.235 64.9844 204.949 69.1445 204.949 74.125C204.949 79.6621 202.854 84.0127 198.665 87.1768C194.476 90.3115 188.836 91.8789 181.746 91.8789C176.824 91.8789 172.342 90.9854 168.299 89.1982C164.256 87.3818 161.165 84.9062 159.026 81.7715C156.917 78.6367 155.862 75.0039 155.862 70.873H169.09C169.09 77.9336 173.309 81.4639 181.746 81.4639C184.881 81.4639 187.327 80.834 189.085 79.5742C190.843 78.2852 191.722 76.498 191.722 74.2129ZM250.037 77.8164H226.922L222.527 91H208.509L232.327 27.0156H244.544L268.494 91H254.476L250.037 77.8164ZM230.481 67.1377H246.478L238.436 43.1875L230.481 67.1377ZM298.157 67.5771H287.654V91H274.471V27.0156H298.245C305.804 27.0156 311.634 28.7002 315.735 32.0693C319.837 35.4385 321.888 40.1992 321.888 46.3516C321.888 50.7168 320.936 54.3643 319.031 57.2939C317.156 60.1943 314.3 62.5088 310.462 64.2373L324.305 90.3848V91H310.154L298.157 67.5771ZM287.654 56.8984H298.289C301.6 56.8984 304.163 56.0635 305.979 54.3936C307.796 52.6943 308.704 50.3652 308.704 47.4062C308.704 44.3887 307.84 42.0156 306.111 40.2871C304.412 38.5586 301.79 37.6943 298.245 37.6943H287.654V56.8984Z" fill="#F2F2F2"/>
</g>
<defs>
<filter id="filter0_d_48_3" x="0" y="0" width="368" height="134" filterUnits="userSpaceOnUse" color-interpolation-filters="sRGB">
<feFlood flood-opacity="0" result="BackgroundImageFix"/>
<feColorMatrix in="SourceAlpha" type="matrix" values="0 0 0 0 0 0 0 0 0 0 0 0 0 0 0 0 0 0 127 0" result="hardAlpha"/>
<feOffset dy="10"/>
<feGaussianBlur stdDeviation="2"/>
<feComposite in2="hardAlpha" operator="out"/>
<feColorMatrix type="matrix" values="0 0 0 0 0 0 0 0 0 0 0 0 0 0 0 0 0 0 0.25 0"/>
<feBlend mode="normal" in2="BackgroundImageFix" result="effect1_dropShadow_48_3"/>
<feBlend mode="normal" in="SourceGraphic" in2="effect1_dropShadow_48_3" result="shape"/>
</filter>
<filter id="filter1_d_48_3" x="43.7129" y="26.1367" width="284.592" height="79.7422" filterUnits="userSpaceOnUse" color-interpolation-filters="sRGB">
<feFlood flood-opacity="0" result="BackgroundImageFix"/>
<feColorMatrix in="SourceAlpha" type="matrix" values="0 0 0 0 0 0 0 0 0 0 0 0 0 0 0 0 0 0 127 0" result="hardAlpha"/>
<feOffset dy="10"/>
<feGaussianBlur stdDeviation="2"/>
<feComposite in2="hardAlpha" operator="out"/>
<feColorMatrix type="matrix" values="0 0 0 0 0 0 0 0 0 0 0 0 0 0 0 0 0 0 0.25 0"/>
<feBlend mode="normal" in2="BackgroundImageFix" result="effect1_dropShadow_48_3"/>
<feBlend mode="normal" in="SourceGraphic" in2="effect1_dropShadow_48_3" result="shape"/>
</filter>
</defs>
</svg>
