<svg width="229" height="202" viewBox="0 0 229 202" fill="none" xmlns="http://www.w3.org/2000/svg">
<path d="M130.464 80.3841C128.36 78.2395 125.852 76.533 123.085 75.3633C120.318 74.1936 117.346 73.5838 114.342 73.5692C111.338 73.5546 108.361 74.1355 105.582 75.2782C102.804 76.421 100.28 78.103 98.155 80.227C96.0304 82.3511 94.3478 84.8751 93.2044 87.6532C92.061 90.4313 91.4794 93.4085 91.4933 96.4127C91.5072 99.4169 92.1162 102.389 93.2853 105.156C94.4543 107.923 96.1602 110.432 98.3043 112.536L114.38 128.612L130.464 112.528C132.575 110.418 134.249 107.912 135.392 105.155C136.534 102.397 137.122 99.4412 137.122 96.4563C137.122 93.4713 136.534 90.5156 135.392 87.7579C134.249 85.0002 132.575 82.4945 130.464 80.3841ZM120.642 102.471C120.603 102.517 120.561 102.56 120.514 102.606C120.468 102.652 120.43 102.691 120.383 102.729L114.373 108.74L108.235 102.621C107.021 101.406 106.195 99.8583 105.86 98.1737C105.525 96.4891 105.697 94.7431 106.354 93.1561C107.01 91.569 108.122 90.2121 109.55 89.2566C110.977 88.3012 112.655 87.7899 114.373 87.7875C116.074 87.7898 117.737 88.2917 119.156 89.2309C120.575 90.1701 121.687 91.5052 122.354 93.0706C123.021 94.636 123.213 96.3628 122.907 98.0366C122.602 99.7104 121.811 101.258 120.634 102.486L120.642 102.471Z" fill="#FF5082"/>
<path d="M162.609 48.2243C160.5 46.1094 157.994 44.4323 155.235 43.2895C152.476 42.1467 149.519 41.5608 146.532 41.5655C142.793 41.5646 139.11 42.4861 135.812 44.2485C132.513 46.0108 129.7 48.5594 127.622 51.6687C125.544 54.7779 124.265 58.3517 123.898 62.0735C123.531 65.7952 124.088 69.55 125.519 73.0052C126.95 76.4603 129.211 79.5092 132.102 81.8816C134.993 84.2541 138.425 85.8769 142.093 86.6062C145.76 87.3356 149.552 87.149 153.13 86.063C156.709 84.977 159.965 83.0251 162.609 80.3802L178.681 64.3042L162.609 48.2243ZM152.674 70.446C151.459 71.6596 149.911 72.486 148.227 72.8208C146.542 73.1556 144.796 72.9838 143.209 72.3271C141.622 71.6704 140.265 70.5583 139.31 69.1311C138.354 67.7038 137.843 66.0256 137.841 64.308C137.842 62.6057 138.344 60.9414 139.283 59.5218C140.223 58.1022 141.558 56.9898 143.124 56.3228C144.691 55.6558 146.418 55.4636 148.093 55.7701C149.767 56.0765 151.315 56.8681 152.543 58.0466C152.586 58.0813 152.632 58.1276 152.674 58.17C152.717 58.2125 152.763 58.2588 152.798 58.3012L158.808 64.3119L152.674 70.446Z" fill="#FF5082"/>
<path d="M98.3043 48.2243C96.1932 46.1131 93.6869 44.4385 90.9286 43.2959C88.1702 42.1534 85.2139 41.5653 82.2283 41.5653C79.2427 41.5653 76.2863 42.1534 73.528 43.2959C70.7696 44.4385 68.2634 46.1131 66.1522 48.2243L50.0685 64.3042L66.1445 80.3802C68.2544 82.493 70.7604 84.1688 73.5191 85.3114C76.2777 86.4541 79.2347 87.0411 82.2206 87.039C86.7186 87.0413 91.1162 85.7094 94.8569 83.2116C98.5977 80.7139 101.514 77.1626 103.235 73.0073C104.957 68.8519 105.408 64.2791 104.53 59.8676C103.652 55.4561 101.486 51.4041 98.3043 48.2243ZM90.9164 64.3042C90.915 66.0217 90.4045 67.7003 89.4496 69.1279C88.4946 70.5555 87.1379 71.668 85.5509 72.3248C83.9639 72.9817 82.2178 73.1534 80.5332 72.8183C78.8487 72.4832 77.3012 71.6563 76.0864 70.4421L69.9485 64.3042L75.9591 58.2935C75.9977 58.2511 76.0401 58.2048 76.0864 58.1623C76.1327 58.1199 76.1752 58.0736 76.2176 58.0389C77.4455 56.8599 78.9929 56.0678 80.6673 55.7611C82.3418 55.4543 84.0694 55.6465 85.6355 56.3136C87.2017 56.9808 88.5372 58.0935 89.4761 59.5134C90.415 60.9334 90.9158 62.598 90.9164 64.3003V64.3042Z" fill="#FF5082"/>
<path d="M130.456 16.076L114.38 0L98.3043 16.076C95.1248 19.2556 92.9596 23.3065 92.0823 27.7167C91.2051 32.1268 91.6554 36.698 93.3761 40.8522C95.0969 45.0065 98.0109 48.5572 101.75 51.0553C105.488 53.5534 109.884 54.8868 114.38 54.8868C118.877 54.8868 123.272 53.5534 127.011 51.0553C130.75 48.5572 133.664 45.0065 135.385 40.8522C137.105 36.698 137.556 32.1268 136.678 27.7167C135.801 23.3065 133.636 19.2556 130.456 16.076ZM120.514 38.2939C119.711 39.1026 118.755 39.744 117.702 40.1811C116.649 40.6181 115.52 40.8421 114.38 40.8402C112.663 40.8377 110.985 40.3265 109.557 39.371C108.13 38.4155 107.018 37.0586 106.361 35.4716C105.705 33.8845 105.533 32.1385 105.868 30.4539C106.202 28.7693 107.029 27.2217 108.242 26.0064L114.38 19.8723L120.368 25.8829C120.414 25.921 120.458 25.9623 120.499 26.0064C120.545 26.0527 120.588 26.0951 120.626 26.1414C122.202 27.7786 123.073 29.9684 123.052 32.2405C123.031 34.5126 122.12 36.686 120.514 38.2939Z" fill="#FF5082"/>
<path d="M73.5401 113.829C72.3784 113.863 71.2216 113.664 70.1382 113.244C69.0547 112.823 68.0668 112.189 67.2328 111.38C66.3988 110.57 65.7358 109.602 65.2831 108.531C64.8303 107.461 64.597 106.31 64.597 105.148C64.597 103.986 64.8303 102.836 65.2831 101.765C65.7358 100.695 66.3988 99.7261 67.2328 98.9167C68.0668 98.1072 69.0547 97.4734 70.1382 97.0527C71.2216 96.6321 72.3784 96.4332 73.5401 96.4678H82.2243V105.156C82.2213 107.457 81.305 109.663 79.6767 111.289C78.0484 112.915 75.8413 113.829 73.5401 113.829Z" fill="#FF5082"/>
<path d="M82.2282 32.1521H73.4977C71.7812 32.1437 70.1056 31.627 68.6825 30.6673C67.2593 29.7075 66.1524 28.3477 65.5013 26.7595C64.8502 25.1712 64.6842 23.4257 65.0242 21.7432C65.3642 20.0606 66.195 18.5165 67.4117 17.3057C68.6284 16.0949 70.1766 15.2717 71.8607 14.9399C73.5449 14.6081 75.2896 14.7826 76.8747 15.4414C78.4597 16.1002 79.8141 17.2138 80.7669 18.6416C81.7197 20.0694 82.2282 21.7475 82.2282 23.464V32.1521Z" fill="#FF5082"/>
<path d="M161.355 111.29C160.146 112.497 158.608 113.32 156.934 113.657C155.259 113.994 153.523 113.83 151.941 113.185C150.36 112.54 149.003 111.443 148.042 110.032C147.081 108.62 146.557 106.956 146.536 105.248C146.536 105.129 146.536 105.009 146.536 104.897V96.4485H155.12H155.467C157.164 96.4954 158.811 97.0389 160.202 98.0118C161.593 98.9846 162.669 100.344 163.295 101.922C163.922 103.5 164.072 105.227 163.727 106.889C163.382 108.552 162.557 110.076 161.355 111.275V111.29Z" fill="#FF5082"/>
<path d="M155.398 32.1444C155.338 32.1484 155.277 32.1484 155.217 32.1444C155.156 32.1483 155.096 32.1483 155.035 32.1444H146.548V23.4679C146.548 21.7501 147.057 20.0709 148.011 18.6423C148.965 17.2138 150.321 16.1001 151.907 15.442C153.494 14.7839 155.24 14.6108 156.925 14.9448C158.61 15.2788 160.158 16.1047 161.374 17.3183C162.579 18.5227 163.404 20.0553 163.745 21.7249C164.086 23.3946 163.928 25.1277 163.29 26.7082C162.653 28.2887 161.565 29.6469 160.162 30.6135C158.759 31.5802 157.102 32.1126 155.398 32.1444Z" fill="#FF5082"/>
<path d="M161.366 17.326C162.569 18.5304 163.391 20.0615 163.73 21.7292C164.07 23.3969 163.912 25.1277 163.276 26.7063C162.64 28.285 161.555 29.6421 160.154 30.6089C158.753 31.5757 157.1 32.1096 155.398 32.1444C155.338 32.1484 155.277 32.1484 155.217 32.1444C155.156 32.1483 155.096 32.1483 155.035 32.1444H146.548V23.4679C146.548 21.7501 147.057 20.0709 148.011 18.6423C148.965 17.2138 150.321 16.1001 151.907 15.442C153.494 14.7839 155.24 14.6108 156.925 14.9448C158.61 15.2788 160.158 16.1047 161.374 17.3183L161.366 17.326Z" fill="#FF5082"/>
<path d="M79.5547 160.313C71.9468 160.313 65.7355 163.5 62.0859 168.87C59.7711 172.234 58.5057 176.447 58.5057 181.273C58.5057 181.825 58.5057 182.369 58.5559 182.901C59.3275 195.347 69.0263 201.292 77.3479 201.292C82.9381 201.292 87.3516 198.615 89.404 193.811V201.292H100.28V181.192C100.28 168.43 91.7651 160.313 79.5547 160.313ZM79.4736 190.266C74.115 190.266 70.4885 186.408 70.4885 180.802C70.4885 175.197 74.115 171.343 79.4736 171.343C84.8323 171.343 88.4549 175.201 88.4549 180.802C88.4549 186.404 84.8285 190.266 79.4736 190.266Z" fill="#FF5082"/>
<path d="M125.499 176.389C121.872 175.837 119.041 175.521 119.041 173.16C119.041 171.578 120.217 170.074 123.138 170.074C125.499 170.074 127.077 171.096 127.382 172.913H138.886C138.651 165.895 132.663 160.305 122.964 160.305C113.265 160.305 107.042 165.814 107.042 173.7C107.042 183.082 115.873 184.421 121.236 185.208C124.855 185.76 127.698 185.98 127.698 188.599C127.698 190.254 126.51 191.512 122.891 191.512C119.654 191.512 118.161 190.49 118.08 188.426H106.429C106.583 195.914 113.045 201.273 123.057 201.273C133.068 201.273 139.692 195.914 139.692 187.874C139.692 178.677 131.101 177.176 125.499 176.389Z" fill="#FF5082"/>
<path d="M165.301 160.313C152.929 160.313 144.26 168.746 144.26 181.273C144.26 194.834 154.43 201.292 163.094 201.292C168.692 201.292 173.125 198.615 175.154 193.811V201.292H186.034V181.192C186.034 168.43 177.523 160.313 165.301 160.313ZM165.22 190.266C159.865 190.266 156.239 186.408 156.239 180.802C156.239 175.197 159.865 171.343 165.22 171.343C170.575 171.343 174.213 175.201 174.213 180.802C174.213 186.404 170.587 190.266 165.22 190.266Z" fill="#FF5082"/>
<path d="M211.257 160.317C200.841 160.317 193.754 165.988 193.754 178.125V201.296H205.578V178.125C205.578 172.924 207.947 171.35 211.257 171.35C214.567 171.35 216.928 172.924 216.928 178.125V178.441H228.753V178.206C228.672 165.891 221.658 160.317 211.257 160.317Z" fill="#FF5082"/>
<path d="M46.0986 152.281C43.0547 150.66 39.1543 149.758 34.3126 149.758H14.0507V174.271C12.2054 174.27 10.3781 174.634 8.67313 175.339C6.9682 176.045 5.41907 177.08 4.11425 178.385C2.80942 179.69 1.77448 181.239 1.06855 182.944C0.362621 184.649 -0.000463158 186.476 4.37223e-05 188.322C-0.00507981 190.364 0.440152 192.382 1.30403 194.232C2.43014 191.803 4.22668 189.747 6.48214 188.305C8.73761 186.862 11.3581 186.095 14.0352 186.092V201.3H26.8243V186.092H34.3126C48.3439 186.092 54.5668 178.376 54.5668 167.882C54.5668 161.011 51.8894 155.355 46.0986 152.281ZM37.0787 174.028C36.2463 174.2 35.3978 174.281 34.5479 174.271H26.832V161.578H34.5479C37.9198 161.578 39.841 162.608 40.8093 164.256C41.4071 165.368 41.6949 166.621 41.6427 167.882C41.6427 170.938 40.5084 173.291 37.0787 174.028Z" fill="#FF5082"/>
</svg>
