<svg width="59" height="59" viewBox="0 0 59 59" fill="none" xmlns="http://www.w3.org/2000/svg">
<path d="M36.8792 36.8756C34.9233 34.9187 32.2701 33.819 29.5034 33.8184C26.7366 33.8177 24.0829 34.9161 22.1261 36.8721C20.1692 38.828 19.0695 41.4811 19.0688 44.2479C19.0682 47.0146 20.1666 49.6683 22.1225 51.6252L29.4956 58.9999L36.8739 51.6216C37.8422 50.6534 38.6104 49.504 39.1345 48.2389C39.6586 46.9739 39.9283 45.6179 39.9283 44.2486C39.9283 42.8793 39.6586 41.5233 39.1345 40.2583C38.6104 38.9932 37.8422 37.8438 36.8739 36.8756H36.8792ZM32.3733 47.0077C32.3573 47.029 32.3361 47.0484 32.3166 47.0697L32.2565 47.1263L29.4973 49.8837L26.6833 47.0768C26.1267 46.5193 25.7476 45.8095 25.594 45.0369C25.4404 44.2643 25.519 43.4635 25.82 42.7355C26.1211 42.0075 26.631 41.385 27.2854 40.9466C27.9399 40.5081 28.7096 40.2733 29.4973 40.2719V40.2719C30.2782 40.2721 31.0419 40.5019 31.6933 40.9326C32.3447 41.3633 32.8551 41.9759 33.1612 42.6944C33.4672 43.4128 33.5554 44.2054 33.4146 44.9735C33.2739 45.7417 32.9106 46.4515 32.3697 47.0148L32.3733 47.0077Z" fill="#FF5082"/>
<path d="M51.6252 22.1227C50.6571 21.1526 49.5065 20.3837 48.2399 19.8603C46.9733 19.3369 45.6156 19.0695 44.2451 19.0733V19.0733C42.5293 19.0732 40.8401 19.4963 39.3269 20.3051C37.8138 21.1139 36.5235 22.2835 35.5705 23.7102C34.6174 25.1369 34.031 26.7767 33.8632 28.4842C33.6954 30.1917 33.9513 31.9142 34.6084 33.4992C35.2654 35.0841 36.3033 36.4825 37.63 37.5705C38.9567 38.6584 40.5312 39.4023 42.2142 39.7363C43.8971 40.0702 45.6364 39.9839 47.278 39.4849C48.9196 38.9859 50.4127 38.0897 51.6252 36.8758L58.9999 29.501L51.6252 22.1227ZM47.0768 32.3167C46.5192 32.8735 45.8093 33.2526 45.0365 33.4062C44.2637 33.5597 43.4627 33.4809 42.7347 33.1797C42.0066 32.8784 41.3842 32.3682 40.9458 31.7135C40.5075 31.0588 40.273 30.2889 40.2719 29.501V29.501C40.2721 28.7201 40.5019 27.9564 40.9326 27.305C41.3633 26.6536 41.9759 26.1432 42.6944 25.8371C43.4128 25.5311 44.2054 25.4429 44.9735 25.5837C45.7417 25.7244 46.4515 26.0877 47.0148 26.6286C47.036 26.6445 47.0555 26.6657 47.0768 26.6852L47.1334 26.7454L49.8907 29.5027L47.0768 32.3167Z" fill="#FF5082"/>
<path d="M22.1226 22.1226C21.1541 21.1541 20.0044 20.3859 18.739 19.8618C17.4736 19.3376 16.1174 19.0679 14.7478 19.0679C13.3782 19.0679 12.0219 19.3376 10.7566 19.8618C9.49122 20.3859 8.34148 21.1541 7.37301 22.1226L0 29.5009L7.37478 36.8757C8.34261 37.845 9.49223 38.6138 10.7577 39.138C12.0233 39.6622 13.3798 39.9315 14.7496 39.9304V39.9304C16.8129 39.9308 18.83 39.3191 20.5456 38.1728C22.2612 37.0265 23.5983 35.397 24.3876 33.4906C25.1769 31.5842 25.383 29.4866 24.9798 27.463C24.5766 25.4394 23.5823 23.5809 22.1226 22.1226V22.1226ZM18.7334 29.4992C18.7316 30.2861 18.4969 31.055 18.059 31.7088C17.6211 32.3627 16.9994 32.8724 16.2724 33.1736C15.5454 33.4749 14.7455 33.5542 13.9734 33.4018C13.2014 33.2493 12.4917 32.8717 11.9338 32.3167L9.11981 29.5009L11.8772 26.7436C11.8931 26.7241 11.9143 26.7029 11.9338 26.6834C11.9533 26.6639 11.9745 26.6427 11.9957 26.6268C12.559 26.0859 13.2689 25.7226 14.037 25.5819C14.8052 25.4411 15.5977 25.5293 16.3162 25.8353C17.0346 26.1414 17.6473 26.6518 18.078 27.3032C18.5087 27.9546 18.7384 28.7183 18.7387 29.4992H18.7334Z" fill="#FF5082"/>
<path d="M36.8757 7.37478L29.5009 0L22.1226 7.37478C20.6638 8.83327 19.6702 10.6916 19.2676 12.7148C18.865 14.738 19.0714 16.8351 19.8607 18.741C20.65 20.6469 21.9868 22.2759 23.7019 23.422C25.4171 24.5681 27.4336 25.1798 29.4965 25.1798C31.5593 25.1798 33.5759 24.5681 35.291 23.422C37.0062 22.2759 38.343 20.6469 39.1323 18.741C39.9216 16.8351 40.128 14.738 39.7254 12.7148C39.3228 10.6916 38.3292 8.83327 36.8704 7.37478H36.8757ZM32.3167 17.5671C31.9476 17.938 31.5088 18.2321 31.0256 18.4326C30.5423 18.6331 30.0241 18.7359 29.5009 18.7352V18.7352C28.7132 18.7337 27.9435 18.4989 27.289 18.0604C26.6346 17.622 26.1247 16.9995 25.8236 16.2715C25.5226 15.5436 25.4439 14.7427 25.5976 13.9701C25.7512 13.1975 26.1303 12.4877 26.6869 11.9303L29.5009 9.11627L32.26 11.8736C32.2795 11.8896 32.299 11.9108 32.3202 11.9303C32.3414 11.9497 32.3609 11.971 32.3768 11.9922C33.0985 12.7444 33.4964 13.7496 33.4852 14.7919C33.4739 15.8343 33.0544 16.8306 32.3167 17.5671V17.5671Z" fill="#FF5082"/>
<path d="M10.7674 52.2181C10.2345 52.234 9.70381 52.1427 9.2068 51.9498C8.70979 51.7568 8.25657 51.466 7.87399 51.0947C7.49141 50.7234 7.18727 50.279 6.97957 49.788C6.77187 49.2969 6.66486 48.7692 6.66486 48.236C6.66486 47.7029 6.77187 47.1751 6.97957 46.6841C7.18727 46.1931 7.49141 45.7487 7.87399 45.3774C8.25657 45.006 8.70979 44.7153 9.2068 44.5223C9.70381 44.3293 10.2345 44.2381 10.7674 44.254H14.7495V48.236C14.7495 49.2921 14.3299 50.305 13.5832 51.0518C12.8364 51.7986 11.8235 52.2181 10.7674 52.2181V52.2181Z" fill="#FF5082"/>
<path d="M14.7531 14.7495H10.748C9.96056 14.7456 9.19191 14.5086 8.53904 14.0683C7.88618 13.6281 7.37837 13.0043 7.07969 12.2757C6.78101 11.5471 6.70486 10.7463 6.86083 9.97446C7.01681 9.20261 7.39793 8.49427 7.95609 7.93882C8.51426 7.38337 9.22445 7.00571 9.99704 6.85349C10.7696 6.70128 11.57 6.78134 12.2971 7.08356C13.0243 7.38578 13.6456 7.89663 14.0827 8.55163C14.5198 9.20663 14.7531 9.97643 14.7531 10.7639V14.7495Z" fill="#FF5082"/>
<path d="M51.0518 51.0536C50.4974 51.6092 49.7913 51.9887 49.022 52.1446C48.2527 52.3005 47.4545 52.2257 46.7275 51.9297C46.0005 51.6337 45.3772 51.1296 44.9355 50.4807C44.4939 49.8318 44.2538 49.0669 44.2452 48.282C44.2452 48.2272 44.2452 48.1723 44.2452 48.121V44.2451H48.183H48.3423C49.0125 44.262 49.6674 44.4496 50.2448 44.7902C50.696 45.0553 51.0906 45.4067 51.4059 45.8243C51.7213 46.242 51.9513 46.7176 52.0828 47.2242C52.2143 47.7307 52.2447 48.2582 52.1722 48.7765C52.0998 49.2947 51.926 49.7937 51.6607 50.2448C51.4924 50.5388 51.2879 50.8105 51.0518 51.0536V51.0536Z" fill="#FF5082"/>
<path d="M48.3157 14.746C48.288 14.7478 48.2602 14.7478 48.2325 14.746C48.2049 14.7479 48.1771 14.7479 48.1494 14.746H44.2452V10.7657C44.2451 9.97772 44.4786 9.20738 44.9162 8.55205C45.3539 7.89672 45.9759 7.38582 46.7038 7.08391C47.4317 6.782 48.2327 6.70263 49.0057 6.85584C49.7786 7.00904 50.4888 7.38795 51.0465 7.94466V7.94466C51.599 8.49655 51.9771 9.19862 52.1338 9.96362C52.2905 10.7286 52.2189 11.5228 51.928 12.2475C51.637 12.9721 51.1395 13.5953 50.4973 14.0395C49.855 14.4837 49.0964 14.7294 48.3157 14.746V14.746Z" fill="#FF5082"/>
<path d="M51.0572 7.9482C51.609 8.50091 51.9862 9.20364 52.1418 9.969C52.2975 10.7344 52.2247 11.5286 51.9326 12.2529C51.6405 12.9773 51.1419 13.5998 50.4989 14.0431C49.8558 14.4863 49.0966 14.7308 48.3157 14.746C48.288 14.7478 48.2602 14.7478 48.2325 14.746C48.2049 14.7479 48.1771 14.7479 48.1494 14.746H44.2452V10.7657C44.2451 9.97772 44.4786 9.20738 44.9162 8.55205C45.3539 7.89672 45.9759 7.38582 46.7038 7.08391C47.4317 6.782 48.2327 6.70263 49.0057 6.85584C49.7786 7.00904 50.4888 7.38795 51.0465 7.94466L51.0572 7.9482Z" fill="#FF5082"/>
</svg>
