<svg width="247" height="226" viewBox="0 0 247 226" fill="none" xmlns="http://www.w3.org/2000/svg">
<path d="M10.0791 75.333V200.889C10.0791 207.548 12.7247 213.936 17.434 218.645C22.1432 223.354 28.5303 226 35.1902 226H210.968C217.628 226 224.015 223.354 228.724 218.645C233.433 213.936 236.079 207.548 236.079 200.889V75.333" fill="url(#paint0_linear_2818_948)"/>
<path d="M229.627 0H179.505L185.783 62.7778C185.783 62.7778 198.338 75.3333 217.172 75.3333C227.058 75.3464 236.609 71.7476 244.028 65.2136C244.812 64.4806 245.397 63.5599 245.726 62.5384C246.056 61.5169 246.119 60.4282 245.911 59.3752L237.047 6.27778C236.751 4.52369 235.843 2.93112 234.485 1.78212C233.127 0.633108 231.406 0.00180278 229.627 0Z" fill="url(#paint1_linear_2818_948)"/>
<path d="M179.505 0L185.783 62.7778C185.783 62.7778 173.227 75.3333 154.394 75.3333C135.56 75.3333 123.005 62.7778 123.005 62.7778V0H179.505Z" fill="url(#paint2_linear_2818_948)"/>
<path d="M123.005 0V62.7778C123.005 62.7778 110.45 75.3333 91.6164 75.3333C72.7831 75.3333 60.2275 62.7778 60.2275 62.7778L66.5053 0H123.005Z" fill="url(#paint3_linear_2818_948)"/>
<path d="M66.4951 5.24788e-07H16.3858C14.6029 -0.000664674 12.8775 0.631072 11.5165 1.78286C10.1555 2.93465 9.24715 4.53182 8.95296 6.29033L0.10129 59.3878C-0.262821 61.5473 0.352402 63.7697 1.98462 65.2261C6.10285 68.8672 15.3061 75.3459 28.8284 75.3459C47.6617 75.3459 60.2173 62.7903 60.2173 62.7903L66.4951 0.0125552V5.24788e-07Z" fill="url(#paint4_linear_2818_948)"/>
<defs>
<linearGradient id="paint0_linear_2818_948" x1="123.079" y1="75.333" x2="123.079" y2="226" gradientUnits="userSpaceOnUse">
<stop stop-color="#3C64EE"/>
<stop offset="1" stop-color="#FF5082" stop-opacity="0"/>
</linearGradient>
<linearGradient id="paint1_linear_2818_948" x1="212.768" y1="0" x2="212.768" y2="75.3334" gradientUnits="userSpaceOnUse">
<stop stop-color="#3C64EE"/>
<stop offset="1" stop-color="#FF5082" stop-opacity="0"/>
</linearGradient>
<linearGradient id="paint2_linear_2818_948" x1="154.394" y1="0" x2="154.394" y2="75.3333" gradientUnits="userSpaceOnUse">
<stop stop-color="#3C64EE"/>
<stop offset="1" stop-color="#FF5082" stop-opacity="0"/>
</linearGradient>
<linearGradient id="paint3_linear_2818_948" x1="91.6164" y1="0" x2="91.6164" y2="75.3333" gradientUnits="userSpaceOnUse">
<stop stop-color="#3C64EE"/>
<stop offset="1" stop-color="#FF5082" stop-opacity="0"/>
</linearGradient>
<linearGradient id="paint4_linear_2818_948" x1="33.2475" y1="0" x2="33.2475" y2="75.3459" gradientUnits="userSpaceOnUse">
<stop stop-color="#3C64EE"/>
<stop offset="1" stop-color="#FF5082" stop-opacity="0"/>
</linearGradient>
</defs>
</svg>
