<svg width="22" height="20" viewBox="0 0 22 20" fill="none" xmlns="http://www.w3.org/2000/svg">
<path d="M1.80322 7V17C1.80322 17.5304 2.01394 18.0391 2.38901 18.4142C2.76408 18.7893 3.27279 19 3.80322 19H17.8032C18.3337 19 18.8424 18.7893 19.2174 18.4142C19.5925 18.0391 19.8032 17.5304 19.8032 17V7" stroke="white" stroke-width="1.5"/>
<path d="M19.2879 1H15.2959L15.7959 6C15.7959 6 16.7959 7 18.2959 7C19.0833 7.00104 19.844 6.71441 20.4349 6.194C20.4974 6.13563 20.5439 6.0623 20.5702 5.98094C20.5964 5.89958 20.6015 5.81287 20.5849 5.729L19.8789 1.5C19.8553 1.36029 19.783 1.23345 19.6748 1.14194C19.5667 1.05042 19.4296 1.00014 19.2879 1V1Z" stroke="white" stroke-width="1.5"/>
<path d="M15.2959 1L15.7959 6C15.7959 6 14.7959 7 13.2959 7C11.7959 7 10.7959 6 10.7959 6V1H15.2959Z" stroke="white" stroke-width="1.5"/>
<path d="M10.7959 1V6C10.7959 6 9.7959 7 8.2959 7C6.7959 7 5.7959 6 5.7959 6L6.2959 1H10.7959Z" stroke="white" stroke-width="1.5"/>
<path d="M6.29607 1H2.30507C2.16306 0.999947 2.02564 1.05026 1.91724 1.142C1.80885 1.23373 1.7365 1.36094 1.71307 1.501L1.00807 5.73C0.979067 5.902 1.02807 6.079 1.15807 6.195C1.48607 6.485 2.21907 7.001 3.29607 7.001C4.79607 7.001 5.79607 6.001 5.79607 6.001L6.29607 1.001V1Z" stroke="white" stroke-width="1.5"/>
</svg>
