<svg width="252" height="252" viewBox="0 0 252 252" fill="none" xmlns="http://www.w3.org/2000/svg">
<path d="M200.814 118.125H51.189C47.0156 118.137 43.0166 119.8 40.0655 122.752C37.1144 125.703 35.4512 129.702 35.439 133.875H216.564C216.551 129.702 214.887 125.704 211.936 122.753C208.985 119.802 204.987 118.138 200.814 118.125Z" fill="url(#paint0_linear_2916_24)"/>
<path d="M120.746 40.95H107.629V15.75H94.5V53.55H120.746V78.75H133.875V15.75H120.746V40.95Z" fill="url(#paint1_linear_2916_24)"/>
<path d="M73.5042 15.7501H47.25V28.3543H73.5042V40.9459H60.3708C57.0108 40.9459 53.6424 42.1765 51.0846 44.6377C49.8707 45.7844 48.9042 47.1674 48.2448 48.7016C47.5853 50.2357 47.2468 51.8886 47.25 53.5585V78.7501H86.625V66.1459H60.3708V53.5543H73.4958L73.5 53.5501C76.9534 53.5682 80.2792 52.2464 82.7778 49.8625C83.9904 48.715 84.9568 47.3327 85.6182 45.7998C86.2796 44.2669 86.6221 42.6154 86.625 40.9459V28.3543C86.6216 26.6855 86.2787 25.0349 85.6173 23.5028C84.956 21.9706 83.9899 20.589 82.7778 19.4419C80.2806 17.058 76.9566 15.7347 73.5042 15.7501Z" fill="url(#paint2_linear_2916_24)"/>
<path d="M248.065 236.25H232.315V133.875C232.315 116.504 218.186 102.375 200.815 102.375H129.94V94.5H153.565V23.625C153.565 10.6302 142.93 0 129.94 0H51.1896C38.1948 0 27.5646 10.6302 27.5646 23.625V94.5H51.1896V102.375C33.8184 102.375 19.6896 116.504 19.6896 133.875V236.25H3.9396C2.89543 236.252 1.89467 236.668 1.15633 237.406C0.417995 238.145 0.00221927 239.145 0 240.19V248.065C0.00332778 249.108 0.419593 250.108 1.15781 250.845C1.89603 251.583 2.89616 251.998 3.9396 252H248.065C249.107 251.997 250.106 251.581 250.844 250.844C251.581 250.106 251.997 249.107 252 248.065V240.19C251.998 239.146 251.583 238.146 250.845 237.408C250.108 236.67 249.108 236.253 248.065 236.25V236.25ZM35.4396 86.625V23.625C35.4452 19.4495 37.1063 15.4467 40.0588 12.4942C43.0113 9.54171 47.0141 7.88056 51.1896 7.875H129.94C134.115 7.88056 138.118 9.54171 141.07 12.4942C144.023 15.4467 145.684 19.4495 145.69 23.625V86.625H35.4396V86.625ZM66.9396 94.5H114.19V102.375H66.9396V94.5ZM27.5646 133.875C27.5646 120.88 38.1948 110.25 51.1896 110.25H200.815C213.809 110.25 224.44 120.88 224.44 133.875V236.25H157.5V224.435H216.565V177.185H157.5V165.371H216.565V149.621H35.4396V165.371H94.5V177.185H35.4396V224.435H94.5V236.25H27.5646V133.875V133.875ZM94.5 216.565H43.3146V185.065H94.5V216.565ZM122.065 236.25H102.375V173.25H122.065V236.25ZM149.625 236.25H129.935V173.25H149.625V236.25ZM157.5 216.565V185.065H208.69V216.565H157.5ZM94.5 248.065L96.4698 244.125H155.534L157.504 248.065H94.5Z" fill="url(#paint3_linear_2916_24)"/>
<defs>
<linearGradient id="paint0_linear_2916_24" x1="126.001" y1="118.125" x2="126.001" y2="133.875" gradientUnits="userSpaceOnUse">
<stop stop-color="#3C64EE"/>
<stop offset="1" stop-color="#FF5082" stop-opacity="0"/>
</linearGradient>
<linearGradient id="paint1_linear_2916_24" x1="114.188" y1="15.75" x2="114.188" y2="78.75" gradientUnits="userSpaceOnUse">
<stop stop-color="#3C64EE"/>
<stop offset="1" stop-color="#FF5082" stop-opacity="0"/>
</linearGradient>
<linearGradient id="paint2_linear_2916_24" x1="66.9375" y1="15.75" x2="66.9375" y2="78.7501" gradientUnits="userSpaceOnUse">
<stop stop-color="#3C64EE"/>
<stop offset="1" stop-color="#FF5082" stop-opacity="0"/>
</linearGradient>
<linearGradient id="paint3_linear_2916_24" x1="126" y1="0" x2="126" y2="252" gradientUnits="userSpaceOnUse">
<stop stop-color="#3C64EE"/>
<stop offset="1" stop-color="#FF5082" stop-opacity="0"/>
</linearGradient>
</defs>
</svg>
