<svg width="23" height="24" viewBox="0 0 23 24" fill="none" xmlns="http://www.w3.org/2000/svg">
<g clip-path="url(#clip0_1623_131)">
<path d="M22.1331 15.9639L20.7796 20.5068L18.1228 19.7854L22.1331 15.9639Z" fill="#E4761B" stroke="#E4761B" stroke-width="0.283454"/>
<path d="M18.1228 19.7853L20.6855 16.2988L22.1331 15.9629L18.1228 19.7853Z" fill="#E4761B" stroke="#E4761B" stroke-width="0.283454"/>
<path d="M20.1418 12.5382L22.1331 15.9635L20.6855 16.2993L20.1418 12.5382ZM20.1418 12.5382L21.4231 11.6572L22.1317 15.9635L20.1418 12.5382Z" fill="#F6851B" stroke="#F6851B" stroke-width="0.283454"/>
<path d="M18.5112 9.95089L22.1944 8.45312L22.0113 9.27372L18.5112 9.95089ZM21.8948 10.2593L18.5112 9.95089L22.0113 9.27344L21.8948 10.2593Z" fill="#763D16" stroke="#763D16" stroke-width="0.283454"/>
<path d="M21.8948 10.2593L21.4234 11.6579L18.5112 9.95089L21.8948 10.2593ZM22.6318 8.80007L22.0105 9.27372L22.1936 8.45312L22.6318 8.80007ZM21.8948 10.2593L22.0113 9.27372L22.5051 9.68133L21.8948 10.2593Z" fill="#763D16" stroke="#763D16" stroke-width="0.283454"/>
<path d="M15.2664 18.6787L16.187 18.9707L18.1227 19.7856L15.2664 18.6787Z" fill="#E2761B" stroke="#E2761B" stroke-width="0.283454"/>
<path d="M21.4234 11.6581L21.8948 10.2596L22.2998 10.568L21.4234 11.6581ZM21.4234 11.6581L17.6016 10.4081L18.5112 9.95117L21.4234 11.6581Z" fill="#763D16" stroke="#763D16" stroke-width="0.283454"/>
<path d="M19.4208 5.66113L18.5112 9.95092L17.6016 10.4078L19.4208 5.66113Z" fill="#763D16" stroke="#763D16" stroke-width="0.283454"/>
<path d="M22.1944 8.45315L18.5112 9.95092L19.4208 5.66113L22.1944 8.45315Z" fill="#763D16" stroke="#763D16" stroke-width="0.283454"/>
<path d="M19.4209 5.66119L23.2648 5.2207L22.1942 8.45207L19.4209 5.66119Z" fill="#763D16" stroke="#763D16" stroke-width="0.283454"/>
<path d="M21.4234 11.6573L20.1422 12.5382L17.6016 10.4072L21.4234 11.6573Z" fill="#F6851B" stroke="#F6851B" stroke-width="0.283454"/>
<path d="M23.0984 2.13086L23.2648 5.2205L19.4209 5.66071L23.0984 2.13086Z" fill="#763D16" stroke="#763D16" stroke-width="0.283454"/>
<path d="M23.0984 2.13086L15.4168 7.67606L15.3162 3.91492L23.0984 2.13086Z" fill="#E2761B" stroke="#E2761B" stroke-width="0.283454"/>
<path d="M9.60303 3.46387L15.3163 3.91541L15.4161 7.67656L9.60303 3.46387Z" fill="#F6851B" stroke="#F6851B" stroke-width="0.283454"/>
<path d="M17.6017 10.4078L15.4163 7.67649L19.4212 5.66113L17.6017 10.4078Z" fill="#763D16" stroke="#763D16" stroke-width="0.283454"/>
<path d="M17.6015 10.4072L20.1419 12.5382L16.5754 12.93L17.6015 10.4072Z" fill="#E4761B" stroke="#E4761B" stroke-width="0.283454"/>
<path d="M16.5756 12.929L15.4163 7.67578L17.6017 10.4071L16.5756 12.929Z" fill="#E4761B" stroke="#E4761B" stroke-width="0.283454"/>
<path d="M19.4209 5.66071L15.4163 7.67606L23.0979 2.13086L19.4209 5.66071Z" fill="#763D16" stroke="#763D16" stroke-width="0.283454"/>
<path d="M9.65303 19.6971L11.4671 21.5749L8.99854 19.3447L9.65303 19.6971Z" fill="#C0AD9E" stroke="#C0AD9E" stroke-width="0.283454"/>
<path d="M18.1228 19.7857L18.9825 16.5422L20.6855 16.2998L18.1228 19.7857Z" fill="#CD6116" stroke="#CD6116" stroke-width="0.283454"/>
<path d="M2.29785 10.6612L5.43738 7.38477L2.70291 10.2703L2.29785 10.6612Z" fill="#E2761B" stroke="#E2761B" stroke-width="0.283454"/>
<path d="M20.6861 16.2998L18.9831 16.5421L20.1424 12.5389L20.6861 16.2998ZM15.4167 7.67627L12.3605 7.57706L9.60303 3.46387L15.4167 7.67627Z" fill="#F6851B" stroke="#F6851B" stroke-width="0.283454"/>
<path d="M20.1421 12.5391L18.9828 16.5423L18.8884 14.5865L20.1421 12.5391Z" fill="#E4751F" stroke="#E4751F" stroke-width="0.283454"/>
<path d="M16.5754 12.9299L20.1421 12.5391L18.8887 14.5876L16.5754 12.9299Z" fill="#CD6116" stroke="#CD6116" stroke-width="0.283454"/>
<path d="M12.3596 7.57715L15.4158 7.67635L16.5751 12.9296L12.3596 7.57715Z" fill="#F6851B" stroke="#F6851B" stroke-width="0.283454"/>
<path d="M12.3597 7.57728L4.11175 0L9.6031 3.4638L12.3597 7.57728ZM9.59743 20.8483L2.43116 23.051L1 17.6269L9.59743 20.8483Z" fill="#E4761B" stroke="#E4761B" stroke-width="0.283454"/>
<path d="M3.36279 12.0154L6.06949 9.90625L8.33712 10.4295L3.36279 12.0154Z" fill="#763D16" stroke="#763D16" stroke-width="0.283454"/>
<path d="M8.33745 10.43L6.06982 9.90672L7.28471 4.92871L8.33745 10.43Z" fill="#763D16" stroke="#763D16" stroke-width="0.283454"/>
<path d="M2.70312 10.2696L6.06999 9.90625L3.36329 12.0154L2.70312 10.2696Z" fill="#763D16" stroke="#763D16" stroke-width="0.283454"/>
<path d="M18.8884 14.5873L17.4907 13.888L16.5754 12.9297L18.8884 14.5873Z" fill="#CD6116" stroke="#CD6116" stroke-width="0.283454"/>
<path d="M2.70274 10.2696L2.46436 9.01953L6.06989 9.90617L2.70274 10.2696Z" fill="#763D16" stroke="#763D16" stroke-width="0.283454"/>
<path d="M17.2021 15.4626L17.4907 13.8877L18.8884 14.587L17.2021 15.4626Z" fill="#233447" stroke="#233447" stroke-width="0.283454"/>
<path d="M18.9828 16.5427L17.2021 15.4625L18.8884 14.5869L18.9828 16.5427Z" fill="#F6851B" stroke="#F6851B" stroke-width="0.283454"/>
<path d="M6.06988 9.90672L2.46435 9.02008L2.17041 7.96847L6.06988 9.90672ZM7.28448 4.92871L6.0696 9.90672L2.17041 7.96847L7.28448 4.92871ZM7.28448 4.92871L12.3597 7.5773L8.33836 10.43L7.28448 4.92871Z" fill="#763D16" stroke="#763D16" stroke-width="0.283454"/>
<path d="M8.33838 10.4295L12.3597 7.57715L14.1514 13.0121L8.33838 10.4295ZM14.1514 13.0121L8.59349 12.8964L8.33838 10.4304L14.1514 13.0121Z" fill="#E4761B" stroke="#E4761B" stroke-width="0.283454"/>
<path d="M3.36279 12.0155L8.33826 10.4295L8.59336 12.8956L3.36279 12.0155ZM16.5751 12.9296L14.1513 13.0121L12.3596 7.57715L16.5751 12.9296Z" fill="#F6851B" stroke="#F6851B" stroke-width="0.283454"/>
<path d="M17.4907 13.8878L17.2022 15.4626L16.5754 12.9297L17.4907 13.8878Z" fill="#CD6116" stroke="#CD6116" stroke-width="0.283454"/>
<path d="M1 17.6271L7.95567 17.3408L9.59743 20.8486L1 17.6271Z" fill="#E4761B" stroke="#E4761B" stroke-width="0.283454"/>
<path d="M9.59733 20.8478L7.95557 17.3401L11.3723 17.1748L9.59733 20.8478Z" fill="#CD6116" stroke="#CD6116" stroke-width="0.283454"/>
<path d="M17.2022 15.4627L18.9829 16.5421L19.9648 18.8381L17.2022 15.4627ZM8.59372 12.8966L1 17.628L3.36287 12.0156L8.59372 12.8966ZM7.95595 17.3406L1 17.628L8.59344 12.8977L7.95595 17.3406ZM16.5758 12.9298L17.0293 14.5707L14.8328 14.6974L16.5758 12.9298ZM14.8325 14.6974L14.1523 13.0123L16.5761 12.9298L14.8325 14.6974Z" fill="#F6851B" stroke="#F6851B" stroke-width="0.283454"/>
<path d="M11.4668 21.5754L9.59741 20.8486L16.0981 21.9334L11.4668 21.5754Z" fill="#C0AD9E" stroke="#C0AD9E" stroke-width="0.283454"/>
<path d="M3.36279 12.015L2.29785 10.6604L2.70291 10.2695L3.36279 12.015Z" fill="#763D16" stroke="#763D16" stroke-width="0.283454"/>
<path d="M16.836 21.1295L16.099 21.9334L9.59741 20.8486L16.836 21.1295Z" fill="#D7C1B3" stroke="#D7C1B3" stroke-width="0.283454"/>
<path d="M17.1855 19.1573L9.59741 20.8478L11.3724 17.1748L17.1855 19.1573Z" fill="#E4761B" stroke="#E4761B" stroke-width="0.283454"/>
<path d="M9.59741 20.8487L17.1855 19.1582L16.836 21.1296L9.59741 20.8487Z" fill="#D7C1B3" stroke="#D7C1B3" stroke-width="0.283454"/>
<path d="M2.17038 7.96791L1.92065 3.7334L7.28445 4.92844L2.17038 7.96791ZM2.70299 10.2696L1.96601 9.52606L2.46517 9.01953L2.70299 10.2696Z" fill="#763D16" stroke="#763D16" stroke-width="0.283454"/>
<path d="M12.9089 14.1031L14.1513 13.0127L13.9739 15.6772L12.9089 14.1031Z" fill="#CD6116" stroke="#CD6116" stroke-width="0.283454"/>
<path d="M14.1514 13.0127L12.909 14.1031L11.1006 15.0337L14.1514 13.0127Z" fill="#CD6116" stroke="#CD6116" stroke-width="0.283454"/>
<path d="M19.9644 18.8385L19.626 18.5908L17.2021 15.4629L19.9644 18.8385Z" fill="#F6851B" stroke="#F6851B" stroke-width="0.283454"/>
<path d="M11.1007 15.0332L8.59351 12.8965L14.1515 13.0121L11.1007 15.0332Z" fill="#CD6116" stroke="#CD6116" stroke-width="0.283454"/>
<path d="M13.9739 15.6772L14.1513 13.0127L14.8336 14.6978L13.9739 15.6772Z" fill="#E4751F" stroke="#E4751F" stroke-width="0.283454"/>
<path d="M1.72119 8.38615L2.17047 7.96777L2.46441 9.01967L1.72119 8.38615Z" fill="#763D16" stroke="#763D16" stroke-width="0.283454"/>
<path d="M13.974 15.6774L11.1006 15.0331L12.9087 14.1025L13.974 15.6774Z" fill="#233447" stroke="#233447" stroke-width="0.283454"/>
<path d="M7.28445 4.92841L1.92065 3.73365L4.11175 0L7.28445 4.92841Z" fill="#763D16" stroke="#763D16" stroke-width="0.283454"/>
<path d="M16.0984 21.9332L16.4034 22.7592L11.4668 21.5752L16.0984 21.9332Z" fill="#C0AD9E" stroke="#C0AD9E" stroke-width="0.283454"/>
<path d="M11.3724 17.1753L11.1006 15.0332L13.974 15.6775L11.3724 17.1753Z" fill="#F6851B" stroke="#F6851B" stroke-width="0.283454"/>
<path d="M8.59351 12.8965L11.1007 15.0332L11.3725 17.1752L8.59351 12.8965Z" fill="#E4751F" stroke="#E4751F" stroke-width="0.283454"/>
<path d="M14.8337 14.6973L17.0302 14.5706L19.6261 18.5905L14.8337 14.6973ZM8.5935 12.8965L11.3713 17.1752L7.95459 17.3405L8.5935 12.8965Z" fill="#F6851B" stroke="#F6851B" stroke-width="0.283454"/>
<path d="M14.8336 14.6973L17.5627 18.8218L13.9739 15.6775L14.8336 14.6973Z" fill="#E4751F" stroke="#E4751F" stroke-width="0.283454"/>
<path d="M13.9739 15.6777L17.5627 18.8221L17.1854 19.158L13.9739 15.6777Z" fill="#F6851B" stroke="#F6851B" stroke-width="0.283454"/>
<path d="M17.1854 19.1577L11.3723 17.1752L13.9739 15.6775L17.1854 19.1577ZM19.6259 18.5908L17.5624 18.8221L14.8336 14.6973L19.6259 18.5908Z" fill="#F6851B" stroke="#F6851B" stroke-width="0.283454"/>
<path d="M20.1696 20.5283L19.2821 22.2959L16.4034 22.7585L20.1696 20.5283ZM16.4034 22.7585L16.0984 21.9326L16.8354 21.1287L16.4034 22.7585Z" fill="#C0AD9E" stroke="#C0AD9E" stroke-width="0.283454"/>
<path d="M16.8361 21.1287L17.3798 20.9138L16.4036 22.7585L16.8361 21.1287ZM16.4036 22.7585L17.3798 20.9138L20.1698 20.5283L16.4036 22.7585Z" fill="#C0AD9E" stroke="#C0AD9E" stroke-width="0.283454"/>
<path d="M19.6262 18.5908L20.3085 19.0038L18.2339 19.2515L19.6262 18.5908Z" fill="#161616" stroke="#161616" stroke-width="0.283454"/>
<path d="M18.234 19.2515L17.5627 18.8221L19.6263 18.5908L18.234 19.2515ZM17.9956 19.5764L20.5183 19.2737L20.1688 20.5291L17.9956 19.5764Z" fill="#161616" stroke="#161616" stroke-width="0.283454"/>
<path d="M20.1696 20.5291L17.3796 20.9146L17.9953 19.5764L20.1696 20.5291ZM17.3796 20.9146L16.8359 21.1295L17.1854 19.158L17.3796 20.9146ZM17.1854 19.1572L17.5627 18.8213L18.2339 19.2507L17.1854 19.1572ZM20.3082 19.003L20.5191 19.2728L17.9964 19.5758L20.3082 19.003Z" fill="#161616" stroke="#161616" stroke-width="0.283454"/>
<path d="M17.9954 19.5765L18.2338 19.2516L20.3084 19.0039L17.9954 19.5765ZM17.1855 19.1581L17.9954 19.5765L17.3797 20.9147L17.1855 19.1581Z" fill="#161616" stroke="#161616" stroke-width="0.283454"/>
<path d="M18.2343 19.2517L17.9959 19.5766L17.1855 19.1582L18.2343 19.2517Z" fill="#161616" stroke="#161616" stroke-width="0.283454"/>
</g>
<defs>
<clipPath id="clip0_1623_131">
<rect width="23" height="23.5003" fill="white"/>
</clipPath>
</defs>
</svg>
