<svg width="21" height="21" viewBox="0 0 21 21" fill="none" xmlns="http://www.w3.org/2000/svg">
<path d="M8.16667 0H1.16667C0.857247 0 0.560501 0.122916 0.341709 0.341709C0.122916 0.560501 0 0.857247 0 1.16667V8.16667C0 8.47608 0.122916 8.77283 0.341709 8.99162C0.560501 9.21042 0.857247 9.33333 1.16667 9.33333H8.16667C8.47608 9.33333 8.77283 9.21042 8.99162 8.99162C9.21042 8.77283 9.33333 8.47608 9.33333 8.16667V1.16667C9.33333 0.857247 9.21042 0.560501 8.99162 0.341709C8.77283 0.122916 8.47608 0 8.16667 0ZM7 7H2.33333V2.33333H7V7ZM19.8333 0H12.8333C12.5239 0 12.2272 0.122916 12.0084 0.341709C11.7896 0.560501 11.6667 0.857247 11.6667 1.16667V8.16667C11.6667 8.47608 11.7896 8.77283 12.0084 8.99162C12.2272 9.21042 12.5239 9.33333 12.8333 9.33333H19.8333C20.1428 9.33333 20.4395 9.21042 20.6583 8.99162C20.8771 8.77283 21 8.47608 21 8.16667V1.16667C21 0.857247 20.8771 0.560501 20.6583 0.341709C20.4395 0.122916 20.1428 0 19.8333 0ZM18.6667 7H14V2.33333H18.6667V7ZM8.16667 11.6667H1.16667C0.857247 11.6667 0.560501 11.7896 0.341709 12.0084C0.122916 12.2272 0 12.5239 0 12.8333V19.8333C0 20.1428 0.122916 20.4395 0.341709 20.6583C0.560501 20.8771 0.857247 21 1.16667 21H8.16667C8.47608 21 8.77283 20.8771 8.99162 20.6583C9.21042 20.4395 9.33333 20.1428 9.33333 19.8333V12.8333C9.33333 12.5239 9.21042 12.2272 8.99162 12.0084C8.77283 11.7896 8.47608 11.6667 8.16667 11.6667ZM7 18.6667H2.33333V14H7V18.6667ZM16.3333 11.6667C13.7597 11.6667 11.6667 13.7597 11.6667 16.3333C11.6667 18.907 13.7597 21 16.3333 21C18.907 21 21 18.907 21 16.3333C21 13.7597 18.907 11.6667 16.3333 11.6667ZM16.3333 18.6667C15.0465 18.6667 14 17.6202 14 16.3333C14 15.0465 15.0465 14 16.3333 14C17.6202 14 18.6667 15.0465 18.6667 16.3333C18.6667 17.6202 17.6202 18.6667 16.3333 18.6667Z" fill="white"/>
</svg>
