<svg width="28" height="28" viewBox="0 0 28 28" fill="none" xmlns="http://www.w3.org/2000/svg">
<path d="M13.625 0C6.11238 0 0 6.11238 0 13.625C0 21.1376 6.11238 27.25 13.625 27.25C21.1376 27.25 27.25 21.1376 27.25 13.625C27.25 6.11238 21.1376 0 13.625 0ZM13.625 2.09615C20.0046 2.09615 25.1538 7.24536 25.1538 13.625C25.1538 20.0046 20.0046 25.1538 13.625 25.1538C7.24536 25.1538 2.09615 20.0046 2.09615 13.625C2.09615 7.24536 7.24536 2.09615 13.625 2.09615ZM9.66327 8.15404L8.15404 9.66327L12.12 13.625L8.15613 17.5867L9.66537 19.096L13.625 15.1311L17.5867 19.0928L19.096 17.5867L15.1311 13.625L19.0928 9.66327L17.5867 8.15404L13.625 12.12L9.66327 8.15613V8.15404Z" fill="white"/>
</svg>
