<svg width="21" height="24" viewBox="0 0 21 24" fill="none" xmlns="http://www.w3.org/2000/svg">
<path d="M21 23.0106C21 23.1884 20.9294 23.3589 20.8037 23.4846C20.678 23.6102 20.5075 23.6809 20.3298 23.6809H0.670213C0.492461 23.6809 0.32199 23.6102 0.196301 23.4846C0.0706114 23.3589 0 23.1884 0 23.0106C0 22.8329 0.0706114 22.6624 0.196301 22.5367C0.32199 22.411 0.492461 22.3404 0.670213 22.3404H20.3298C20.5075 22.3404 20.678 22.411 20.8037 22.5367C20.9294 22.6624 21 22.8329 21 23.0106ZM21 14.0745V18.5426C21 18.9573 20.8352 19.3551 20.542 19.6483C20.2487 19.9416 19.8509 20.1064 19.4362 20.1064H1.56383C1.14908 20.1064 0.75131 19.9416 0.458035 19.6483C0.16476 19.3551 0 18.9573 0 18.5426V14.0745C0 13.6597 0.16476 13.2619 0.458035 12.9687C0.75131 12.6754 1.14908 12.5106 1.56383 12.5106H7.88617L6.0766 4.05479C5.96593 3.56556 5.96879 3.05749 6.08497 2.56955C6.20114 2.0816 6.42755 1.62675 6.74681 1.23989C7.06102 0.852569 7.45773 0.540264 7.90799 0.325761C8.35825 0.111257 8.85072 -3.56678e-05 9.34947 8.57469e-09H11.6505C12.1493 -3.56678e-05 12.6417 0.111257 13.092 0.325761C13.5423 0.540264 13.939 0.852569 14.2532 1.23989C14.5725 1.62675 14.7989 2.0816 14.915 2.56955C15.0312 3.05749 15.0341 3.56556 14.9234 4.05479L13.1138 12.5106H19.4362C19.8509 12.5106 20.2487 12.6754 20.542 12.9687C20.8352 13.2619 21 13.6597 21 14.0745ZM9.26011 12.5106H11.7399L13.6165 3.77553C13.6798 3.48217 13.6767 3.17834 13.6074 2.88633C13.538 2.59433 13.4041 2.32156 13.2156 2.08804C13.0271 1.85452 12.7886 1.66616 12.5178 1.53679C12.247 1.40743 11.9507 1.34033 11.6505 1.34043H9.34947C9.04934 1.34033 8.75299 1.40743 8.48218 1.53679C8.21136 1.66616 7.97294 1.85452 7.7844 2.08804C7.59587 2.32156 7.46201 2.59433 7.39264 2.88633C7.32327 3.17834 7.32015 3.48217 7.38351 3.77553L9.26011 12.5106ZM19.6596 14.0745C19.6596 14.0152 19.636 13.9584 19.5941 13.9165C19.5522 13.8746 19.4954 13.8511 19.4362 13.8511H1.56383C1.50458 13.8511 1.44776 13.8746 1.40586 13.9165C1.36396 13.9584 1.34043 14.0152 1.34043 14.0745V18.5426C1.34043 18.6018 1.36396 18.6586 1.40586 18.7005C1.44776 18.7424 1.50458 18.766 1.56383 18.766H19.4362C19.4954 18.766 19.5522 18.7424 19.5941 18.7005C19.636 18.6586 19.6596 18.6018 19.6596 18.5426V14.0745Z" fill="white"/>
</svg>
