<svg width="19" height="20" viewBox="0 0 19 20" fill="none" xmlns="http://www.w3.org/2000/svg">
<path d="M5.73958 1.78125H5.54167C5.65052 1.78125 5.73958 1.69219 5.73958 1.58333V1.78125H13.2604V1.58333C13.2604 1.69219 13.3495 1.78125 13.4583 1.78125H13.2604V3.5625H15.0417V1.58333C15.0417 0.710026 14.3316 0 13.4583 0H5.54167C4.66836 0 3.95833 0.710026 3.95833 1.58333V3.5625H5.73958V1.78125ZM18.2083 3.5625H0.791667C0.353776 3.5625 0 3.91628 0 4.35417V5.14583C0 5.25469 0.0890625 5.34375 0.197917 5.34375H1.69219L2.30326 18.2826C2.34284 19.1262 3.04049 19.7917 3.88411 19.7917H15.1159C15.962 19.7917 16.6572 19.1286 16.6967 18.2826L17.3078 5.34375H18.8021C18.9109 5.34375 19 5.25469 19 5.14583V4.35417C19 3.91628 18.6462 3.5625 18.2083 3.5625ZM14.9254 18.0104H4.07461L3.47591 5.34375H15.5241L14.9254 18.0104Z" fill="white"/>
</svg>
