<svg width="101" height="90" viewBox="0 0 101 90" fill="none" xmlns="http://www.w3.org/2000/svg">
<path d="M39.9997 55H59.9997V25H74.9997L49.9997 0L24.9997 25H39.9997V55ZM96.6897 62.66C95.6397 61.54 88.6347 54.045 86.6347 52.09C85.2332 50.7465 83.3661 49.9975 81.4247 50H72.6397L87.9597 64.97H70.2397C69.9988 64.9656 69.7611 65.0247 69.5504 65.1415C69.3397 65.2582 69.1636 65.4285 69.0397 65.635L64.9597 75H35.0397L30.9597 65.635C30.835 65.4291 30.6587 65.2595 30.4482 65.1428C30.2377 65.0262 30.0003 64.9666 29.7597 64.97H12.0397L27.3547 50H18.5747C16.5897 50 14.6947 50.795 13.3647 52.09C11.3647 54.05 4.35966 61.545 3.30966 62.66C0.864661 65.265 -0.480339 67.34 0.159661 69.905L2.96466 85.275C3.60466 87.845 6.41966 89.955 9.22466 89.955H90.7847C93.5897 89.955 96.4047 87.845 97.0447 85.275L99.8497 69.905C100.48 67.34 99.1397 65.265 96.6897 62.66Z" fill="#C4C4C4"/>
</svg>
