<svg width="220" height="220" viewBox="0 0 220 220" fill="none" xmlns="http://www.w3.org/2000/svg">
<path fill-rule="evenodd" clip-rule="evenodd" d="M0 110C0 80.8262 11.5893 52.8473 32.2183 32.2183C52.8473 11.5893 80.8262 0 110 0C139.174 0 167.153 11.5893 187.782 32.2183C208.411 52.8473 220 80.8262 220 110C220 139.174 208.411 167.153 187.782 187.782C167.153 208.411 139.174 220 110 220C80.8262 220 52.8473 208.411 32.2183 187.782C11.5893 167.153 0 139.174 0 110ZM110 15.7783C91.7372 15.779 73.8683 21.0871 58.5669 31.0568C43.2655 41.0266 31.1913 55.2284 23.8132 71.9344C16.435 88.6404 14.0709 107.131 17.0085 125.156C19.946 143.18 28.0586 159.963 40.3594 173.462C47.8271 161.765 58.1227 152.14 70.2948 145.474C82.4668 138.809 96.1226 135.32 110 135.328C139.265 135.328 164.975 150.542 179.641 173.462C191.941 159.963 200.054 143.18 202.992 125.156C205.929 107.131 203.565 88.6404 196.187 71.9344C188.809 55.2284 176.734 41.0266 161.433 31.0568C146.132 21.0871 128.263 15.779 110 15.7783ZM167.832 184.391C161.954 174.261 153.518 165.855 143.368 160.013C133.218 154.171 121.711 151.1 110 151.107C98.289 151.1 86.7819 154.171 76.6319 160.013C66.4819 165.855 58.0455 174.261 52.1682 184.391C68.69 197.274 89.0491 204.255 110 204.222C131.791 204.222 151.854 196.814 167.832 184.391ZM70.9694 93.4743C70.9694 83.1227 75.0815 73.1951 82.4012 65.8754C89.7208 58.5558 99.6484 54.4436 110 54.4436C120.352 54.4436 130.279 58.5558 137.599 65.8754C144.919 73.1951 149.031 83.1227 149.031 93.4743C149.031 103.826 144.919 113.753 137.599 121.073C130.279 128.393 120.352 132.505 110 132.505C99.6484 132.505 89.7208 128.393 82.4012 121.073C75.0815 113.753 70.9694 103.826 70.9694 93.4743ZM110 70.222C106.946 70.222 103.923 70.8234 101.102 71.9919C98.2806 73.1605 95.7173 74.8732 93.5581 77.0324C91.399 79.1916 89.6862 81.7549 88.5177 84.576C87.3491 87.3971 86.7477 90.4207 86.7477 93.4743C86.7477 96.5278 87.3491 99.5514 88.5177 102.373C89.6862 105.194 91.399 107.757 93.5581 109.916C95.7173 112.075 98.2806 113.788 101.102 114.957C103.923 116.125 106.946 116.727 110 116.727C116.167 116.727 122.081 114.277 126.442 109.916C130.803 105.555 133.252 99.6412 133.252 93.4743C133.252 87.3074 130.803 81.3931 126.442 77.0324C122.081 72.6717 116.167 70.222 110 70.222Z" fill="url(#paint0_linear_2818_947)"/>
<defs>
<linearGradient id="paint0_linear_2818_947" x1="110" y1="0" x2="110" y2="220" gradientUnits="userSpaceOnUse">
<stop stop-color="#3C64EE"/>
<stop offset="1" stop-color="#FF5082" stop-opacity="0"/>
</linearGradient>
</defs>
</svg>
