<svg width="15" height="11" viewBox="0 0 15 11" fill="none" xmlns="http://www.w3.org/2000/svg">
<path d="M13.4117 3.14655L10.2659 6.29233L9.31267 5.3464L8.27875 6.38766L10.2586 8.36752L14.453 4.18781L13.4117 3.14655ZM1.46656 2.9339C1.45753 3.32156 1.52723 3.70701 1.67143 4.06696C1.81564 4.4269 2.03136 4.75386 2.30555 5.02804C2.57973 5.30223 2.90669 5.51795 3.26663 5.66216C3.62658 5.80636 4.01204 5.87606 4.39969 5.86703C4.78734 5.87606 5.1728 5.80636 5.53274 5.66216C5.89269 5.51795 6.21964 5.30223 6.49383 5.02804C6.76802 4.75386 6.98374 4.4269 7.12794 4.06696C7.27215 3.70701 7.34185 3.32156 7.33281 2.9339C7.34185 2.54625 7.27215 2.16079 7.12794 1.80085C6.98374 1.4409 6.76802 1.11395 6.49383 0.839763C6.21964 0.565577 5.89269 0.349856 5.53274 0.20565C5.1728 0.0614432 4.78734 -0.00825285 4.39969 0.000777703C4.01204 -0.00825285 3.62658 0.0614432 3.26663 0.20565C2.90669 0.349856 2.57973 0.565577 2.30555 0.839763C2.03136 1.11395 1.81564 1.4409 1.67143 1.80085C1.52723 2.16079 1.45753 2.54625 1.46656 2.9339ZM5.86625 2.9339C5.87568 3.12899 5.84421 3.3239 5.77384 3.5061C5.70348 3.6883 5.59578 3.85377 5.45767 3.99188C5.31956 4.12999 5.15409 4.23769 4.97189 4.30805C4.78968 4.37842 4.59478 4.4099 4.39969 4.40047C4.2046 4.4099 4.00969 4.37842 3.82749 4.30805C3.64529 4.23769 3.47982 4.12999 3.34171 3.99188C3.2036 3.85377 3.0959 3.6883 3.02554 3.5061C2.95517 3.3239 2.92369 3.12899 2.93313 2.9339C2.92369 2.73881 2.95517 2.54391 3.02554 2.36171C3.0959 2.1795 3.2036 2.01403 3.34171 1.87592C3.47982 1.73781 3.64529 1.63012 3.82749 1.55975C4.00969 1.48939 4.2046 1.45791 4.39969 1.46734C4.59478 1.45791 4.78968 1.48939 4.97189 1.55975C5.15409 1.63012 5.31956 1.73781 5.45767 1.87592C5.59578 2.01403 5.70348 2.1795 5.77384 2.36171C5.84421 2.54391 5.87568 2.73881 5.86625 2.9339ZM1.46656 10.2667C1.46656 9.68328 1.69833 9.12374 2.11088 8.71119C2.52343 8.29864 3.08297 8.06687 3.66641 8.06687H5.13297C5.71641 8.06687 6.27594 8.29864 6.6885 8.71119C7.10105 9.12374 7.33281 9.68328 7.33281 10.2667V11H8.79938V10.2667C8.79938 9.78524 8.70454 9.30847 8.52029 8.86364C8.33603 8.41882 8.06597 8.01463 7.72551 7.67418C7.38505 7.33372 6.98087 7.06365 6.53604 6.8794C6.09121 6.69515 5.61445 6.60031 5.13297 6.60031H3.66641C2.69402 6.60031 1.76145 6.98659 1.07387 7.67418C0.386281 8.36176 0 9.29433 0 10.2667V11H1.46656V10.2667Z" fill="black"/>
</svg>
