<svg xmlns="http://www.w3.org/2000/svg" xmlns:xlink="http://www.w3.org/1999/xlink" aria-hidden="true" role="img" id="footer-sample-full" width="1em" height="1em" preserveAspectRatio="xMidYMid meet" viewBox="0 0 36 36" class="iconify iconify--clarity"><path d="M18 17a7 7 0 1 0-7-7a7 7 0 0 0 7 7zm0-12a5 5 0 1 1-5 5a5 5 0 0 1 5-5z" class="clr-i-outline clr-i-outline-path-1" fill="white"></path><path d="M30.47 24.37a17.16 17.16 0 0 0-24.93 0A2 2 0 0 0 5 25.74V31a2 2 0 0 0 2 2h22a2 2 0 0 0 2-2v-5.26a2 2 0 0 0-.53-1.37zM29 31H7v-5.27a15.17 15.17 0 0 1 22 0z" class="clr-i-outline clr-i-outline-path-2" fill="white"></path></svg>