<svg width="25" height="25" viewBox="0 0 25 25" fill="none" xmlns="http://www.w3.org/2000/svg">
<path d="M0 12.5C0 5.59644 5.59644 0 12.5 0C19.4036 0 25 5.59644 25 12.5C25 19.4036 19.4036 25 12.5 25C5.59644 25 0 19.4036 0 12.5Z" fill="url(#paint0_radial_1623_126)"/>
<path d="M16.7379 9.01063C14.3974 6.71911 10.6028 6.71911 8.26228 9.01063L7.9806 9.28642C7.86358 9.401 7.86358 9.58676 7.9806 9.70134L8.94417 10.6448C9.00268 10.702 9.09755 10.702 9.15606 10.6448L9.54369 10.2652C11.1765 8.66662 13.8237 8.66662 15.4565 10.2652L15.8716 10.6717C15.9301 10.729 16.025 10.729 16.0835 10.6717L17.0471 9.72825C17.1641 9.61368 17.1641 9.42791 17.0471 9.31334L16.7379 9.01063ZM6.26952 10.9617L5.41194 11.8014C5.29492 11.9159 5.29492 12.1017 5.41194 12.2163L9.27883 16.0024C9.39586 16.1169 9.58559 16.1169 9.70261 16.0024C9.70261 16.0024 9.70261 16.0024 9.70261 16.0024L12.4471 13.3153C12.4764 13.2866 12.5238 13.2866 12.553 13.3153C12.553 13.3153 12.553 13.3153 12.553 13.3153L15.2975 16.0024C15.4145 16.1169 15.6042 16.1169 15.7213 16.0024C15.7213 16.0024 15.7213 16.0024 15.7213 16.0024L19.5883 12.2162C19.7053 12.1017 19.7053 11.9159 19.5883 11.8013L18.7307 10.9617C18.6137 10.8471 18.4239 10.8471 18.3069 10.9617L15.5624 13.6488C15.5331 13.6774 15.4857 13.6774 15.4564 13.6488C15.4564 13.6488 15.4564 13.6488 15.4564 13.6488L12.712 10.9617C12.595 10.8471 12.4053 10.8471 12.2883 10.9617C12.2883 10.9617 12.2882 10.9617 12.2882 10.9617L9.54373 13.6488C9.51447 13.6774 9.46704 13.6774 9.43778 13.6488L6.6933 10.9617C6.57628 10.8471 6.38655 10.8471 6.26952 10.9617Z" fill="white"/>
<defs>
<radialGradient id="paint0_radial_1623_126" cx="0" cy="0" r="1" gradientUnits="userSpaceOnUse" gradientTransform="translate(25 12.5) rotate(180) scale(25)">
<stop stop-color="#5D9DF6"/>
<stop offset="1" stop-color="#006FFF"/>
</radialGradient>
</defs>
</svg>
