<svg width="28" height="27" viewBox="0 0 28 27" fill="none" xmlns="http://www.w3.org/2000/svg">
<g filter="url(#filter0_d_6294_119)">
<circle cx="13.6379" cy="11.6379" r="11.6379" fill="black"/>
</g>
<path d="M16.7968 16.5911C16.8116 16.238 16.7888 15.8844 16.7288 15.5361C16.7288 15.5361 16.7288 15.5361 16.7288 15.5354C16.7168 15.4052 16.7035 15.3027 16.6983 15.2439C16.6729 15.1226 16.6407 15.0028 16.6021 14.885C16.5773 14.8103 16.5477 14.7313 16.5137 14.6536C16.4802 14.5767 16.4424 14.5017 16.4005 14.4291C16.3195 14.2878 16.2266 14.1735 16.1614 14.1109C16.0963 14.0483 16.0631 14.0334 16.0904 14.0877C16.0447 14.0333 15.9953 13.9821 15.9426 13.9344L15.9015 13.8983L15.8586 13.8642C15.8442 13.8527 15.8283 13.8415 15.8123 13.8313C15.8042 13.8261 15.796 13.8217 15.7882 13.8167C15.7804 13.8118 15.7732 13.8086 15.7656 13.8047C15.6934 13.7679 15.6128 13.7506 15.5319 13.7546C15.5081 13.756 15.4845 13.7594 15.4613 13.765L15.4592 13.7656H15.4583V13.7645L15.4601 13.7599L15.4637 13.7508L15.4708 13.7325C15.4757 13.7205 15.4803 13.7084 15.4852 13.6964L15.5416 13.552C15.567 13.4871 15.5925 13.4218 15.6182 13.356C15.6468 13.2822 15.6755 13.208 15.7043 13.1334C15.7628 12.9829 15.8216 12.831 15.8819 12.6795C15.9422 12.528 16.0034 12.376 16.0668 12.2254L16.115 12.113C16.1311 12.0755 16.1482 12.0388 16.1647 12.0016C16.1812 11.9645 16.1986 11.9282 16.2161 11.892L16.2423 11.8377L16.2702 11.7857L16.2841 11.7597C16.2887 11.7512 16.2933 11.7424 16.2986 11.7334L16.3297 11.6796C16.3499 11.6437 16.37 11.6076 16.3899 11.5713C16.4291 11.499 16.4669 11.4255 16.5026 11.3517C16.5749 11.2045 16.64 11.055 16.6996 10.9053C16.8146 10.6131 16.9094 10.3133 16.9832 10.0081C16.9889 9.96956 16.9953 9.93189 17.0002 9.89458C17.0051 9.85726 17.0098 9.82056 17.0146 9.78445C17.0222 9.71224 17.0309 9.64207 17.0358 9.57407C17.0479 9.43819 17.0529 9.31061 17.0569 9.19073C17.0569 9.13056 17.0585 9.07266 17.0586 9.01634C17.0587 8.96001 17.0574 8.90549 17.0559 8.85253C17.0545 8.79958 17.0518 8.74818 17.0499 8.69824C17.048 8.64829 17.0436 8.59991 17.0408 8.55273C17.0379 8.50555 17.0327 8.45981 17.0287 8.41504C17.0248 8.37027 17.0202 8.32682 17.0154 8.28433C17.0131 8.26303 17.0107 8.24197 17.0084 8.22127C17.0073 8.21079 17.0061 8.20044 17.005 8.19021C17.0039 8.17998 17.0021 8.16975 17.0008 8.15952C16.9951 8.11896 16.9897 8.07912 16.9843 8.03989L16.9194 7.60372C16.8974 7.46278 16.876 7.32257 16.8487 7.17441C16.8352 7.10027 16.8217 7.02396 16.8053 6.94477C16.789 6.86557 16.7716 6.78289 16.7526 6.69599C16.7336 6.6091 16.7107 6.51811 16.6869 6.42146C16.6749 6.37332 16.662 6.32361 16.6482 6.27258C16.6343 6.22155 16.6198 6.16895 16.6048 6.11479C16.5899 6.06063 16.5733 6.00479 16.556 5.94738L16.5018 5.76949C16.4818 5.70859 16.4611 5.64569 16.4397 5.58077L16.4067 5.48196L16.3706 5.38038C16.3527 5.31617 16.339 5.25083 16.3297 5.1848C16.3259 5.15687 16.3255 5.12857 16.3286 5.10055C16.3319 5.07229 16.3314 5.04374 16.3274 5.01558C16.3178 4.949 16.3024 4.88336 16.2816 4.8194C16.2595 4.75032 16.2375 4.68256 16.2145 4.61624C16.1915 4.54992 16.1664 4.48565 16.1412 4.42235C16.1161 4.35904 16.0897 4.29754 16.0635 4.23712L16.0234 4.14757C16.0167 4.13289 16.0103 4.11809 16.0032 4.10352L15.9814 4.05983C15.9529 4.00254 15.9244 3.94638 15.8959 3.89134C15.8821 3.86377 15.8664 3.83705 15.8514 3.81046L15.8063 3.73138C15.7761 3.67927 15.7468 3.628 15.7144 3.57901L15.6677 3.5062L15.6557 3.48814L15.6498 3.47912L15.6484 3.47683L15.6462 3.47346L15.642 3.46648L15.6076 3.41136L15.5901 3.38367C15.5875 3.37898 15.5844 3.37454 15.581 3.37043L15.568 3.3602L15.5165 3.32013C15.4996 3.30677 15.4825 3.29401 15.4651 3.28209C15.4513 3.27307 15.4389 3.26416 15.4249 3.25561C15.3687 3.22008 15.3097 3.18939 15.2483 3.1639C15.18 3.13506 15.1077 3.11695 15.0339 3.11022L15.003 3.10902C14.9927 3.10848 14.9823 3.10848 14.972 3.10902C14.9502 3.10969 14.9286 3.11194 14.9072 3.11576C14.8963 3.11769 14.8853 3.11985 14.8746 3.12214C14.8639 3.12443 14.8524 3.12852 14.8416 3.13213C14.8198 3.13927 14.7986 3.14821 14.7782 3.15885C14.7384 3.18024 14.7026 3.20815 14.672 3.24141C14.6576 3.25663 14.6445 3.27297 14.6327 3.29028C14.6265 3.29858 14.6222 3.30713 14.617 3.31555C14.6119 3.32398 14.607 3.33264 14.6032 3.34107C14.5741 3.4022 14.5569 3.46834 14.5525 3.53592C14.5462 3.64614 14.5615 3.75652 14.5975 3.86089L14.6055 3.89699L14.6149 3.9331L14.632 3.99677C14.6347 4.00712 14.6375 4.01747 14.6404 4.02794C14.6433 4.03841 14.6453 4.04912 14.6477 4.05971C14.6527 4.08102 14.6576 4.10232 14.6624 4.12386C14.6801 4.21028 14.6942 4.29922 14.7042 4.38865C14.7142 4.47807 14.7189 4.56689 14.7197 4.65343C14.7205 4.73997 14.718 4.82422 14.7105 4.90293C14.7011 5.03599 14.6766 5.16757 14.6377 5.29517L14.6257 5.32995C14.6218 5.34126 14.6175 5.35294 14.6137 5.36341C14.6056 5.38447 14.5979 5.40301 14.5904 5.41865C14.5754 5.45019 14.5621 5.46956 14.55 5.47558C14.5485 5.43948 14.5567 5.38074 14.5686 5.3137C14.579 5.2522 14.5921 5.18071 14.6013 5.10693C14.6214 4.95962 14.6271 4.80484 14.6179 4.72107C14.607 4.70073 14.5971 4.68352 14.5878 4.6692C14.5798 4.65691 14.5709 4.64528 14.5611 4.63441C14.5448 4.61672 14.5315 4.60938 14.521 4.61034C14.4993 4.61371 14.4904 4.65235 14.4849 4.71866C14.4793 4.78498 14.4801 4.87813 14.4744 4.99103C14.4727 5.01907 14.4709 5.04844 14.469 5.07889C14.4671 5.10934 14.4647 5.14075 14.4607 5.17253C14.4589 5.18853 14.4572 5.2049 14.4554 5.22139C14.4536 5.23788 14.4508 5.25413 14.4485 5.27086C14.4462 5.28759 14.4429 5.30841 14.4397 5.32827C14.4366 5.34812 14.4331 5.36919 14.4298 5.39001C14.4046 5.55345 14.3797 5.72773 14.3532 5.90586C14.3267 6.08398 14.2989 6.265 14.269 6.43975C14.2088 6.78951 14.1407 7.11375 14.0588 7.33653C14.0487 7.42655 14.1123 7.26636 14.0651 7.4824C14.1679 7.03965 14.2718 6.59726 14.3769 6.15523C14.4281 6.20422 14.3453 6.71272 14.2478 7.27286C14.2019 7.53524 14.1531 7.80893 14.1125 8.0518C14.0403 8.36726 13.9712 8.66839 13.9133 8.92812C13.8883 8.92258 13.885 8.81691 13.8764 8.74614C13.8687 8.68331 13.8567 8.64805 13.8214 8.73543C13.7931 8.81237 13.7689 8.8908 13.7491 8.97036C13.7335 9.02897 13.7159 9.09818 13.6961 9.17954C13.695 9.18363 13.694 9.18797 13.6929 9.1923C13.6941 9.06111 13.6911 8.92559 13.685 8.78838C13.6784 8.67441 13.6724 8.5585 13.6619 8.44368L13.6548 8.35727C13.6524 8.32838 13.6506 8.30022 13.6471 8.26989C13.6406 8.21043 13.635 8.15062 13.6267 8.09248C13.5961 7.85851 13.5533 7.63513 13.5128 7.42836C13.478 7.25095 13.4446 7.08583 13.4198 6.93743C13.3946 6.87304 13.3667 6.80648 13.3382 6.73607C13.3078 6.66265 13.2757 6.58514 13.242 6.50354C13.107 6.1781 12.9477 5.7855 12.7732 5.28289C12.7002 5.02401 12.7994 5.23475 12.8442 5.31069C12.7891 5.17429 12.7323 5.03664 12.6735 4.89775C12.6442 4.82827 12.6142 4.7585 12.5836 4.68845C12.5682 4.65347 12.5528 4.61833 12.5373 4.58302L12.5132 4.52994L12.4903 4.47891C12.4777 4.44874 12.4649 4.41845 12.4521 4.38804L12.4119 4.29549C12.3847 4.23395 12.3566 4.17249 12.3276 4.11111C12.2987 4.04972 12.2692 3.9885 12.2392 3.92744L12.216 3.88159L12.192 3.83501L12.1654 3.78157L12.1366 3.72741C12.0638 3.5881 11.9802 3.4547 11.8866 3.32843C11.8435 3.27197 11.7966 3.21849 11.7463 3.16836C11.698 3.11904 11.6425 3.07733 11.5818 3.04463C11.5667 3.03621 11.5506 3.02959 11.5347 3.02261L11.51 3.01394C11.5019 3.01093 11.4931 3.00937 11.4846 3.00696C11.4495 2.99793 11.4127 2.99768 11.3774 3.00624C11.3415 3.01604 11.3092 3.03592 11.2843 3.06353C11.2598 3.09069 11.2401 3.12183 11.226 3.1556C11.1984 3.2234 11.1827 3.29548 11.1797 3.36863C11.1775 3.40559 11.1777 3.44266 11.1804 3.4796C11.1829 3.51667 11.1888 3.55362 11.1946 3.59093C11.2064 3.66579 11.2191 3.74201 11.2329 3.8196C11.2397 3.85812 11.2459 3.89675 11.2521 3.93502C11.2584 3.9733 11.2633 4.01157 11.2688 4.04948C11.2744 4.0874 11.2775 4.1217 11.2818 4.15877C11.2862 4.19584 11.2883 4.23098 11.2917 4.26636L11.2986 4.37469C11.3006 4.41079 11.301 4.4469 11.3023 4.48301C11.305 4.62881 11.2998 4.77465 11.2868 4.9199C11.2822 4.96756 11.2767 5.01518 11.2704 5.06276C11.2556 5.16037 11.2365 5.26135 11.2124 5.36546C11.0177 6.20795 10.6568 8.01124 10.6568 8.01124C10.6568 8.01124 10.5614 8.32754 10.4788 8.81221C10.4951 8.68403 10.513 8.56223 10.532 8.44753C10.5455 8.36569 10.5597 8.2875 10.5746 8.21296C10.5819 8.17577 10.5896 8.13942 10.5971 8.10404C10.6011 8.08635 10.605 8.06877 10.6092 8.05156L10.6212 8.0021C10.6292 7.95347 10.6367 7.90685 10.6435 7.86224C10.6503 7.81763 10.6574 7.77458 10.6648 7.7331C10.6787 7.65126 10.6919 7.57784 10.7046 7.51297L10.5988 7.99656L10.59 8.02508L10.5809 8.05602C10.5863 8.02906 10.5914 8.00414 10.5921 7.995C10.5935 7.9773 10.5955 7.95781 10.5963 7.94312C10.5971 7.92844 10.5974 7.91664 10.597 7.90786C10.5963 7.89029 10.5932 7.88379 10.5884 7.88716C10.5795 7.89624 10.5728 7.90723 10.5689 7.91929C10.5649 7.92808 10.5607 7.93843 10.5561 7.94998L10.5492 7.96816L10.5431 7.98296L10.5395 7.98958L10.5378 7.99295C10.5378 7.99391 10.5364 7.9962 10.5356 7.99776C10.5326 8.0045 10.5296 8.01148 10.5266 8.01859C10.5205 8.03279 10.5146 8.04735 10.5084 8.06215C10.4964 8.09164 10.4844 8.12173 10.4734 8.15038C10.4511 8.20742 10.4319 8.25785 10.419 8.28217C10.4061 8.30648 10.4001 8.30467 10.4057 8.25701C10.4081 8.23631 10.4125 8.20682 10.4201 8.16711C10.4134 8.19431 10.4068 8.22167 10.4002 8.24919C10.3769 8.34812 10.3537 8.44922 10.332 8.55224C10.2879 8.75805 10.2486 8.9712 10.2154 9.18748C10.1482 9.62028 10.1114 10.0656 10.1232 10.4823C10.1253 10.5864 10.1326 10.6884 10.1403 10.7879C10.1455 10.8375 10.1506 10.8865 10.1557 10.9348C10.158 10.9589 10.1619 10.983 10.1653 11.0064C10.1687 11.0299 10.1723 11.0536 10.1758 11.0768C10.1793 11.1001 10.1826 11.1232 10.1866 11.1459C10.1906 11.1687 10.1955 11.1912 10.1998 11.2136C10.2042 11.2359 10.2088 11.2578 10.2132 11.2796C10.2177 11.3014 10.2216 11.323 10.2274 11.3441C10.2488 11.4284 10.2687 11.5095 10.2947 11.5841C10.3067 11.6216 10.3188 11.6579 10.3319 11.6925C10.345 11.727 10.3593 11.7601 10.3729 11.7919C10.3977 11.8506 10.4262 11.9077 10.4584 11.9628C10.4731 11.9878 10.4863 12.0118 10.5015 12.0333C10.5166 12.0548 10.5314 12.0746 10.546 12.0926C10.5703 12.1244 10.5982 12.1533 10.6292 12.1787C10.6124 12.1456 10.5961 12.1105 10.5796 12.0764L10.5549 12.0248C10.5508 12.0162 10.5465 12.0077 10.5429 11.999L10.5319 11.9726C10.503 11.9024 10.4717 11.8327 10.4477 11.7607C10.4374 11.7107 10.4236 11.6567 10.413 11.5989L10.3953 11.5111C10.3924 11.4962 10.3888 11.4812 10.3864 11.4661C10.384 11.4509 10.3813 11.4356 10.3787 11.4205C10.3688 11.3592 10.3567 11.2978 10.3497 11.2371C10.3427 11.1765 10.333 11.1176 10.329 11.0618C10.3072 10.8388 10.3121 10.6718 10.3426 10.6947C10.3757 10.9236 10.4251 11.1499 10.4903 11.3718C10.548 11.6265 10.6327 11.8743 10.743 12.1109C11.5505 13.8179 11.9284 14.4365 11.9456 14.7286C11.8751 14.8579 11.7056 15.2048 11.5543 15.8358C11.5575 15.8085 11.559 15.781 11.5587 15.7535C11.5571 15.7274 11.5495 15.7267 11.5329 15.7618C11.5407 15.7257 11.5496 15.6918 11.5597 15.6601C11.5699 15.6285 11.5813 15.5999 11.5921 15.5733C11.609 15.5321 11.6283 15.4919 11.6499 15.453C11.682 15.3291 11.7193 15.2065 11.7618 15.0852L11.7776 15.0397L11.7944 14.9945L11.8114 14.9494L11.8295 14.9046C11.8355 14.8897 11.8415 14.8747 11.8478 14.8599L11.8661 14.8174C11.8781 14.7904 11.8901 14.7636 11.9029 14.7376L11.9082 14.7268L11.9095 14.7241C11.9096 14.7231 11.9096 14.7221 11.9095 14.7211L11.9087 14.7151C11.9075 14.707 11.9069 14.6989 11.905 14.691C11.9032 14.6831 11.902 14.6751 11.9002 14.6669L11.8943 14.6429C11.8856 14.6119 11.8756 14.5811 11.864 14.5519C11.8399 14.4883 11.8113 14.4248 11.7814 14.3621C11.7213 14.2364 11.6562 14.1123 11.5906 13.9882C11.6066 14.0482 11.6221 14.1081 11.6371 14.1679C11.6656 14.276 11.7036 14.3814 11.7509 14.4827L11.8079 14.6113C11.8159 14.6296 11.8231 14.6486 11.8295 14.6681C11.8325 14.6779 11.8355 14.6878 11.8378 14.6979L11.841 14.713C11.8422 14.7158 11.8403 14.7178 11.8397 14.7201L11.837 14.727C11.8291 14.747 11.8213 14.7668 11.813 14.7872L11.8009 14.8188C11.7955 14.8322 11.7895 14.8453 11.7841 14.8587C11.7731 14.8854 11.7611 14.9116 11.7493 14.938C11.7375 14.9643 11.7252 14.9905 11.7114 15.0164C11.7048 15.0036 11.6927 15.0098 11.6765 15.032C11.6529 15.0665 11.6327 15.1033 11.6163 15.1419C11.57 15.2419 11.5173 15.3914 11.4686 15.5597C11.4566 15.6017 11.4438 15.6449 11.4325 15.689C11.4212 15.733 11.4093 15.7775 11.3986 15.8224C11.3776 15.9121 11.3562 16.0029 11.3384 16.0899C11.3295 16.1336 11.3195 16.1763 11.3119 16.218C11.3044 16.2596 11.296 16.2999 11.2879 16.3383C11.2811 16.3719 11.2746 16.404 11.2686 16.4346C11.2638 16.4587 11.259 16.4805 11.2543 16.5003C11.2496 16.5202 11.2485 16.543 11.2456 16.5637C11.2437 16.5823 11.2416 16.6005 11.2397 16.6181C11.2378 16.6358 11.236 16.6535 11.2342 16.6704L11.2317 16.6957C11.2317 16.6997 11.2308 16.7038 11.2303 16.7077C11.2304 16.7087 11.2304 16.7097 11.2303 16.7107H11.2276L11.2219 16.7096C11.1478 16.6961 11.0728 16.6875 10.9976 16.6837L10.9649 16.6819C10.951 16.6811 10.9373 16.6803 10.9237 16.6798C10.8965 16.6783 10.87 16.6776 10.8441 16.6769C10.7925 16.6757 10.7435 16.6759 10.6972 16.6769C10.5493 16.6793 10.402 16.696 10.2573 16.7267C10.1745 16.7438 10.0938 16.7697 10.0165 16.8039C10.0032 16.8102 9.99103 16.8159 9.98043 16.822C9.96984 16.8282 9.96009 16.8341 9.95167 16.8394C9.93771 16.8481 9.92479 16.8584 9.91316 16.8701C9.89805 16.8842 9.88763 16.9026 9.88331 16.9229C9.43173 17.0703 9.04695 17.4018 9.01049 18.0906C9.01054 18.0909 9.01054 18.0913 9.01049 18.0917C9.00407 18.1472 9.00057 18.2031 9.00001 18.2591C8.99944 18.3802 9.01647 18.5008 9.05056 18.617C9.08418 18.7332 9.13303 18.8445 9.19583 18.9479C9.2566 19.0484 9.3275 19.1425 9.40742 19.2287C9.45672 19.2817 9.50866 19.3322 9.56304 19.3801C10.2896 20.0781 11.5081 20.4055 11.8305 20.4827C11.849 20.49 11.8674 20.4971 11.8858 20.5037C11.9061 20.511 11.9269 20.5169 11.948 20.5213C11.9891 20.531 12.0296 20.5398 12.0696 20.5478C12.1497 20.5635 12.2283 20.5758 12.3062 20.5856C12.4619 20.6052 12.6148 20.6152 12.7713 20.6241L12.9135 20.6321L13.6436 20.7276C13.6881 20.7334 13.7323 20.7405 13.776 20.7489H13.7772C13.7531 20.7489 13.7212 20.7468 13.6929 20.7468C13.6719 20.7457 13.6508 20.747 13.6301 20.7508C13.6242 20.7538 13.639 20.7584 13.6892 20.7677C13.7584 20.7752 13.8275 20.7861 13.896 20.8003C13.9302 20.8073 13.9642 20.8154 13.9982 20.8244C14.032 20.833 14.0659 20.843 14.1003 20.852C14.2184 20.8832 14.3376 20.9093 14.4576 20.9295H14.4585C14.9594 21.0357 15.6692 21.0789 16.0966 20.6342C16.1491 20.5785 16.2054 20.5265 16.2651 20.4784C16.4647 20.3202 16.572 20.264 16.6056 20.2484C16.6205 20.2415 16.6353 20.2345 16.65 20.2273C16.8168 20.1442 17.572 19.7562 17.7855 19.4359C18.0262 19.0749 18.6076 18.2444 18.16 17.2214C17.8462 16.5015 16.7968 16.5911 16.7968 16.5911ZM16.4994 18.5367C16.4977 18.5465 16.4949 18.556 16.4911 18.5651C16.4901 18.5672 16.4893 18.569 16.4883 18.5707C16.4876 18.572 16.4867 18.5732 16.4857 18.5743L16.4833 18.5767C16.4842 18.5945 16.4861 18.6122 16.4889 18.6298C16.49 18.6388 16.49 18.6479 16.4889 18.657C16.4876 18.6698 16.4848 18.6825 16.4804 18.6946C16.4842 18.6768 16.4603 18.7421 16.4669 18.7037C16.4598 18.7209 16.4545 18.7389 16.451 18.7572C16.4467 18.7772 16.4411 18.7968 16.4343 18.8161C16.4232 18.8161 16.425 18.7858 16.3966 18.8386C16.3788 18.8741 16.3819 18.8782 16.387 18.8822C16.3886 18.8831 16.39 18.8844 16.391 18.886C16.392 18.8876 16.3926 18.8894 16.3926 18.8913C16.3921 18.9023 16.3887 18.9129 16.3829 18.9222C16.3917 18.9082 16.399 18.8932 16.407 18.8783C16.4052 18.895 16.4006 18.9112 16.3936 18.9265C16.3851 18.9467 16.375 18.9663 16.3634 18.9849C16.3573 18.9951 16.3514 19.0054 16.3444 19.0156L16.3231 19.0455C16.3095 19.0658 16.2937 19.0838 16.2808 19.1015C16.2682 19.112 16.2548 19.1216 16.2406 19.13L16.2198 19.1431L16.2095 19.1496L16.1984 19.1557C16.1833 19.1642 16.1687 19.1734 16.1546 19.1834C16.1383 19.1935 16.1227 19.2047 16.108 19.217C16.1108 19.2129 16.1246 19.198 16.1181 19.1961C16.1094 19.1996 16.1012 19.2045 16.094 19.2106C16.0861 19.2172 16.0774 19.2227 16.0715 19.2282C16.0416 19.2604 16.0904 19.2355 16.0816 19.2523L16.0608 19.2706C16.0571 19.2737 16.0541 19.2765 16.0496 19.2799C16.0471 19.2822 16.0442 19.2841 16.0411 19.2855L16.0317 19.2898C16.026 19.2926 16.0199 19.2949 16.0138 19.2966C16.0073 19.298 16.0005 19.2993 15.9934 19.3004C15.9862 19.3011 15.979 19.3011 15.9718 19.3004C15.9642 19.3003 15.9567 19.2991 15.9495 19.297C15.9379 19.292 15.927 19.2857 15.9168 19.2783C15.9071 19.2717 15.8979 19.2645 15.8894 19.2565C15.8638 19.2613 15.8379 19.2479 15.8111 19.2289C15.7981 19.219 15.7835 19.2085 15.7688 19.1969C15.7532 19.1845 15.7368 19.1732 15.7196 19.163C15.7176 19.1521 15.6964 19.1374 15.6751 19.1228C15.6538 19.1081 15.6336 19.0923 15.632 19.0815C15.6173 19.0694 15.6215 19.0609 15.628 19.052C15.5952 19.0241 15.5595 18.9925 15.5208 18.9573C15.5186 18.9706 15.5278 18.996 15.5418 19.0185C15.5359 19.0115 15.5293 19.005 15.5222 18.999C15.5375 19.0213 15.6015 19.0888 15.5583 19.0686C15.5381 19.0519 15.522 19.0308 15.5113 19.007C15.5012 18.9847 15.4859 18.9652 15.4667 18.9502C15.4908 18.9431 15.392 18.8693 15.4472 18.8889C15.4336 18.8763 15.4197 18.8632 15.4056 18.8495C15.3991 18.8453 15.3926 18.8417 15.3856 18.8375C15.4138 18.8755 15.3752 18.832 15.3856 18.8567C15.3567 18.8326 15.3286 18.8085 15.3014 18.7844C15.2742 18.7604 15.2476 18.735 15.2215 18.7102L15.2021 18.6915L15.1925 18.6821L15.1876 18.6776L15.1819 18.6713C15.1624 18.6497 15.1514 18.6217 15.1511 18.5926C15.1508 18.5635 15.1611 18.5352 15.1801 18.5132C15.1862 18.5063 15.1921 18.4992 15.1985 18.4927C15.2416 18.4584 15.2804 18.4273 15.3205 18.3971C15.3611 18.366 15.4037 18.3376 15.448 18.3122C15.4791 18.3035 15.4864 18.3084 15.4841 18.3155C15.479 18.3248 15.4733 18.3337 15.467 18.3422C15.479 18.3374 15.4911 18.3339 15.5031 18.3302C15.5151 18.3265 15.5272 18.3224 15.5404 18.3197C15.5284 18.3248 15.5163 18.3318 15.505 18.3373L15.5022 18.3388C15.5779 18.3155 15.6561 18.3014 15.7351 18.2966C15.7413 18.2934 15.752 18.2897 15.7614 18.2859C15.7781 18.2798 15.7906 18.2729 15.764 18.2658C15.7272 18.2682 15.6904 18.2709 15.6537 18.2765C15.626 18.2747 15.6627 18.2609 15.7029 18.255C15.7211 18.2571 15.7395 18.2577 15.7578 18.2568C15.771 18.2553 15.7841 18.2527 15.7969 18.249C15.7994 18.2528 15.8099 18.2537 15.8224 18.2537C15.8349 18.2537 15.8491 18.2537 15.8595 18.2551C15.8799 18.2522 15.8928 18.2485 15.9076 18.2468C15.9284 18.2444 15.9495 18.2452 15.9701 18.2491C15.9219 18.2688 16.0167 18.281 16.0554 18.3019C16.0434 18.3019 16.0276 18.3027 16.0099 18.3028C16.0508 18.3071 16.0914 18.3136 16.1316 18.3223C16.1489 18.3223 16.1663 18.3238 16.1838 18.3252C16.1236 18.3067 16.0782 18.2923 16.0348 18.2805C16.0974 18.2905 16.1475 18.2904 16.1973 18.2952C16.2514 18.2982 16.3036 18.3165 16.3479 18.3478C16.3788 18.3638 16.3991 18.3719 16.4201 18.3839C16.4253 18.387 16.4304 18.3901 16.4359 18.3938C16.4424 18.3986 16.4486 18.404 16.4543 18.4099C16.4694 18.4256 16.4809 18.4444 16.4881 18.465C16.4905 18.4763 16.4858 18.4705 16.4817 18.4665C16.4776 18.4624 16.4742 18.4595 16.4788 18.4744C16.4815 18.4849 16.4851 18.4951 16.4895 18.505C16.4931 18.5113 16.4964 18.5178 16.4993 18.5245C16.5004 18.5203 16.5016 18.5158 16.5025 18.5113C16.5023 18.5168 16.5012 18.5266 16.4994 18.5367ZM15.6145 18.2884C15.5999 18.2927 15.5851 18.296 15.5706 18.3005L15.5273 18.3148L15.5205 18.3131C15.5515 18.3037 15.5828 18.2951 15.6145 18.2884ZM16.106 18.2686L16.1066 18.2519C16.125 18.2602 16.1434 18.2676 16.1613 18.2767C16.1413 18.2758 16.1257 18.2686 16.106 18.2686ZM13.1472 10.9659C13.2272 10.5234 13.3037 10.1881 13.354 9.82248C13.3481 9.8965 13.3401 9.97293 13.3292 10.0537C13.3127 10.1809 13.2884 10.3185 13.2577 10.4749C13.227 10.6314 13.189 10.8062 13.1454 11.0088C13.1462 10.9939 13.1468 10.9796 13.1472 10.9659ZM13.5066 11.0459C13.5077 11.1008 13.5087 11.1551 13.5098 11.2089C13.5098 11.2357 13.5118 11.2622 13.5137 11.2885C13.5157 11.3149 13.5175 11.3409 13.5193 11.3667C13.5231 11.4183 13.5273 11.4688 13.5319 11.5179C13.5439 11.6158 13.5585 11.7079 13.5743 11.7917L13.6015 11.7075C13.6077 11.7587 13.6137 11.8075 13.6195 11.8539C13.6267 11.9001 13.6331 11.9442 13.6389 11.9862C13.6447 12.0283 13.6499 12.0682 13.6547 12.1059C13.6597 12.1437 13.6628 12.1798 13.6684 12.2136C13.6881 12.3492 13.6987 12.4562 13.703 12.5434C13.7169 12.7163 13.7043 12.8097 13.6882 12.8908L13.6762 12.951C13.6744 12.9609 13.6726 12.9709 13.6707 12.981C13.6687 12.9911 13.6679 13.0014 13.6668 13.012C13.6614 13.0625 13.6608 13.1133 13.6649 13.1638C13.6671 13.1946 13.6709 13.2288 13.6769 13.2676C13.6799 13.2869 13.6833 13.3074 13.6873 13.3291L13.688 13.3331V13.3352V13.3375V13.341C13.6879 13.3422 13.6879 13.3434 13.688 13.3446C13.688 13.3461 13.688 13.3477 13.688 13.3493C13.6924 13.3818 13.7016 13.4134 13.7154 13.4432C13.7146 13.4131 13.7138 13.3875 13.7146 13.3709C13.7154 13.3543 13.7182 13.3458 13.7224 13.3459C13.7302 13.3459 13.7465 13.3791 13.7632 13.4181C13.78 13.4571 13.7993 13.4992 13.8094 13.5071C13.8147 13.5108 13.818 13.5055 13.8171 13.483C13.8137 13.4385 13.8076 13.3943 13.7987 13.3506C13.7987 13.3407 13.7987 13.3301 13.7987 13.3215C13.7987 13.317 13.7993 13.3126 13.7997 13.3084C13.7998 13.3072 13.7998 13.3059 13.7997 13.3047V13.2986C13.7997 13.2944 13.7991 13.2904 13.7989 13.2866C13.797 13.2588 13.7967 13.231 13.7979 13.2032C13.7983 13.1663 13.8059 13.1299 13.8203 13.0959C13.8443 13.0459 13.8817 13.0318 13.916 13.0137L13.9209 13.0111C13.9811 13.2565 14.054 13.5166 14.1405 13.7923C13.7454 13.7744 13.2244 13.7744 12.919 13.8645C12.9023 13.5705 12.8894 13.3157 12.9006 12.9937C12.9224 12.9549 12.9429 12.9411 12.9608 12.9576C12.9461 13.1622 12.9367 13.2233 12.9532 13.3082C12.9589 13.2777 12.9682 13.2327 12.9773 13.2314C12.9818 13.2314 12.986 13.2413 12.9893 13.2698C12.9911 13.284 12.9931 13.3029 12.9952 13.3273C12.9961 13.3393 12.9972 13.3529 12.9982 13.3678C12.9991 13.3798 13 13.3939 13.001 13.409L13.0017 13.3445C13.0017 13.3204 13.0017 13.2963 13.0028 13.2722C13.004 13.2241 13.005 13.1754 13.0075 13.127L13.0106 13.0548L13.0151 12.9826C13.0177 12.9344 13.022 12.8863 13.0257 12.8374C13.0417 12.6441 13.0649 12.4507 13.0918 12.2574L13.1435 12.3126C13.1506 12.2227 13.1578 12.1362 13.1666 12.0527C13.1754 11.9692 13.1842 11.8889 13.1936 11.812C13.203 11.7351 13.2132 11.66 13.2232 11.588C13.2332 11.516 13.2441 11.447 13.2551 11.3806C13.2987 11.1141 13.3486 10.8863 13.4004 10.6763C13.4521 10.4663 13.5055 10.2732 13.5549 10.0757C13.571 10.011 13.5867 9.94561 13.6018 9.87917C13.5995 9.89722 13.5973 9.91528 13.595 9.93393C13.5888 9.98015 13.5829 10.0281 13.576 10.0773C13.5727 10.102 13.5694 10.127 13.566 10.1523C13.5624 10.1775 13.5599 10.2033 13.5568 10.2292C13.5509 10.281 13.5437 10.3339 13.5394 10.3877C13.5368 10.4145 13.5342 10.4416 13.5317 10.4688C13.5291 10.496 13.5259 10.5233 13.5246 10.5509C13.5209 10.6059 13.5174 10.6612 13.5138 10.7168C13.5116 10.7447 13.5116 10.7725 13.5106 10.8003C13.5096 10.8281 13.509 10.8559 13.5083 10.8837L13.5061 10.9669C13.5054 10.9909 13.5064 11.0185 13.5066 11.0459Z" fill="white"/>
<defs>
<filter id="filter0_d_6294_119" x="0.137931" y="0" width="27" height="26.9995" filterUnits="userSpaceOnUse" color-interpolation-filters="sRGB">
<feFlood flood-opacity="0" result="BackgroundImageFix"/>
<feColorMatrix in="SourceAlpha" type="matrix" values="0 0 0 0 0 0 0 0 0 0 0 0 0 0 0 0 0 0 127 0" result="hardAlpha"/>
<feOffset dy="1.86207"/>
<feGaussianBlur stdDeviation="0.931035"/>
<feComposite in2="hardAlpha" operator="out"/>
<feColorMatrix type="matrix" values="0 0 0 0 0 0 0 0 0 0 0 0 0 0 0 0 0 0 0.25 0"/>
<feBlend mode="normal" in2="BackgroundImageFix" result="effect1_dropShadow_6294_119"/>
<feBlend mode="normal" in="SourceGraphic" in2="effect1_dropShadow_6294_119" result="shape"/>
</filter>
</defs>
</svg>
