<svg width="29" height="29" viewBox="0 0 29 29" fill="none" xmlns="http://www.w3.org/2000/svg">
<g>
<circle cx="13.6379" cy="11.6379" r="11.6379" fill="#FF5082"/>
</g>
<path d="M13.8707 11.8384L16.7802 10.2221L19.6897 8.5974L16.7802 6.98242L13.8707 8.5974L10.9612 6.98242L8.05176 8.5974L10.9612 10.2221L13.8707 11.8384Z" fill="white"/>
<path d="M16.7802 11.4375L13.8707 13.0525L10.9612 11.4375L8.05176 13.0525L10.9612 14.6772L13.8707 16.2921L16.7802 14.6772L19.6897 13.0525L16.7802 11.4375Z" fill="white"/>
<g>
<circle cx="21.5517" cy="20.9482" r="6.05172" fill="#6A70FA"/>
</g>
<path d="M24.4022 20.7L21.6294 17.1709C21.6058 17.1408 21.5757 17.1164 21.5413 17.0997C21.5069 17.0829 21.4691 17.0742 21.4309 17.0742C21.3926 17.0742 21.3549 17.0829 21.3205 17.0997C21.2861 17.1164 21.256 17.1408 21.2324 17.1709L18.4596 20.7C18.4243 20.7437 18.405 20.7982 18.405 20.8544C18.405 20.9105 18.4243 20.965 18.4596 21.0087L21.2324 24.5378C21.256 24.5679 21.2861 24.5923 21.3205 24.609C21.3549 24.6258 21.3926 24.6345 21.4309 24.6345C21.4691 24.6345 21.5069 24.6258 21.5413 24.609C21.5757 24.5923 21.6058 24.5679 21.6294 24.5378L24.4022 21.0087C24.4375 20.965 24.4568 20.9105 24.4568 20.8544C24.4568 20.7982 24.4375 20.7437 24.4022 20.7ZM21.683 18.0532L23.8067 20.7567L21.683 21.724V18.0532ZM21.1788 21.724L19.0551 20.7567L21.1788 18.0532V21.724ZM21.1788 22.2786V23.6555L19.4962 21.5129L21.1788 22.2786ZM21.683 22.2786L23.3656 21.5129L21.683 23.6555V22.2786Z" fill="white"/>
</svg>
