<svg width="26" height="29" viewBox="0 0 26 29" fill="none" xmlns="http://www.w3.org/2000/svg">
<path d="M11.9999 23.7976C18.5155 23.7976 23.7976 18.5155 23.7976 11.9999C23.7976 5.48416 18.5155 0.202148 11.9999 0.202148C5.48416 0.202148 0.202148 5.48416 0.202148 11.9999C0.202148 18.5155 5.48416 23.7976 11.9999 23.7976Z" fill="white"/>
<path fill-rule="evenodd" clip-rule="evenodd" d="M12 0.404585C5.59603 0.404585 0.404585 5.59603 0.404585 12C0.404585 18.404 5.59603 23.5954 12 23.5954C18.404 23.5954 23.5954 18.404 23.5954 12C23.5954 5.59603 18.404 0.404585 12 0.404585ZM0 12C0 5.37259 5.37259 0 12 0C18.6274 0 24 5.37259 24 12C24 18.6274 18.6274 24 12 24C5.37259 24 0 18.6274 0 12Z" fill="#231F20"/>
<path d="M12.0002 22.2083C17.6377 22.2083 22.2078 17.6382 22.2078 12.0007C22.2078 6.36309 17.6377 1.79297 12.0002 1.79297C6.3626 1.79297 1.79248 6.36309 1.79248 12.0007C1.79248 17.6382 6.3626 22.2083 12.0002 22.2083Z" fill="#009F55"/>
<path fill-rule="evenodd" clip-rule="evenodd" d="M12 2.19687C6.58584 2.19687 2.19687 6.58584 2.19687 12C2.19687 17.4141 6.58584 21.803 12 21.803C17.414 21.803 21.803 17.4141 21.803 12C21.803 6.58584 17.414 2.19687 12 2.19687ZM1.3877 12C1.3877 6.13896 6.13895 1.3877 12 1.3877C17.8609 1.3877 22.6122 6.13896 22.6122 12C22.6122 17.8609 17.8609 22.6122 12 22.6122C6.13895 22.6122 1.3877 17.8609 1.3877 12Z" fill="#231F20"/>
<path d="M16.4183 16.5941C16.3086 16.6708 16.1579 16.7229 15.9659 16.7503C15.785 16.7778 15.6534 16.7723 15.5711 16.7339C15.5492 16.7229 15.5273 16.6846 15.5054 16.6187C15.4889 16.5475 15.467 16.4981 15.4395 16.4707C15.4286 16.4597 15.4149 16.4515 15.3984 16.446C15.1791 16.3254 14.9433 16.2212 14.6911 16.1335C14.0989 15.9141 13.4875 15.7798 12.8569 15.7304C12.5334 14.9573 12.3579 14.5351 12.3305 14.4638C12.1386 13.9758 12.0783 13.6962 12.1496 13.6249L18.3347 7.43973C18.3731 7.40133 18.491 7.40958 18.6884 7.46439C18.8913 7.52472 19.0201 7.58778 19.075 7.65356C19.1353 7.72487 19.223 7.9003 19.3382 8.17996C19.4588 8.45413 19.5822 8.65427 19.7083 8.78039C19.8728 8.9449 20.1606 9.08471 20.5719 9.19985C20.9557 9.29854 21.1668 9.38902 21.2052 9.47126C21.293 9.64674 21.3423 9.98669 21.3533 10.4911C21.3752 10.9957 21.345 11.3109 21.2628 11.4371C21.2244 11.4973 21.0873 11.5303 20.8516 11.5357C20.6213 11.5467 20.4704 11.5165 20.3992 11.4453C20.3388 11.385 20.3032 11.3328 20.2922 11.289C20.2813 11.2451 20.2676 11.2205 20.2511 11.215C20.0099 11.0614 19.7741 10.9298 19.5438 10.8202C19.0009 10.5515 18.5431 10.4117 18.1702 10.4007L16.8296 11.7414C17.1202 11.8346 17.4711 11.9826 17.8824 12.1855C17.9811 12.2623 18.0413 12.5693 18.0633 13.1067C18.0962 13.6441 18.0633 13.9621 17.9646 14.0608C17.9043 14.1211 17.7946 14.154 17.6356 14.1595C17.4766 14.165 17.3505 14.143 17.2573 14.0937C17.2024 14.0389 17.101 13.9484 16.9529 13.8223C16.7062 13.6523 16.1634 13.4604 15.3244 13.2465L14.4608 14.1101C14.724 14.176 15.0612 14.2828 15.4724 14.4309C15.8947 14.579 16.1387 14.6859 16.2045 14.7517C16.2812 14.8285 16.3525 15.141 16.4183 15.6893C16.4951 16.2377 16.4951 16.5392 16.4183 16.5941Z" fill="white"/>
<path fill-rule="evenodd" clip-rule="evenodd" d="M18.442 7.62028L12.3237 13.7386C12.3246 13.7609 12.3288 13.7959 12.3397 13.8466C12.3664 13.9703 12.4248 14.1502 12.5194 14.3909L12.5197 14.3916L12.52 14.3923C12.5447 14.4566 12.7028 14.8373 12.997 15.5407C13.6018 15.5986 14.1897 15.7331 14.7601 15.9442C15.0169 16.0336 15.2583 16.1398 15.4841 16.2631C15.5194 16.2776 15.5534 16.299 15.5832 16.3288C15.6488 16.3944 15.6812 16.4845 15.7003 16.5624C15.7439 16.5684 15.8186 16.5693 15.9363 16.5515L15.9371 16.5513L15.938 16.5512C16.0857 16.5301 16.1923 16.4946 16.2668 16.4523C16.271 16.4264 16.2742 16.3861 16.2742 16.3279C16.2742 16.1912 16.2566 15.9897 16.2186 15.7185L16.2183 15.7165L16.2181 15.7146C16.1855 15.4432 16.1523 15.236 16.1189 15.0898C16.1022 15.0165 16.0864 14.9631 16.0726 14.9265C16.0659 14.9089 16.0608 14.8986 16.0581 14.8934C16.0526 14.8895 16.0419 14.8825 16.0238 14.8725C15.9928 14.8552 15.9493 14.8339 15.8916 14.8086C15.7763 14.7581 15.6152 14.6963 15.4061 14.6229L15.4053 14.6227L15.4046 14.6224C14.9964 14.4754 14.6662 14.371 14.4124 14.3075L14.0657 14.2209L15.2634 13.0232L15.375 13.0516C15.7977 13.1594 16.1496 13.2625 16.4288 13.3613C16.7046 13.4587 16.9224 13.5563 17.0683 13.6568L17.0768 13.6627L17.0848 13.6694C17.2136 13.7792 17.3115 13.8656 17.3751 13.9265C17.4271 13.9477 17.5081 13.9626 17.6293 13.9585C17.6976 13.9561 17.7464 13.948 17.7796 13.9381C17.804 13.9308 17.8157 13.9237 17.82 13.9206C17.8221 13.9169 17.8274 13.9067 17.834 13.8858C17.8449 13.8513 17.8553 13.8001 17.8627 13.7286C17.8775 13.5855 17.8782 13.3842 17.862 13.1202L17.8619 13.1181L17.8618 13.1161C17.851 12.8515 17.831 12.6522 17.8038 12.5135C17.7901 12.444 17.7758 12.3959 17.7629 12.3648C17.7604 12.3586 17.7581 12.3536 17.7561 12.3497C17.3663 12.1588 17.0375 12.0215 16.7684 11.9351L16.4527 11.8339L18.0896 10.1971L18.1768 10.1996C18.5911 10.2118 19.0787 10.3653 19.6328 10.6393C19.8674 10.7511 20.1063 10.8843 20.3494 11.0385C20.4061 11.0681 20.4369 11.1148 20.4512 11.1405C20.4694 11.1732 20.4806 11.2077 20.4881 11.237C20.489 11.2387 20.491 11.2423 20.4948 11.2478C20.5035 11.2606 20.5184 11.2788 20.5422 11.3027C20.5423 11.3026 20.557 11.3143 20.606 11.3241C20.6593 11.3348 20.7366 11.3399 20.8426 11.3348L20.845 11.3347L20.8475 11.3346C20.9592 11.332 21.0362 11.323 21.0846 11.3114C21.0927 11.3094 21.0993 11.3076 21.1045 11.306C21.1176 11.2725 21.1351 11.2055 21.1464 11.0878C21.1602 10.9433 21.1626 10.7488 21.1518 10.5011L21.1517 10.4989L21.1517 10.4967C21.1463 10.2493 21.1316 10.047 21.1085 9.88805C21.0867 9.73807 21.059 9.63793 21.0316 9.57694C21.0309 9.57647 21.0303 9.576 21.0295 9.57548C21.0136 9.56447 20.9851 9.54853 20.9391 9.52879C20.8474 9.48955 20.7101 9.44524 20.5222 9.39691L20.5201 9.39639L20.518 9.39578C20.097 9.27792 19.7679 9.12658 19.5659 8.92456C19.414 8.77266 19.2785 8.54622 19.1536 8.26258L19.1527 8.26037L19.1517 8.25812C19.0952 8.12071 19.0465 8.01189 19.0057 7.93022C18.9629 7.84475 18.9348 7.80144 18.9212 7.78535L18.9207 7.78479L18.9203 7.78428C18.9202 7.78428 18.9162 7.77968 18.9044 7.77148C18.8921 7.76285 18.8741 7.75207 18.8489 7.73974C18.7984 7.71503 18.7275 7.68807 18.6331 7.65994C18.5432 7.63505 18.481 7.62342 18.442 7.62028ZM21.0391 9.58294C21.0391 9.58294 21.0387 9.58261 21.0381 9.582C21.0388 9.58261 21.0392 9.58294 21.0391 9.58294ZM21.1212 11.2996C21.1212 11.2996 21.1212 11.2996 21.1212 11.2996C21.1216 11.2994 21.1216 11.2994 21.1212 11.2996ZM16.2603 16.4796C16.2602 16.4794 16.2607 16.478 16.2618 16.4755C16.2609 16.4784 16.2604 16.4796 16.2603 16.4796ZM12.3245 13.7149C12.3246 13.715 12.3245 13.7161 12.324 13.7181C12.3242 13.7159 12.3245 13.7148 12.3245 13.7149ZM18.4666 7.21643C18.5455 7.22192 18.6394 7.24179 18.7432 7.27063L18.7449 7.2711L18.7467 7.27161C18.8543 7.30363 18.9487 7.33819 19.0268 7.37635C19.1015 7.41292 19.1765 7.46013 19.2305 7.52454C19.277 7.57973 19.3227 7.65961 19.3676 7.7493C19.4142 7.8426 19.4667 7.96056 19.5249 8.10181C19.641 8.36525 19.7519 8.53843 19.852 8.63848C19.9788 8.76525 20.2248 8.89334 20.625 9.00562C20.8199 9.05579 20.9794 9.1059 21.0984 9.15691C21.158 9.18246 21.2134 9.21069 21.2598 9.24285C21.3023 9.27224 21.3558 9.31744 21.3878 9.38387C21.4454 9.49996 21.4832 9.65307 21.5089 9.82992C21.5351 10.0104 21.5505 10.2296 21.5561 10.4857C21.5671 10.7416 21.5654 10.9561 21.5491 11.1264C21.5337 11.2878 21.5029 11.4408 21.4334 11.5479C21.3688 11.6484 21.2552 11.6865 21.1791 11.7048C21.091 11.7259 20.9824 11.7361 20.8594 11.739C20.736 11.7448 20.6236 11.7402 20.5267 11.7208C20.4313 11.7018 20.3319 11.6645 20.2568 11.5894C20.1949 11.5276 20.1317 11.4508 20.103 11.3613C19.882 11.2227 19.6668 11.1036 19.4575 11.004L19.4561 11.0033L19.4547 11.0026C18.9679 10.7617 18.5681 10.6357 18.2499 10.6089L17.1992 11.6596C17.4308 11.7498 17.6888 11.8652 17.9725 12.0052L17.9909 12.0143L18.0072 12.0269C18.0722 12.0775 18.1113 12.1486 18.1367 12.21C18.1636 12.2749 18.1842 12.3515 18.2008 12.4355C18.2337 12.6035 18.2548 12.8257 18.266 13.0976C18.2826 13.37 18.2832 13.5957 18.2651 13.7702C18.2561 13.8577 18.2418 13.9381 18.2198 14.0077C18.1986 14.075 18.1653 14.1479 18.1083 14.205C17.9912 14.3221 17.814 14.3569 17.6432 14.3628C17.4655 14.3689 17.2997 14.3459 17.1633 14.2736L17.1363 14.2594L17.1149 14.2378C17.0673 14.1903 16.9742 14.1069 16.8307 13.9845C16.7286 13.9161 16.554 13.8347 16.2939 13.7427C16.0542 13.658 15.7521 13.5678 15.3864 13.4724L14.8492 14.0096C15.0523 14.0712 15.283 14.1486 15.5408 14.2415C15.7536 14.316 15.9254 14.3816 16.054 14.438C16.1182 14.4662 16.1744 14.4932 16.2209 14.5191C16.264 14.5431 16.3114 14.5731 16.3481 14.6098C16.3986 14.6602 16.4297 14.7274 16.4507 14.7827C16.4738 14.8435 16.4944 14.9169 16.5134 14.9998C16.5512 15.1658 16.5864 15.3884 16.6196 15.6644C16.6582 15.9406 16.6788 16.1634 16.6788 16.3279C16.6788 16.4096 16.6738 16.4857 16.6599 16.5504C16.6483 16.6042 16.6209 16.6996 16.5365 16.7598L16.5357 16.7604L16.535 16.7609C16.3904 16.8621 16.206 16.9216 15.996 16.9516C15.8089 16.9799 15.6259 16.9835 15.4863 16.9183L15.4838 16.9172L15.4813 16.916C15.416 16.8833 15.3802 16.8281 15.3632 16.7984C15.343 16.7631 15.3272 16.7231 15.3141 16.6839L15.3111 16.6747L15.3088 16.6653C15.3044 16.6459 15.3 16.6316 15.2963 16.6215C15.0891 16.5079 14.8655 16.4092 14.6252 16.3257L14.6233 16.325L14.6214 16.3243C14.0468 16.1115 13.4537 15.9811 12.8418 15.9333L12.7186 15.9236L12.6709 15.8097C12.3496 15.0416 12.1723 14.6153 12.1427 14.5383C12.0455 14.2913 11.9778 14.0876 11.9443 13.9318C11.9276 13.8546 11.9171 13.7795 11.9192 13.7122C11.9211 13.652 11.934 13.5561 12.0072 13.483L18.1923 7.29782C18.2409 7.2492 18.299 7.23021 18.3407 7.22215C18.3837 7.2139 18.4273 7.21366 18.4666 7.21643Z" fill="#231F20"/>
<path d="M7.75653 16.6063C7.86665 16.6833 8.01809 16.7356 8.21077 16.7632C8.39244 16.7907 8.52461 16.7852 8.60717 16.7466C8.6292 16.7356 8.65124 16.6971 8.67323 16.631C8.68978 16.5594 8.71181 16.5099 8.73933 16.4824C8.75035 16.4713 8.76409 16.4631 8.78059 16.4576C9.00084 16.3365 9.2376 16.2319 9.49086 16.1438C10.0855 15.9236 10.6994 15.7886 11.3325 15.7391C11.6574 14.9628 11.8336 14.5388 11.8611 14.4673C12.0538 13.9773 12.1143 13.6965 12.0427 13.6249L5.83231 7.41445C5.79377 7.37587 5.67539 7.38416 5.47717 7.43921C5.27347 7.49978 5.14407 7.56307 5.08903 7.62917C5.02846 7.70072 4.94036 7.8769 4.82475 8.15769C4.70361 8.43298 4.57974 8.63397 4.45311 8.7606C4.28794 8.92577 3.99889 9.06614 3.58596 9.18175C3.20055 9.28086 2.98858 9.37172 2.95004 9.45433C2.86195 9.63046 2.8124 9.97182 2.80139 10.4784C2.77936 10.9849 2.80965 11.3015 2.89223 11.4281C2.93077 11.4887 3.06842 11.5217 3.30516 11.5272C3.53641 11.5382 3.68781 11.5079 3.75938 11.4363C3.81995 11.3758 3.85573 11.3235 3.86675 11.2794C3.87776 11.2354 3.89152 11.2107 3.90804 11.2051C4.15029 11.051 4.38704 10.9188 4.61828 10.8087C5.16334 10.5389 5.62307 10.3985 5.99748 10.3875L7.34363 11.7337C7.05183 11.8273 6.69946 11.9759 6.28651 12.1796C6.1874 12.2567 6.12683 12.5651 6.10484 13.1046C6.07179 13.6442 6.10484 13.9635 6.20395 14.0626C6.26448 14.1232 6.37461 14.1562 6.53429 14.1617C6.69392 14.1672 6.82056 14.1452 6.91418 14.0956C6.96922 14.0406 7.0711 13.9497 7.21972 13.8231C7.46749 13.6524 8.01255 13.4597 8.85494 13.245L9.72209 14.1121C9.45781 14.1782 9.11922 14.2856 8.70628 14.4342C8.28236 14.5829 8.03735 14.6903 7.97125 14.7563C7.89417 14.8334 7.82263 15.1472 7.75653 15.6978C7.67945 16.2484 7.67945 16.5512 7.75653 16.6063Z" fill="white"/>
<path fill-rule="evenodd" clip-rule="evenodd" d="M5.82691 7.19485C5.86873 7.20292 5.9271 7.222 5.97591 7.2708L12.1864 13.4813C12.2598 13.5547 12.2728 13.651 12.2747 13.7115C12.2768 13.779 12.2663 13.8544 12.2495 13.932C12.2158 14.0884 12.1479 14.293 12.0503 14.541C12.0205 14.6184 11.8425 15.0464 11.5199 15.8175L11.472 15.9319L11.3484 15.9416C10.7339 15.9897 10.1384 16.1206 9.56137 16.3342L9.55949 16.335L9.55757 16.3356C9.31641 16.4195 9.09188 16.5186 8.88377 16.6327C8.88007 16.6428 8.87566 16.6571 8.87116 16.6767L8.869 16.6861L8.86596 16.6952C8.85278 16.7347 8.83684 16.7748 8.81659 16.8103C8.79952 16.8401 8.76361 16.8955 8.69802 16.9283L8.69554 16.9296L8.69305 16.9307C8.55282 16.9961 8.36904 16.9925 8.18114 16.9641C7.9704 16.9339 7.78516 16.8742 7.64006 16.7727L7.63927 16.7721L7.63847 16.7715C7.55375 16.711 7.52623 16.6153 7.5146 16.5613C7.50063 16.4964 7.49562 16.4199 7.49562 16.3379C7.49562 16.1726 7.51634 15.949 7.55511 15.6716C7.5884 15.3944 7.62375 15.1709 7.66172 15.0043C7.68076 14.921 7.70143 14.8474 7.72464 14.7863C7.74574 14.7308 7.77701 14.6633 7.82764 14.6127C7.86449 14.5758 7.91217 14.5458 7.95544 14.5216C8.00205 14.4956 8.05849 14.4685 8.12305 14.4402C8.25217 14.3836 8.4246 14.3178 8.63825 14.2429C8.89709 14.1496 9.12873 14.072 9.33272 14.01L8.79333 13.4706C8.4261 13.5665 8.12272 13.657 7.88207 13.742C7.62093 13.8344 7.44559 13.9162 7.34306 13.9849C7.19899 14.1077 7.1055 14.1915 7.05778 14.2392L7.03621 14.2609L7.00921 14.2752C6.87221 14.3477 6.70573 14.3708 6.52725 14.3647C6.35575 14.3588 6.17793 14.3238 6.0603 14.2062C6.00301 14.1489 5.96963 14.0757 5.94829 14.0082C5.92621 13.9383 5.91187 13.8575 5.90277 13.7697C5.88467 13.5944 5.88528 13.3678 5.90197 13.0943C5.91318 12.8213 5.93432 12.5982 5.96747 12.4296C5.98402 12.3452 6.00474 12.2682 6.03175 12.2031C6.0573 12.1415 6.09654 12.0701 6.1618 12.0193L6.17811 12.0066L6.19663 11.9975C6.48154 11.8569 6.74052 11.741 6.97311 11.6504L5.91815 10.5955C5.59855 10.6224 5.19714 10.7489 4.70838 10.9908L4.70698 10.9914L4.70562 10.9921C4.49539 11.0922 4.27934 11.2117 4.05743 11.351C4.02858 11.4408 3.9651 11.5179 3.90301 11.58C3.82759 11.6554 3.72775 11.6928 3.63198 11.7119C3.53472 11.7314 3.42184 11.736 3.29797 11.7302C3.17445 11.7273 3.0654 11.717 2.97696 11.6958C2.90049 11.6775 2.78647 11.6392 2.72158 11.5383C2.65179 11.4307 2.62088 11.2771 2.60538 11.1151C2.58903 10.9441 2.58726 10.7286 2.59836 10.4717C2.60401 10.2146 2.61949 9.99446 2.64579 9.81326C2.67157 9.63567 2.70955 9.48194 2.76742 9.36534C2.7995 9.29867 2.8532 9.25334 2.89584 9.2238C2.94247 9.19155 2.99809 9.16318 3.05791 9.13754C3.17742 9.08629 3.33754 9.03599 3.53323 8.98559C3.93516 8.87284 4.18218 8.74424 4.30947 8.61695C4.40994 8.51648 4.52128 8.34259 4.63786 8.07808C4.69629 7.93626 4.74898 7.81783 4.79587 7.72411C4.84087 7.6341 4.88677 7.55388 4.93351 7.49847C4.98766 7.43377 5.063 7.38642 5.13806 7.34966C5.21641 7.31136 5.3112 7.27662 5.41927 7.2445L5.42105 7.24399L5.42278 7.24352C5.527 7.21454 5.62129 7.19462 5.70047 7.18908C5.74004 7.18632 5.78378 7.18655 5.82691 7.19485ZM5.53329 7.63443C5.43854 7.66265 5.36737 7.68975 5.31664 7.71455C5.29132 7.72693 5.27327 7.73771 5.2609 7.74638C5.24913 7.75468 5.245 7.75927 5.245 7.75927L5.24458 7.75979L5.24407 7.76035C5.23042 7.77653 5.20211 7.81999 5.15921 7.90583C5.11819 7.98778 5.06938 8.09707 5.01256 8.23504L5.01162 8.23729L5.01064 8.2395C4.88532 8.52436 4.74926 8.75169 4.59673 8.9042C4.3939 9.10706 4.06343 9.25901 3.64072 9.37734L3.63863 9.37795L3.63654 9.37847C3.4478 9.42704 3.30996 9.47148 3.21793 9.51091C3.17177 9.5307 3.14308 9.54673 3.12708 9.5578C3.12635 9.55831 3.12566 9.55883 3.12502 9.55925C3.09747 9.62053 3.06968 9.72104 3.04782 9.87163C3.02464 10.0313 3.00986 10.2344 3.00446 10.4828L3.00441 10.485L3.00431 10.4872C2.9935 10.7359 2.99589 10.9312 3.00977 11.0763C3.02107 11.1945 3.03864 11.2618 3.05183 11.2954C3.05707 11.297 3.06366 11.2988 3.07177 11.3008C3.12039 11.3125 3.19767 11.3215 3.30988 11.3242L3.31235 11.3242L3.31482 11.3243C3.42122 11.3294 3.49881 11.3243 3.55231 11.3136C3.60129 11.3038 3.61618 11.2921 3.61642 11.2921C3.6403 11.2681 3.65526 11.2498 3.66401 11.237C3.66785 11.2314 3.66985 11.2278 3.67072 11.2261C3.67829 11.1967 3.68953 11.162 3.70777 11.1292C3.72209 11.1034 3.75302 11.0565 3.80997 11.0268C4.05412 10.872 4.29399 10.7382 4.52957 10.626C5.08584 10.3508 5.57558 10.1967 5.99147 10.1845L6.0791 10.1819L7.72262 11.8254L7.40565 11.9271C7.13542 12.0138 6.80536 12.1517 6.41389 12.3433C6.41197 12.3473 6.40967 12.3523 6.40704 12.3585C6.39415 12.3897 6.37976 12.438 6.36607 12.5079C6.33873 12.6471 6.31862 12.8472 6.30779 13.1129L6.3077 13.1149L6.30756 13.117C6.29134 13.3821 6.29199 13.5842 6.30685 13.7279C6.31431 13.7997 6.32472 13.8511 6.33569 13.8858C6.34225 13.9067 6.34764 13.917 6.3497 13.9207C6.35411 13.9238 6.36579 13.9309 6.39031 13.9383C6.42359 13.9482 6.47263 13.9563 6.54127 13.9587C6.66293 13.9629 6.74427 13.9479 6.7965 13.9266C6.86031 13.8654 6.95862 13.7787 7.08802 13.6685L7.09594 13.6617L7.10452 13.6558C7.25098 13.5549 7.46974 13.457 7.74663 13.3591C8.02703 13.26 8.3803 13.1564 8.80477 13.0482L8.91682 13.0196L10.1194 14.2222L9.77136 14.3092C9.51641 14.373 9.18495 14.4778 8.7751 14.6254L8.7743 14.6256L8.7735 14.6259C8.56361 14.6995 8.40181 14.7616 8.28611 14.8123C8.22816 14.8377 8.18447 14.859 8.15329 14.8764C8.13515 14.8866 8.12441 14.8936 8.11888 14.8974C8.11611 14.9026 8.11105 14.913 8.10434 14.9307C8.09037 14.9674 8.07457 15.0211 8.05779 15.0947C8.02431 15.2415 7.99093 15.4495 7.95821 15.722L7.95798 15.724L7.95769 15.7259C7.91958 15.9982 7.90186 16.2006 7.90186 16.3379C7.90186 16.3963 7.90514 16.4367 7.90931 16.4627C7.98409 16.5052 8.09112 16.5409 8.23951 16.5621L8.24035 16.5622L8.24119 16.5623C8.35939 16.5802 8.43435 16.5794 8.47819 16.5733C8.49727 16.4951 8.52985 16.4046 8.59568 16.3387C8.62559 16.3088 8.65981 16.2874 8.69521 16.2727C8.92193 16.149 9.16437 16.0424 9.42217 15.9526C9.9949 15.7407 10.5852 15.6055 11.1925 15.5474C11.4879 14.8411 11.6466 14.4589 11.6715 14.3944L11.6718 14.3936L11.672 14.3929C11.7671 14.1512 11.8257 13.9706 11.8524 13.8464C11.8634 13.7955 11.8676 13.7604 11.8685 13.7379L5.72523 7.59462C5.68598 7.59776 5.62358 7.60944 5.53329 7.63443ZM11.8677 13.7142C11.8678 13.7141 11.868 13.7151 11.8682 13.7173C11.8678 13.7153 11.8677 13.7142 11.8677 13.7142ZM7.91583 16.4901C7.91573 16.4902 7.91522 16.489 7.91433 16.4861C7.91545 16.4885 7.91587 16.49 7.91583 16.4901ZM3.11746 9.56525C3.11744 9.56525 3.11774 9.56497 3.11844 9.56436C3.11783 9.56497 3.11748 9.56525 3.11746 9.56525Z" fill="#231F20"/>
<g filter="url(#filter0_d_6275_51)">
<circle cx="19.05" cy="21.05" r="6.05" fill="#FF5082"/>
</g>
<path d="M19.1705 21.1533L20.683 20.313L22.1955 19.4685L20.683 18.6289L19.1705 19.4685L17.658 18.6289L16.1455 19.4685L17.658 20.313L19.1705 21.1533Z" fill="white"/>
<path d="M20.683 20.9453L19.1705 21.7849L17.658 20.9453L16.1455 21.7849L17.658 22.6295L19.1705 23.469L20.683 22.6295L22.1955 21.7849L20.683 20.9453Z" fill="white"/>
<defs>
<filter id="filter0_d_6275_51" x="12.2" y="15" width="13.7001" height="13.6996" filterUnits="userSpaceOnUse" color-interpolation-filters="sRGB">
<feFlood flood-opacity="0" result="BackgroundImageFix"/>
<feColorMatrix in="SourceAlpha" type="matrix" values="0 0 0 0 0 0 0 0 0 0 0 0 0 0 0 0 0 0 127 0" result="hardAlpha"/>
<feOffset dy="0.8"/>
<feGaussianBlur stdDeviation="0.4"/>
<feComposite in2="hardAlpha" operator="out"/>
<feColorMatrix type="matrix" values="0 0 0 0 0 0 0 0 0 0 0 0 0 0 0 0 0 0 0.25 0"/>
<feBlend mode="normal" in2="BackgroundImageFix" result="effect1_dropShadow_6275_51"/>
<feBlend mode="normal" in="SourceGraphic" in2="effect1_dropShadow_6275_51" result="shape"/>
</filter>
</defs>
</svg>
