<svg width="23.28" height="23.28" viewBox="4 0 23.28 23.28" fill="none" xmlns="http://www.w3.org/2000/svg">
<g>
<circle cx="15.64" cy="11.64" r="11.64" fill="#6A70FA"/>
</g>
<path d="M21.1225 11.1642L15.7892 4.37646C15.7439 4.31851 15.6859 4.27164 15.6198 4.23941C15.5536 4.20718 15.481 4.19043 15.4074 4.19043C15.3338 4.19043 15.2612 4.20718 15.195 4.23941C15.1289 4.27164 15.0709 4.31851 15.0256 4.37646L9.69232 11.1642C9.62443 11.2483 9.5874 11.3531 9.5874 11.4612C9.5874 11.5693 9.62443 11.6741 9.69232 11.7582L15.0256 18.546C15.0709 18.6039 15.1289 18.6508 15.195 18.683C15.2612 18.7152 15.3338 18.732 15.4074 18.732C15.481 18.732 15.5536 18.7152 15.6198 18.683C15.6859 18.6508 15.7439 18.6039 15.7892 18.546L21.1225 11.7582C21.1904 11.6741 21.2274 11.5693 21.2274 11.4612C21.2274 11.3531 21.1904 11.2483 21.1225 11.1642ZM15.8922 6.0734L19.977 11.2733L15.8922 13.1339V6.0734ZM14.9226 13.1339L10.8378 11.2733L14.9226 6.0734V13.1339ZM14.9226 14.2006V16.849L11.6862 12.7279L14.9226 14.2006ZM15.8922 14.2006L19.1286 12.7279L15.8922 16.849V14.2006Z" fill="white"/>
</svg>
