<svg width="26" height="29" viewBox="0 0 26 29" fill="none" xmlns="http://www.w3.org/2000/svg">
<mask id="mask0_6220_417" style="mask-type:alpha" maskUnits="userSpaceOnUse" x="0" y="0" width="24" height="24">
<path d="M0 0H23.6364V24H0V0Z" fill="white"/>
</mask>
<g mask="url(#mask0_6220_417)">
<path fill-rule="evenodd" clip-rule="evenodd" d="M11.8182 0C18.3453 0 23.6364 5.37245 23.6364 12C23.6364 18.627 18.3453 24 11.8182 24C5.29105 24 0 18.627 0 12C0 5.37245 5.29105 0 11.8182 0Z" fill="#2775CA"/>
</g>
<path fill-rule="evenodd" clip-rule="evenodd" d="M9.6027 20.3433C9.6027 20.6255 9.385 20.7859 9.11614 20.7007C5.54288 19.5432 2.95215 16.1411 2.95215 12.1268C2.95215 8.11268 5.54288 4.7104 9.11614 3.55295C9.385 3.46827 9.6027 3.62809 9.6027 3.91036V4.60718C9.6027 4.79509 9.45927 5.01627 9.28293 5.07749C6.45584 6.13159 4.43063 8.88927 4.43063 12.122C4.43063 15.3548 6.45584 18.113 9.28293 19.1666C9.45927 19.2326 9.6027 19.4489 9.6027 19.6374V20.3433Z" fill="white"/>
<path fill-rule="evenodd" clip-rule="evenodd" d="M12.5554 17.7502C12.5554 17.9575 12.3886 18.1269 12.1847 18.1269H11.4477C11.2439 18.1269 11.0771 17.9575 11.0771 17.7502V16.5646C9.46414 16.3435 8.67649 15.4256 8.46322 14.1787C8.42602 13.9667 8.59282 13.7739 8.80608 13.7739H9.64961C9.82567 13.7739 9.97407 13.9011 10.0111 14.0796C10.1688 14.8232 10.5905 15.3926 11.8834 15.3926C12.8381 15.3926 13.515 14.8514 13.515 14.0424C13.515 13.2326 13.1162 12.9269 11.7166 12.6914C9.64961 12.4091 8.67179 11.7737 8.67179 10.1267C8.67179 8.85619 9.61738 7.8681 11.0818 7.65619V6.49382C11.0818 6.28669 11.2487 6.11719 11.4524 6.11719H12.1894C12.3933 6.11719 12.5601 6.28669 12.5601 6.49382V7.68919C13.7512 7.90601 14.5066 8.5926 14.7524 9.73137C14.7986 9.94819 14.6318 10.1501 14.4141 10.1501H13.6353C13.4685 10.1501 13.3295 10.0371 13.2786 9.87251C13.07 9.14814 12.5601 8.83764 11.6748 8.83764C10.697 8.83764 10.1918 9.31751 10.1918 9.99032C10.1918 10.7009 10.4793 11.0583 11.981 11.2799C14.0107 11.5622 15.0583 12.1503 15.0583 13.906C15.0583 15.2376 14.0849 16.3153 12.5601 16.5646V17.7502H12.5554Z" fill="white"/>
<path fill-rule="evenodd" clip-rule="evenodd" d="M14.5203 20.7C14.2517 20.7852 14.0337 20.6249 14.0337 20.3426V19.6463C14.0337 19.4392 14.1589 19.2464 14.3535 19.1755C17.1806 18.1214 19.2058 15.3637 19.2058 12.1309C19.2058 8.89815 17.1806 6.14047 14.3535 5.08638C14.1774 5.02038 14.0337 4.8041 14.0337 4.61551V3.91924C14.0337 3.63697 14.2517 3.47238 14.5203 3.56129C18.0935 4.71942 20.6842 8.12156 20.6842 12.1357C20.6798 16.1403 18.0935 19.5378 14.5203 20.7Z" fill="white"/>
<g filter="url(#filter0_d_6220_417)">
<circle cx="19.05" cy="21.05" r="6.05" fill="#FF5082"/>
</g>
<path d="M19.1705 21.1533L20.683 20.313L22.1955 19.4685L20.683 18.6289L19.1705 19.4685L17.658 18.6289L16.1455 19.4685L17.658 20.313L19.1705 21.1533Z" fill="white"/>
<path d="M20.683 20.9453L19.1705 21.7849L17.658 20.9453L16.1455 21.7849L17.658 22.6295L19.1705 23.469L20.683 22.6295L22.1955 21.7849L20.683 20.9453Z" fill="white"/>
<defs>
<filter id="filter0_d_6220_417" x="12.2" y="15" width="13.7001" height="13.6996" filterUnits="userSpaceOnUse" color-interpolation-filters="sRGB">
<feFlood flood-opacity="0" result="BackgroundImageFix"/>
<feColorMatrix in="SourceAlpha" type="matrix" values="0 0 0 0 0 0 0 0 0 0 0 0 0 0 0 0 0 0 127 0" result="hardAlpha"/>
<feOffset dy="0.8"/>
<feGaussianBlur stdDeviation="0.4"/>
<feComposite in2="hardAlpha" operator="out"/>
<feColorMatrix type="matrix" values="0 0 0 0 0 0 0 0 0 0 0 0 0 0 0 0 0 0 0.25 0"/>
<feBlend mode="normal" in2="BackgroundImageFix" result="effect1_dropShadow_6220_417"/>
<feBlend mode="normal" in="SourceGraphic" in2="effect1_dropShadow_6220_417" result="shape"/>
</filter>
</defs>
</svg>
