<svg width="24" height="24" viewBox="0 0 24 24" fill="none" xmlns="http://www.w3.org/2000/svg">
<path d="M12 24C18.6274 24 24 18.6274 24 12C24 5.37258 18.6274 0 12 0C5.37258 0 0 5.37258 0 12C0 18.6274 5.37258 24 12 24Z" fill="black"/>
<path d="M16.8577 4.72176C16.8561 4.71882 16.854 4.71616 16.8516 4.71387C16.8546 4.71869 16.8573 4.72395 16.8599 4.72833C16.8589 4.72623 16.8582 4.72403 16.8577 4.72176ZM18.0453 9.99923C18.0453 9.99923 18.0453 9.99923 18.0453 10.0014C18.0456 9.99924 18.0456 9.99702 18.0453 9.99484C18.0456 9.99553 18.0457 9.99628 18.0457 9.99704C18.0457 9.99779 18.0456 9.99854 18.0453 9.99923ZM18.079 10.1175C18.0805 10.1242 18.0824 10.1308 18.0847 10.1373C18.0825 10.1294 18.0803 10.1232 18.079 10.1175ZM18.8205 11.2955C18.8245 11.2875 18.828 11.2793 18.831 11.2709C18.8288 11.2797 18.8253 11.2876 18.8205 11.2955ZM17.618 12.5466C17.7121 12.5003 17.8033 12.4484 17.891 12.391C17.8029 12.4467 17.7122 12.4984 17.6189 12.5466H17.618Z" fill="url(#paint0_linear_6286_95)"/>
<g opacity="0.3">
<path d="M18.0454 9.9995C18.0454 9.9995 18.0454 9.9995 18.0454 10.0017C18.0458 9.99952 18.0458 9.99729 18.0454 9.99512C18.0457 9.9958 18.0459 9.99655 18.0459 9.99731C18.0459 9.99806 18.0457 9.99881 18.0454 9.9995Z" fill="black"/>
</g>
<g opacity="0.3">
<path d="M13.951 9.40388C13.9506 9.40487 13.9506 9.40596 13.951 9.40695V9.40388ZM13.951 9.40388C13.9506 9.40487 13.9506 9.40596 13.951 9.40695V9.40388ZM13.951 9.40388C13.9506 9.40487 13.9506 9.40596 13.951 9.40695V9.40388ZM15.1745 8.18958C15.1718 8.18125 15.1688 8.17293 15.1657 8.16504C15.1692 8.17337 15.1727 8.18125 15.1753 8.18914C15.178 8.19703 15.1784 8.19571 15.1793 8.19878C15.1779 8.1956 15.1763 8.19252 15.1745 8.18958ZM13.951 9.40388C13.9506 9.40487 13.9506 9.40596 13.951 9.40695V9.40388ZM13.951 9.40388C13.9506 9.40487 13.9506 9.40596 13.951 9.40695V9.40388ZM13.951 9.40388C13.9506 9.40487 13.9506 9.40596 13.951 9.40695V9.40388Z" fill="black"/>
</g>
<path d="M18.8323 11.2715C18.8293 11.2799 18.8258 11.2881 18.8218 11.296C18.8253 11.2877 18.8288 11.2798 18.8323 11.2715Z" fill="black"/>
<path d="M18.0792 10.1178C18.0806 10.1245 18.0825 10.1311 18.0849 10.1375C18.0826 10.1296 18.0805 10.1235 18.0792 10.1178ZM18.0454 9.99949C18.0454 9.99949 18.0454 9.99949 18.0454 10.0017C18.0458 9.99952 18.0458 9.99729 18.0454 9.99512C18.0457 9.9958 18.0459 9.99655 18.0459 9.99731C18.0459 9.99806 18.0457 9.99881 18.0454 9.9995V9.99949Z" fill="black"/>
<path d="M18.0469 9.99513C18.0473 9.9973 18.0473 9.99952 18.0469 10.0017C18.0469 10.0017 18.0469 10.0017 18.0469 9.9995C18.0472 9.99881 18.0474 9.99806 18.0474 9.99731C18.0474 9.99655 18.0472 9.9958 18.0469 9.99512V9.99513Z" fill="black"/>
<path d="M16.8599 4.72833C16.8573 4.72395 16.8546 4.71869 16.8516 4.71387C16.854 4.71616 16.8561 4.71882 16.8577 4.72175C16.8582 4.72403 16.8589 4.72623 16.8599 4.72833H16.8599Z" fill="black"/>
<path d="M13.951 9.4043C13.9506 9.40529 13.9506 9.40638 13.951 9.40737V9.4043Z" fill="black"/>
<path d="M18.0791 10.1182C18.0806 10.1248 18.0825 10.1314 18.0848 10.1379C18.0826 10.13 18.0804 10.1239 18.0791 10.1182Z" fill="black"/>
<path d="M18.8936 9.53531C18.8947 9.52992 18.8963 9.52464 18.8984 9.51953C18.8966 9.5261 18.8953 9.53005 18.8936 9.53531Z" fill="black"/>
<path d="M19.1182 9.71764C19.1183 9.74181 19.1168 9.76596 19.1138 9.78995C19.1138 9.79915 19.1116 9.80835 19.1099 9.81712C19.1076 9.86469 19.0911 9.91048 19.0625 9.94858C19.0452 9.96561 19.0224 9.97587 18.9981 9.9775C18.984 9.97835 18.9699 9.97621 18.9567 9.97123C18.9435 9.96625 18.9315 9.95853 18.9214 9.94858C18.8983 9.91967 18.8842 9.88464 18.8807 9.84779C18.8717 9.80453 18.8669 9.76051 18.8662 9.71633C18.8662 9.69354 18.8662 9.6725 18.8697 9.64884C18.8697 9.6392 18.8723 9.63044 18.8741 9.62079C18.8778 9.57963 18.8891 9.53951 18.9074 9.50248C18.9207 9.48096 18.9417 9.46528 18.9661 9.45861C18.9905 9.45194 19.0165 9.45478 19.0389 9.46654C19.0563 9.47552 19.0708 9.48937 19.0805 9.50642C19.0953 9.53805 19.1052 9.57174 19.1099 9.60633C19.1162 9.64308 19.119 9.68036 19.1182 9.71764H19.1182Z" fill="url(#paint1_linear_6286_95)"/>
<path d="M14.274 9.25268C14.2741 9.2863 14.2713 9.31987 14.2657 9.35303C14.2615 9.38605 14.2528 9.41833 14.2399 9.449C14.2326 9.46409 14.2226 9.47774 14.2105 9.48932C14.205 9.49488 14.199 9.49987 14.1925 9.50422C14.1793 9.51417 14.1645 9.52187 14.1487 9.527C14.126 9.53378 14.1021 9.53521 14.0787 9.53118C14.0554 9.52715 14.0333 9.51777 14.0142 9.50378C13.9825 9.47853 13.9605 9.44307 13.952 9.40343C13.9396 9.35413 13.9332 9.30351 13.9331 9.25268C13.9331 9.16503 13.9397 9.05767 14.0159 9.00202C14.0413 8.98316 14.072 8.97287 14.1036 8.97266C14.1361 8.97272 14.1677 8.98316 14.1938 9.00246C14.2258 9.02649 14.2478 9.06143 14.2556 9.10062C14.2612 9.12196 14.2654 9.14362 14.2683 9.16547C14.271 9.18125 14.2723 9.19659 14.2736 9.21192C14.2749 9.22726 14.2741 9.23909 14.2741 9.25268H14.274Z" fill="url(#paint2_linear_6286_95)"/>
<path d="M18.8877 9.09777C18.8872 9.28297 18.8336 9.46412 18.7331 9.61969C18.6971 9.67534 18.648 9.73099 18.5827 9.73888C18.5587 9.74093 18.5345 9.73772 18.5118 9.72947C18.4891 9.72122 18.4684 9.70813 18.4513 9.69111C18.4167 9.65898 18.3899 9.61942 18.3728 9.57543C18.3584 9.53686 18.3391 9.50137 18.3242 9.46324C18.3086 9.42337 18.2955 9.38253 18.2852 9.34098C18.2648 9.25782 18.2548 9.17244 18.2554 9.08681C18.2561 8.91502 18.3014 8.74637 18.3869 8.59732C18.4098 8.55379 18.4416 8.51557 18.4802 8.48514C18.4997 8.47018 18.5224 8.46007 18.5466 8.45565C18.5707 8.45123 18.5956 8.45263 18.6191 8.45972C18.6582 8.47802 18.6908 8.50784 18.7125 8.54517C18.8213 8.70256 18.8815 8.88847 18.8856 9.0798C18.8878 9.08593 18.8878 9.09163 18.8878 9.09777L18.8877 9.09777Z" fill="url(#paint3_linear_6286_95)"/>
<path d="M18.9908 10.8166C18.7638 10.8172 18.5443 10.7351 18.3733 10.5857C18.3129 10.5337 18.2596 10.474 18.2147 10.4082C18.2084 10.4001 18.2025 10.3916 18.1972 10.3828C18.1056 10.221 18.0439 10.0441 18.0149 9.86044C17.9381 9.46319 17.959 9.05324 18.0758 8.66586C18.0793 8.65403 18.0832 8.64263 18.0867 8.6308V8.62598C18.1343 8.47376 18.2194 8.33598 18.3343 8.22538C18.4492 8.11478 18.5901 8.03492 18.7441 7.99319C18.7511 7.99319 18.7581 7.98925 18.7651 7.98793L18.7905 7.9818L18.78 7.95857C18.7362 7.86655 18.6923 7.77671 18.6406 7.68863C18.6367 7.68065 18.6323 7.6729 18.6275 7.6654C18.6019 7.62902 18.5805 7.58993 18.5635 7.54884C18.5495 7.50501 18.542 7.4555 18.5271 7.4108C18.5273 7.40905 18.5273 7.40729 18.5271 7.40554C18.5179 7.36917 18.5079 7.3306 18.5022 7.29292C18.4846 7.1746 18.4636 7.05672 18.4399 6.94234C18.1647 5.60937 17.4819 4.39496 16.4859 3.46727C16.4206 3.40679 16.3545 3.3472 16.287 3.28979L16.2655 3.27051C16.2633 3.28015 16.262 3.28979 16.2607 3.29987C16.2374 3.45412 16.2169 3.60662 16.2015 3.76394C16.1862 3.92126 16.1792 4.07858 16.1765 4.23634C16.1765 4.27578 16.1765 4.31478 16.1765 4.35422C16.1766 4.84222 16.2308 5.3287 16.3382 5.80473C15.4432 5.5184 14.4766 5.55108 13.6029 5.89719C13.584 5.87616 13.5652 5.856 13.545 5.8354C13.5396 5.82844 13.5336 5.82199 13.5271 5.81612C13.2278 5.49412 12.8954 5.2046 12.5354 4.95239C12.1781 4.69949 11.7964 4.48295 11.396 4.30602C11.0453 4.15048 10.6815 4.02642 10.3088 3.93529H10.3066C10.2245 3.91513 10.142 3.89658 10.059 3.87963L10.0345 3.87525C10.0345 3.88314 10.031 3.89103 10.0296 3.89935C9.98582 4.09743 9.95427 4.29901 9.93104 4.50497C9.75236 6.04177 10.1235 7.5922 10.9788 8.88146C11.2238 9.24838 11.5039 9.5905 11.8154 9.90295C11.9102 10.2911 12.0624 10.663 12.2667 11.0064C12.7289 11.7844 13.4364 12.387 14.2782 12.7194C14.7278 12.8973 15.2061 12.9919 15.6897 12.9985C16.1801 13.0058 16.6678 12.9256 17.1301 12.7619C17.5293 12.6182 17.9189 12.4188 18.2309 12.1287C18.543 11.8292 18.7794 11.4599 18.9207 11.0511C18.9404 10.9967 18.9601 10.9415 18.9763 10.8859C18.9803 10.8723 18.9846 10.8583 18.9886 10.8442C18.9925 10.8302 18.9938 10.828 18.996 10.8193L18.9908 10.8166ZM12.3351 6.80606C12.1617 7.03496 12.0284 7.29159 11.9407 7.56505C11.9409 7.56622 11.9409 7.5674 11.9407 7.56856C11.917 7.63298 11.8969 7.70003 11.8759 7.76576C11.8496 7.8534 11.8259 7.94105 11.8057 8.02869C11.7622 8.22054 11.7329 8.41535 11.7181 8.61152C11.7032 8.58961 11.6892 8.5677 11.6743 8.54447C11.6673 8.53439 11.6611 8.52388 11.655 8.51336C11.5644 8.36729 11.4798 8.21771 11.4013 8.06462C11.396 8.05498 11.3912 8.04534 11.3864 8.0357C11.2594 7.78509 11.1486 7.52659 11.0546 7.26181C11.0511 7.2526 11.0485 7.24384 11.0454 7.23464C10.8046 6.54438 10.6819 5.81843 10.6826 5.08736C10.6826 5.05581 10.6826 5.02426 10.6826 4.99271C11.3646 5.25715 11.9972 5.63431 12.5542 6.10841C12.5542 6.10841 12.5542 6.10841 12.5564 6.10841C12.6094 6.15224 12.662 6.19913 12.7137 6.24645C12.7194 6.25171 12.726 6.25697 12.7321 6.26354C12.7536 6.28239 12.776 6.30211 12.7961 6.32226L12.8027 6.32796L12.7681 6.35513C12.7181 6.39501 12.6695 6.43664 12.623 6.48046L12.6015 6.49974C12.5919 6.50939 12.5823 6.51815 12.5731 6.52779C12.487 6.61459 12.4075 6.70759 12.3351 6.80606L12.3351 6.80606ZM15.2777 9.43932C15.2583 9.55234 15.2306 9.6638 15.1949 9.7728C15.191 9.78639 15.1866 9.79953 15.1813 9.81312C15.1162 9.99255 14.9978 10.1479 14.8422 10.2583C14.8347 10.264 14.8268 10.2693 14.8189 10.2746C14.7206 10.3409 14.6106 10.3879 14.4947 10.413L14.4583 10.42C14.4042 10.4298 14.3493 10.4346 14.2944 10.4345C14.2063 10.4344 14.1187 10.422 14.0341 10.3977L14.0091 10.3907C13.8464 10.3386 13.7007 10.2435 13.5875 10.1155C13.4403 9.94809 13.3715 9.73599 13.3268 9.52126C13.2435 9.1181 13.2422 8.65972 13.3807 8.26752C13.4436 8.07498 13.5608 7.9047 13.7181 7.77715L13.7387 7.76137C13.8999 7.64515 14.0935 7.58232 14.2922 7.5817C14.7475 7.5817 15.0836 7.89941 15.2125 8.31747C15.2304 8.37576 15.2453 8.43536 15.2563 8.49539C15.2936 8.66409 15.3133 8.83621 15.315 9.00898C15.3147 9.1533 15.3016 9.2973 15.276 9.43931L15.2777 9.43932ZM16.8816 11.1361C16.8747 11.1704 16.8595 11.2024 16.8374 11.2294C16.8152 11.2565 16.7868 11.2777 16.7545 11.2912C16.728 11.3028 16.6993 11.3086 16.6704 11.3083C16.6371 11.3084 16.6043 11.3008 16.5745 11.286C16.5447 11.2713 16.5187 11.2498 16.4986 11.2233C16.4697 11.1856 16.4542 11.1393 16.4548 11.0918C16.4535 11.0627 16.4581 11.0336 16.4684 11.0062C16.4786 10.9789 16.4943 10.9539 16.5145 10.9328C16.5346 10.9117 16.5589 10.8949 16.5857 10.8835C16.6125 10.872 16.6414 10.8661 16.6706 10.8661C16.6998 10.8661 16.7287 10.872 16.7555 10.8835C16.7824 10.8949 16.8066 10.9117 16.8268 10.9328C16.847 10.9539 16.8626 10.9789 16.8729 11.0062C16.8832 11.0336 16.8878 11.0627 16.8865 11.0918C16.8858 11.1068 16.8836 11.1216 16.8799 11.1361H16.8816ZM17.8185 6.65487C17.6831 6.53217 17.5393 6.41899 17.3882 6.31613C17.3061 6.25975 17.2217 6.20657 17.1349 6.15662C17.1349 6.13821 17.1319 6.12025 17.1305 6.10272C17.113 5.89938 17.0867 5.6978 17.0503 5.49973L17.0451 5.47081C17.0211 5.33876 16.9926 5.20846 16.9596 5.07991C16.9596 5.07027 16.9552 5.06063 16.9526 5.05143C16.9255 4.94319 16.8952 4.83626 16.8623 4.72978C16.8597 4.7254 16.8571 4.72014 16.854 4.71532C16.8565 4.71761 16.8585 4.72027 16.8602 4.7232C16.9554 4.84941 17.0457 4.97912 17.131 5.11234L17.1524 5.14609C17.2547 5.30647 17.3495 5.47139 17.4369 5.64083C17.4434 5.65311 17.4496 5.66581 17.4557 5.67808C17.6248 6.00846 17.765 6.35287 17.8746 6.70746C17.8567 6.68861 17.8361 6.67152 17.8168 6.65487L17.8185 6.65487Z" fill="url(#paint4_linear_6286_95)"/>
<path d="M18.8939 9.53491C18.8951 9.52952 18.8967 9.52424 18.8988 9.51914C18.897 9.52571 18.8957 9.52965 18.8939 9.53491ZM18.8939 9.53491C18.8951 9.52952 18.8967 9.52424 18.8988 9.51914C18.897 9.52571 18.8957 9.52965 18.8939 9.53491ZM18.8939 9.53491C18.8951 9.52952 18.8967 9.52424 18.8988 9.51914C18.897 9.52571 18.8957 9.52965 18.8939 9.53491ZM18.8939 9.53491C18.8951 9.52952 18.8967 9.52424 18.8988 9.51914C18.897 9.52571 18.8957 9.52965 18.8939 9.53491ZM18.8939 9.53491C18.8951 9.52952 18.8967 9.52424 18.8988 9.51914C18.897 9.52571 18.8957 9.52965 18.8939 9.53491ZM18.8939 9.53491C18.8951 9.52952 18.8967 9.52424 18.8988 9.51914C18.897 9.52571 18.8957 9.52965 18.8939 9.53491ZM18.8939 9.53491C18.8951 9.52952 18.8967 9.52424 18.8988 9.51914C18.897 9.52571 18.8957 9.52965 18.8939 9.53491ZM18.8939 9.53491C18.8951 9.52952 18.8967 9.52424 18.8988 9.51914C18.897 9.52571 18.8957 9.52965 18.8939 9.53491ZM18.8939 9.53491C18.8951 9.52952 18.8967 9.52424 18.8988 9.51914C18.897 9.52571 18.8957 9.52965 18.8939 9.53491ZM18.8939 9.53491C18.8951 9.52952 18.8967 9.52424 18.8988 9.51914C18.897 9.52571 18.8957 9.52965 18.8939 9.53491ZM18.8939 9.53491C18.8951 9.52952 18.8967 9.52424 18.8988 9.51914C18.897 9.52571 18.8957 9.52965 18.8939 9.53491ZM18.8939 9.53491C18.8951 9.52952 18.8967 9.52424 18.8988 9.51914C18.897 9.52571 18.8957 9.52965 18.8939 9.53491ZM18.8939 9.53491C18.8951 9.52952 18.8967 9.52424 18.8988 9.51914C18.897 9.52571 18.8957 9.52965 18.8939 9.53491ZM18.8939 9.53491C18.8951 9.52952 18.8967 9.52424 18.8988 9.51914C18.897 9.52571 18.8957 9.52965 18.8939 9.53491ZM18.8939 9.53491C18.8951 9.52952 18.8967 9.52424 18.8988 9.51914C18.897 9.52571 18.8957 9.52965 18.8939 9.53491ZM18.8939 9.53491C18.8951 9.52952 18.8967 9.52424 18.8988 9.51914C18.897 9.52571 18.8957 9.52965 18.8939 9.53491ZM18.8939 9.53491C18.8951 9.52952 18.8967 9.52424 18.8988 9.51914C18.897 9.52571 18.8957 9.52965 18.8939 9.53491ZM18.8939 9.53491C18.8951 9.52952 18.8967 9.52424 18.8988 9.51914C18.897 9.52571 18.8957 9.52965 18.8939 9.53491ZM18.8939 9.53491C18.8951 9.52952 18.8967 9.52424 18.8988 9.51914C18.897 9.52571 18.8957 9.52965 18.8939 9.53491ZM18.8939 9.53491C18.8951 9.52952 18.8967 9.52424 18.8988 9.51914C18.897 9.52571 18.8957 9.52965 18.8939 9.53491ZM18.8939 9.53491C18.8951 9.52952 18.8967 9.52424 18.8988 9.51914C18.897 9.52571 18.8957 9.52965 18.8939 9.53491ZM17.6192 12.5464C17.7132 12.5001 17.8044 12.4481 17.8922 12.3908C17.8032 12.4464 17.7125 12.4981 17.6192 12.5464ZM18.8208 11.2952C18.8248 11.2873 18.8283 11.2791 18.8313 11.2707C18.8291 11.2795 18.8256 11.2873 18.8208 11.2952ZM18.8931 9.53491C18.8942 9.52952 18.8958 9.52424 18.8979 9.51914C18.897 9.52571 18.8957 9.52965 18.8939 9.53491H18.8931ZM18.8931 9.53491C18.8942 9.52952 18.8958 9.52424 18.8979 9.51914C18.897 9.52571 18.8957 9.52965 18.8939 9.53491H18.8931ZM18.8931 9.53491C18.8942 9.52952 18.8958 9.52424 18.8979 9.51914C18.897 9.52571 18.8957 9.52965 18.8939 9.53491H18.8931ZM18.8931 9.53491C18.8942 9.52952 18.8958 9.52424 18.8979 9.51914C18.897 9.52571 18.8957 9.52965 18.8939 9.53491H18.8931ZM18.8931 9.53491C18.8942 9.52952 18.8958 9.52424 18.8979 9.51914C18.897 9.52571 18.8957 9.52965 18.8939 9.53491H18.8931ZM18.8931 9.53491C18.8942 9.52952 18.8958 9.52424 18.8979 9.51914C18.897 9.52571 18.8957 9.52965 18.8939 9.53491H18.8931ZM18.8931 9.53491C18.8942 9.52952 18.8958 9.52424 18.8979 9.51914C18.897 9.52571 18.8957 9.52965 18.8939 9.53491H18.8931ZM18.8931 9.53491C18.8942 9.52952 18.8958 9.52424 18.8979 9.51914C18.897 9.52571 18.8957 9.52965 18.8939 9.53491H18.8931ZM18.8931 9.53491C18.8942 9.52952 18.8958 9.52424 18.8979 9.51914C18.897 9.52571 18.8957 9.52965 18.8939 9.53491H18.8931ZM18.8931 9.53491C18.8942 9.52952 18.8958 9.52424 18.8979 9.51914C18.897 9.52571 18.8957 9.52965 18.8939 9.53491H18.8931ZM18.8931 9.53491C18.8942 9.52952 18.8958 9.52424 18.8979 9.51914C18.897 9.52571 18.8957 9.52965 18.8939 9.53491H18.8931ZM15.166 8.16504C15.1695 8.17337 15.173 8.18125 15.1757 8.18914C15.1722 8.18125 15.1691 8.17118 15.166 8.16504ZM18.8939 9.53491C18.8951 9.52952 18.8967 9.52424 18.8988 9.51914C18.897 9.52571 18.8957 9.52965 18.8939 9.53491ZM18.8939 9.53491C18.8951 9.52952 18.8967 9.52424 18.8988 9.51914C18.897 9.52571 18.8957 9.52965 18.8939 9.53491ZM18.8939 9.53491C18.8951 9.52952 18.8967 9.52424 18.8988 9.51914C18.897 9.52571 18.8957 9.52965 18.8939 9.53491ZM18.8939 9.53491C18.8951 9.52952 18.8967 9.52424 18.8988 9.51914C18.897 9.52571 18.8957 9.52965 18.8939 9.53491ZM18.8939 9.53491C18.8951 9.52952 18.8967 9.52424 18.8988 9.51914C18.897 9.52571 18.8957 9.52965 18.8939 9.53491ZM18.8939 9.53491C18.8951 9.52952 18.8967 9.52424 18.8988 9.51914C18.897 9.52571 18.8957 9.52965 18.8939 9.53491ZM18.8939 9.53491C18.8951 9.52952 18.8967 9.52424 18.8988 9.51914C18.897 9.52571 18.8957 9.52965 18.8939 9.53491ZM18.8939 9.53491C18.8951 9.52952 18.8967 9.52424 18.8988 9.51914C18.897 9.52571 18.8957 9.52965 18.8939 9.53491ZM18.8939 9.53491C18.8951 9.52952 18.8967 9.52424 18.8988 9.51914C18.897 9.52571 18.8957 9.52965 18.8939 9.53491ZM18.8939 9.53491C18.8951 9.52952 18.8967 9.52424 18.8988 9.51914C18.897 9.52571 18.8957 9.52965 18.8939 9.53491Z" fill="#FF1D25"/>
<path d="M15.0821 8.62594C15.082 8.75242 15.0565 8.87759 15.0071 8.99404C14.9633 9.10097 14.902 9.22454 14.8069 9.2951C14.7863 9.31058 14.7634 9.32258 14.7389 9.33059C14.6891 9.34834 14.6346 9.34834 14.5847 9.33059C14.4817 9.29159 14.4177 9.19518 14.3656 9.10184C14.3042 8.99141 14.2642 8.87039 14.2477 8.74513C14.2462 8.73614 14.2452 8.72707 14.2446 8.71796C14.2416 8.68738 14.2401 8.65667 14.2402 8.62594C14.2401 8.60077 14.2413 8.57561 14.2438 8.55056C14.2438 8.5418 14.2438 8.53391 14.2438 8.52602C14.2581 8.38143 14.305 8.24196 14.3809 8.11804C14.4401 8.01681 14.5444 7.90507 14.6715 7.90726C14.8099 7.90989 14.9028 8.04661 14.9594 8.1566C15.0275 8.28602 15.0676 8.4283 15.0772 8.57423V8.5773C15.0812 8.59351 15.0821 8.60972 15.0821 8.62594H15.0821Z" fill="url(#paint5_linear_6286_95)"/>
<path d="M18.7331 13.4917C18.7309 13.5074 18.7249 13.5223 18.7157 13.5352C18.7066 13.5481 18.6944 13.5587 18.6804 13.5659C18.6663 13.5732 18.6507 13.5769 18.6348 13.5769C18.619 13.5769 18.6034 13.5731 18.5893 13.5658C18.582 13.5626 18.5754 13.5581 18.5696 13.5526C18.5661 13.5499 18.5628 13.5468 18.56 13.5434C18.5569 13.5403 18.5551 13.5368 18.5521 13.5342C18.5474 13.5299 18.5419 13.5266 18.5358 13.5246C18.5298 13.5227 18.5233 13.5221 18.517 13.5228C18.5113 13.5238 18.5057 13.5258 18.5008 13.529C18.4917 13.5349 18.4852 13.5439 18.4824 13.5544C18.4824 13.5544 18.4824 13.5566 18.4824 13.5579C18.4809 13.5641 18.4809 13.5705 18.4824 13.5767C18.4844 13.5796 18.4862 13.5827 18.4877 13.5859C18.4916 13.597 18.4928 13.6089 18.4912 13.6205C18.4896 13.6348 18.4833 13.648 18.4732 13.6582C18.4633 13.6678 18.4508 13.6741 18.4373 13.6765C18.4238 13.6788 18.4099 13.677 18.3974 13.6714C18.3888 13.6669 18.3812 13.6607 18.3751 13.6531C18.369 13.6456 18.3645 13.6369 18.3619 13.6276V13.6227C18.3594 13.616 18.3554 13.6099 18.35 13.6051C18.3447 13.6003 18.3382 13.5969 18.3312 13.5951C18.3203 13.5942 18.3092 13.5956 18.2988 13.5991L18.262 13.6087C18.2133 13.6219 18.166 13.6354 18.1182 13.6499L18.0849 13.66C17.8593 13.7309 17.6405 13.8218 17.4311 13.9317C16.6693 14.3291 16.0533 14.9583 15.6721 15.7284C15.6559 15.7608 15.6406 15.7932 15.6252 15.8257C15.5406 16.0093 15.4613 16.1946 15.4613 16.4002C15.4611 16.5035 15.4781 16.6061 15.5117 16.7038C15.5143 16.7122 15.5179 16.7214 15.5209 16.7297C15.524 16.738 15.5244 16.7372 15.5257 16.7411C15.5278 16.7487 15.531 16.756 15.5354 16.7626C15.5394 16.7683 15.5448 16.7728 15.5512 16.7757C15.5554 16.7779 15.56 16.7793 15.5647 16.7797H15.5682C15.5775 16.7797 15.5864 16.7766 15.5937 16.7709C15.5961 16.7682 15.5989 16.7659 15.602 16.7639L15.6112 16.7582C15.6179 16.7545 15.6252 16.7519 15.6327 16.7503C15.641 16.7478 15.6498 16.7466 15.6585 16.7468C15.6849 16.7468 15.7103 16.7573 15.729 16.7759C15.7477 16.7945 15.7583 16.8198 15.7584 16.8463C15.7584 16.8627 15.7544 16.8788 15.7468 16.8933C15.7392 16.9078 15.7281 16.9202 15.7146 16.9295C15.7034 16.9376 15.6903 16.9428 15.6765 16.9444C15.6706 16.9448 15.6649 16.9465 15.6597 16.9494C15.6546 16.9523 15.6501 16.9563 15.6467 16.9611C15.6427 16.9661 15.6399 16.9719 15.6384 16.9782C15.6372 16.9857 15.638 16.9935 15.6408 17.0007C15.6436 17.0078 15.6482 17.0141 15.6541 17.0189C15.6575 17.0219 15.6616 17.024 15.666 17.0251C15.67 17.0266 15.6743 17.0275 15.6787 17.0277C15.6829 17.0279 15.6872 17.0279 15.6914 17.0277H15.7041C15.7126 17.0283 15.7209 17.0298 15.7291 17.0321C15.7414 17.0361 15.7529 17.0422 15.7633 17.05C15.7733 17.0584 15.7817 17.0687 15.7878 17.0803C15.7943 17.0919 15.7984 17.1047 15.7996 17.118C15.8009 17.1274 15.8009 17.137 15.7996 17.1464C15.7975 17.1574 15.7937 17.1679 15.7882 17.1776C15.7866 17.1811 15.7843 17.1843 15.7817 17.1872C15.7724 17.1997 15.7604 17.2098 15.7466 17.2168C15.7327 17.2238 15.7174 17.2275 15.7019 17.2275C15.6952 17.2284 15.6884 17.2284 15.6817 17.2275C15.6771 17.2268 15.6725 17.2255 15.6682 17.2236C15.66 17.2208 15.6522 17.2171 15.6449 17.2126C15.6399 17.209 15.6353 17.2047 15.6314 17.1999C15.6264 17.1954 15.6204 17.1921 15.614 17.1903C15.6075 17.1885 15.6007 17.1882 15.5941 17.1894C15.5872 17.191 15.5808 17.1942 15.5753 17.1986C15.5711 17.2018 15.5676 17.2058 15.5652 17.2104C15.564 17.2131 15.5629 17.2159 15.5621 17.2188C15.5605 17.2252 15.5603 17.232 15.5617 17.2385C15.5631 17.245 15.5659 17.2512 15.57 17.2564L15.5775 17.2634L15.5849 17.2731C15.5896 17.2801 15.5936 17.2876 15.5967 17.2954C15.6006 17.3066 15.6025 17.3183 15.6024 17.3301C15.6025 17.3432 15.6 17.3562 15.595 17.3683C15.59 17.3805 15.5827 17.3915 15.5735 17.4008C15.5642 17.4102 15.5533 17.4176 15.5412 17.4226C15.5291 17.4277 15.5161 17.4304 15.503 17.4304C15.4894 17.4303 15.476 17.4275 15.4635 17.4221C15.4514 17.417 15.4405 17.4094 15.4315 17.3997C15.4222 17.3903 15.4149 17.3791 15.4101 17.3669C15.4052 17.3552 15.4027 17.3427 15.4026 17.3301C15.4024 17.3274 15.4024 17.3248 15.4026 17.3222C15.4028 17.3191 15.4028 17.316 15.4026 17.313C15.4022 17.307 15.4006 17.3011 15.3979 17.2957C15.3952 17.2904 15.3914 17.2856 15.3867 17.2818C15.3821 17.278 15.3767 17.2752 15.3709 17.2735C15.3651 17.2719 15.359 17.2714 15.3531 17.2722C15.3489 17.2732 15.3449 17.2749 15.3413 17.277C15.3353 17.2802 15.3302 17.2847 15.3264 17.2902C15.3243 17.2938 15.3227 17.2976 15.3215 17.3016C15.3208 17.311 15.3188 17.3203 15.3154 17.3292C15.3133 17.336 15.3095 17.3421 15.3044 17.3471C15.3001 17.3526 15.2949 17.3573 15.2891 17.3612C15.2828 17.3651 15.2758 17.3677 15.2685 17.3691C15.2575 17.3721 15.2458 17.3721 15.2348 17.3691C15.2211 17.3649 15.2091 17.3565 15.2006 17.3451C15.1921 17.3336 15.1875 17.3198 15.1874 17.3055C15.1874 17.2972 15.1901 17.2897 15.1896 17.281C15.1887 17.2745 15.1863 17.2684 15.1826 17.263C15.1763 17.2541 15.167 17.2479 15.1563 17.2455C15.1406 17.2415 15.1248 17.2376 15.1094 17.2323C15.0875 17.2258 15.0656 17.2188 15.0446 17.2104C14.844 17.1333 14.6746 16.992 14.5625 16.8086C14.5533 16.7937 14.5446 16.7779 14.5367 16.7626C14.5288 16.7472 14.52 16.731 14.5122 16.7148C14.5086 16.7065 14.5043 16.6986 14.5008 16.6898L14.4916 16.6653C14.4898 16.662 14.4884 16.6587 14.4872 16.6552C14.4858 16.6527 14.4846 16.65 14.4837 16.6473C14.4106 16.4784 14.2897 16.3345 14.136 16.2332C13.9822 16.132 13.8023 16.078 13.6182 16.0776C13.4179 16.0776 13.2365 16.1512 13.0568 16.2323C12.5941 16.4408 12.1751 16.7351 11.8219 17.0996C11.5004 17.4288 11.2371 17.8102 11.0432 18.2275C10.9633 18.4068 10.895 18.5911 10.839 18.7792C10.6896 19.2613 10.4415 19.6916 10.0577 20.0255C9.96336 20.1077 9.86302 20.1827 9.75748 20.2499C9.74258 20.2596 9.72724 20.2683 9.71366 20.278L9.66984 20.3042C9.54377 20.3768 9.41184 20.4387 9.27544 20.4892C9.23468 20.5045 9.19349 20.5185 9.15142 20.533L9.09928 20.5497C8.76809 20.6489 8.42615 20.7077 8.08085 20.7249C7.84835 20.7377 7.61517 20.728 7.38452 20.696C7.06766 20.6568 6.75683 20.5788 6.45901 20.4638C6.28965 20.3959 6.12804 20.3101 5.97697 20.2078C5.95418 20.1921 5.93314 20.1763 5.90904 20.1596C5.80317 20.0812 5.703 19.9954 5.60928 19.9028C5.50239 19.7947 5.40517 19.6774 5.31874 19.5523C5.31042 19.5409 5.30253 19.5295 5.29508 19.5177C5.0985 19.2228 4.9669 18.8896 4.90901 18.54C4.90638 18.5229 4.90331 18.5058 4.90069 18.4887C4.89587 18.4594 4.89148 18.4291 4.88929 18.3989C4.88417 18.3484 4.88168 18.2976 4.88184 18.2468C4.88192 18.1598 4.8891 18.0728 4.90332 17.987C4.96961 17.5986 5.18032 17.2497 5.49316 17.0102L5.51595 16.9931C5.5543 16.9645 5.59408 16.9379 5.63514 16.9133C5.64391 16.9076 5.65311 16.9019 5.66187 16.8971C5.77279 16.8328 5.89129 16.7826 6.01464 16.7477C6.04751 16.7385 6.0795 16.7301 6.11236 16.7231C6.14568 16.7153 6.17951 16.7099 6.21359 16.7069C6.24558 16.7038 6.27713 16.7021 6.30912 16.7021C6.35103 16.7019 6.3929 16.7045 6.43445 16.71L6.45724 16.7131C6.49368 16.7188 6.5298 16.7264 6.56548 16.7358L6.61807 16.7521L6.6689 16.7709L6.70659 16.7871C6.8903 16.871 7.04342 17.0099 7.14481 17.1846C7.14963 17.1925 7.15445 17.2008 7.15883 17.2096C7.17066 17.2319 7.18249 17.2534 7.19301 17.2779C7.20353 17.3025 7.21273 17.3257 7.22149 17.3502C7.23026 17.3748 7.23771 17.3997 7.24428 17.4252C7.25086 17.4506 7.25699 17.4764 7.26137 17.5023C7.26357 17.5137 7.26532 17.5251 7.26707 17.5373C7.26882 17.5496 7.26707 17.5588 7.27058 17.5698C7.27411 17.6033 7.27587 17.6369 7.27583 17.6706C7.27583 17.6863 7.27583 17.703 7.27583 17.7192C7.26269 18.1473 7.5896 18.5387 7.9989 18.6364C8.15939 18.6728 8.32655 18.6675 8.48438 18.6208C8.64221 18.5742 8.78543 18.4878 8.90031 18.37C8.99015 18.2801 9.04975 18.1679 9.12205 18.0632C9.42409 17.6335 9.77513 17.2404 10.1681 16.8918C10.3704 16.7119 10.5838 16.5448 10.807 16.3914C11.056 16.2228 11.315 16.0696 11.5827 15.9326C11.6265 15.9116 11.6681 15.8888 11.711 15.8704C11.7334 15.859 11.7549 15.8484 11.7785 15.8388C11.8022 15.8292 11.8105 15.8235 11.8267 15.8165L11.846 15.8077L11.8692 15.7976L11.9372 15.7674C11.96 15.7586 11.981 15.749 12.0055 15.7385C11.9536 15.7193 11.9 15.7047 11.8456 15.6946C11.6361 15.6567 11.4199 15.6905 11.2321 15.7906C11.0788 15.88 10.9051 15.9286 10.7277 15.9317C10.6344 15.9317 10.5415 15.9183 10.452 15.8918L10.4152 15.88C10.4052 15.8756 10.3942 15.8735 10.3832 15.8739C10.3747 15.8752 10.3668 15.8793 10.3609 15.8857C10.3566 15.8907 10.3531 15.8963 10.3504 15.9023C10.3472 15.9089 10.3429 15.9148 10.3377 15.9199C10.334 15.9236 10.3297 15.9267 10.325 15.9291C10.3167 15.9338 10.3076 15.9368 10.2982 15.9379C10.2888 15.9389 10.2792 15.938 10.2702 15.9352C10.2602 15.9322 10.2512 15.9268 10.2439 15.9194C10.233 15.9093 10.2262 15.8956 10.2246 15.8809C10.2231 15.8683 10.2252 15.8555 10.2307 15.8441C10.2307 15.8441 10.2334 15.8392 10.2351 15.8349C10.2373 15.8291 10.2381 15.823 10.2375 15.8169C10.2368 15.8108 10.2349 15.805 10.2316 15.7998C10.228 15.7941 10.223 15.7893 10.2172 15.7858C10.2071 15.7799 10.1952 15.778 10.1839 15.7805C10.1781 15.782 10.1728 15.7848 10.1685 15.7888C10.1628 15.7919 10.1611 15.7976 10.1576 15.8029C10.1549 15.8061 10.1519 15.8092 10.1488 15.8121C10.1428 15.8182 10.1358 15.8234 10.1282 15.8274C10.1093 15.8386 10.0871 15.8432 10.0653 15.8404C10.0435 15.8376 10.0232 15.8276 10.0077 15.8121C9.98899 15.7933 9.97849 15.7678 9.97849 15.7413C9.97849 15.7148 9.98899 15.6893 10.0077 15.6705C10.0175 15.6609 10.0291 15.6533 10.0419 15.6482C10.0516 15.6446 10.0618 15.6426 10.0721 15.642C10.083 15.6419 10.0935 15.6377 10.1015 15.6302C10.1069 15.6245 10.1106 15.6173 10.1123 15.6096C10.114 15.6019 10.1136 15.5939 10.1111 15.5864C10.1086 15.5781 10.1033 15.5708 10.0962 15.5658C10.0906 15.5609 10.0835 15.5581 10.0761 15.5579C10.0677 15.5579 10.0594 15.5579 10.0511 15.5579C10.0427 15.5567 10.0344 15.5545 10.0265 15.5513C10.0109 15.5448 9.99718 15.5344 9.98674 15.521C9.9763 15.5077 9.96948 15.4918 9.96694 15.4751C9.96443 15.4541 9.96777 15.4329 9.97658 15.4137C9.98677 15.3944 10.0031 15.379 10.023 15.3699C10.0377 15.3635 10.0537 15.3605 10.0698 15.3613C10.0858 15.362 10.1015 15.3665 10.1155 15.3743L10.13 15.3835C10.1374 15.3896 10.1418 15.398 10.1492 15.4037C10.1562 15.4092 10.1649 15.4121 10.1738 15.412C10.1838 15.4115 10.1933 15.4077 10.2008 15.4011C10.2083 15.3944 10.2133 15.3855 10.215 15.3756C10.2158 15.3704 10.2155 15.3651 10.2142 15.36C10.213 15.3548 10.2107 15.35 10.2075 15.3458L10.2036 15.341C10.1937 15.3308 10.1866 15.3183 10.183 15.3046C10.1761 15.2833 10.1765 15.2602 10.1844 15.2392C10.1922 15.2182 10.2069 15.2004 10.2261 15.1888C10.2452 15.1772 10.2678 15.1724 10.29 15.1752C10.3123 15.178 10.3329 15.1883 10.3486 15.2043C10.3518 15.2073 10.3546 15.2107 10.357 15.2143C10.3629 15.2217 10.3676 15.23 10.371 15.2389C10.3738 15.2494 10.3779 15.2596 10.3832 15.2691C10.3893 15.2775 10.3984 15.2832 10.4087 15.2849C10.4191 15.2863 10.4296 15.284 10.4385 15.2783L10.4823 15.2516C10.502 15.238 10.5217 15.2235 10.5406 15.2078C10.5807 15.1769 10.618 15.1425 10.6519 15.1048C10.763 14.9651 10.85 14.8078 10.9091 14.6394C11.0507 14.2787 11.1408 13.8999 11.1769 13.5141C11.1795 13.4891 11.1812 13.4637 11.183 13.4382C11.1883 13.344 11.1935 13.2498 11.1935 13.1552V13.1508C11.1943 12.6622 11.1059 12.1777 10.9328 11.7209C10.9021 11.6389 10.8679 11.5583 10.8311 11.4781C10.8254 11.4645 10.8184 11.4514 10.8123 11.4373C10.8091 11.4289 10.8038 11.4213 10.7969 11.4154C10.7898 11.4102 10.7812 11.4075 10.7724 11.4075C10.7676 11.4075 10.7628 11.4084 10.7584 11.4102C10.7534 11.4125 10.7482 11.4145 10.743 11.4163C10.7371 11.4181 10.7309 11.419 10.7246 11.4189H10.7137C10.7027 11.4173 10.6923 11.4125 10.6839 11.4053C10.6769 11.4001 10.6711 11.3935 10.6668 11.3859C10.6624 11.3783 10.6596 11.37 10.6586 11.3613C10.6575 11.3526 10.6582 11.3439 10.6606 11.3355C10.663 11.3271 10.667 11.3192 10.6725 11.3124C10.6773 11.3062 10.6833 11.3008 10.69 11.2967L10.7014 11.291C10.7053 11.2901 10.7092 11.2888 10.7128 11.287C10.7199 11.284 10.7259 11.2787 10.7299 11.2721C10.7337 11.2655 10.7357 11.2579 10.7357 11.2502C10.7357 11.2425 10.7337 11.235 10.7299 11.2283C10.7249 11.2196 10.7167 11.2131 10.7071 11.2103C10.7036 11.2089 10.6999 11.2082 10.6961 11.2081C10.69 11.2081 10.6843 11.2081 10.6782 11.2081H10.6615C10.6505 11.2056 10.6398 11.2015 10.63 11.1959C10.6268 11.194 10.6239 11.1918 10.6212 11.1893C10.606 11.1783 10.5944 11.1631 10.5879 11.1455C10.584 11.1342 10.5821 11.1223 10.5822 11.1104C10.5823 11.0888 10.5892 11.0678 10.6019 11.0504C10.6071 11.0435 10.6131 11.0373 10.6199 11.032C10.6375 11.018 10.6592 11.0105 10.6817 11.0105C10.705 11.0105 10.7276 11.0186 10.7457 11.0333C10.7513 11.0393 10.7573 11.045 10.7636 11.0504C10.7704 11.0552 10.7785 11.0578 10.7868 11.0578C10.7929 11.0579 10.7989 11.0565 10.8044 11.0539L10.8096 11.0508C10.8129 11.0487 10.8158 11.0462 10.8184 11.0434C10.8236 11.0375 10.8271 11.0302 10.8283 11.0225C10.8296 11.0147 10.8285 11.0068 10.8254 10.9995C10.8232 10.9946 10.8202 10.99 10.8166 10.986C10.8132 10.9826 10.8103 10.9787 10.8079 10.9746C10.8048 10.9705 10.8023 10.9661 10.8004 10.9614C10.7984 10.9576 10.7968 10.9537 10.7956 10.9496C10.7928 10.9399 10.7913 10.9299 10.7912 10.9198C10.7912 10.9067 10.7937 10.8937 10.7987 10.8816C10.8037 10.8694 10.8111 10.8584 10.8204 10.8492C10.8297 10.8399 10.8407 10.8326 10.8529 10.8276C10.865 10.8227 10.878 10.8202 10.8911 10.8203C10.9134 10.8202 10.935 10.8276 10.9526 10.8413C10.9701 10.855 10.9826 10.8741 10.988 10.8957C10.9913 10.9101 10.9913 10.9251 10.988 10.9395C10.9878 10.9423 10.9878 10.9451 10.988 10.9478C10.9874 10.9536 10.988 10.9595 10.9898 10.965C10.9916 10.9706 10.9946 10.9757 10.9985 10.98C11.0024 10.9843 11.0072 10.9878 11.0125 10.9901C11.0178 10.9925 11.0236 10.9937 11.0294 10.9937C11.0352 10.9937 11.041 10.9925 11.0463 10.9901C11.0516 10.9878 11.0564 10.9843 11.0603 10.98C11.0642 10.9757 11.0672 10.9706 11.069 10.965C11.0708 10.9595 11.0714 10.9536 11.0708 10.9478V10.943C11.0706 10.9294 11.0731 10.9158 11.0783 10.9031C11.0867 10.8851 11.1003 10.8698 11.1173 10.8593C11.1248 10.8543 11.1331 10.8505 11.1418 10.8479C11.1511 10.8452 11.1607 10.8439 11.1703 10.844C11.1843 10.8438 11.1981 10.8469 11.2106 10.8532C11.2239 10.8586 11.2356 10.8672 11.2448 10.8782C11.2566 10.8919 11.2649 10.9083 11.2689 10.9259C11.2711 10.9406 11.2702 10.9555 11.2663 10.9698C11.2628 10.9838 11.2522 10.9965 11.2531 11.0109C11.2539 11.0172 11.2558 11.0233 11.2588 11.0289C11.2689 11.0473 11.2869 11.0495 11.3053 11.0548L11.3329 11.0631C11.3561 11.0701 11.3789 11.0776 11.4021 11.0854C11.435 11.0964 11.4674 11.1078 11.5016 11.1209C11.653 11.1797 11.7983 11.253 11.9354 11.34C11.9657 11.3585 11.9946 11.3777 12.0231 11.3979C12.0726 11.4321 12.1208 11.4676 12.1677 11.5053C12.2277 11.553 12.286 11.6039 12.343 11.6573C12.4946 11.8024 12.6199 11.9715 12.7672 12.1205C12.9143 12.2699 13.073 12.4075 13.2417 12.532C13.2759 12.557 13.3097 12.5811 13.3443 12.6052C13.3519 12.6111 13.3598 12.6167 13.368 12.6218C13.7239 12.8653 14.1168 13.0499 14.5314 13.1683C14.7903 13.2453 15.0569 13.2933 15.3264 13.3112C15.4304 13.319 15.5345 13.323 15.6388 13.323C15.8265 13.3231 16.0139 13.3101 16.1997 13.284C16.4159 13.2535 16.6293 13.2057 16.8378 13.1411L16.9215 13.1135C16.999 13.0899 17.0784 13.0697 17.159 13.0526C17.2244 13.0392 17.2906 13.0282 17.3575 13.0197L17.4092 13.014C17.4954 13.0051 17.582 13.0006 17.6686 13.0005C17.8477 13.0003 18.0262 13.0195 18.2011 13.0579L18.2506 13.0688C18.2575 13.0703 18.2646 13.07 18.2714 13.0681C18.2782 13.0662 18.2845 13.0627 18.2896 13.0579C18.2972 13.0498 18.3014 13.0391 18.3014 13.0281C18.3017 13.0141 18.3055 13.0004 18.3124 12.9882C18.3169 12.9789 18.323 12.9704 18.3303 12.9632C18.3491 12.9445 18.3744 12.934 18.4009 12.934C18.4273 12.934 18.4527 12.9445 18.4714 12.9632C18.4864 12.9777 18.4962 12.9966 18.4995 13.0171C18.5001 13.0221 18.5001 13.0271 18.4995 13.032C18.4992 13.0389 18.4985 13.0458 18.4973 13.0526C18.4965 13.0586 18.4945 13.0644 18.4916 13.0697C18.4877 13.0798 18.4815 13.089 18.4767 13.0986C18.4749 13.1022 18.4737 13.106 18.4732 13.11C18.4717 13.1185 18.4733 13.1271 18.4776 13.1346C18.479 13.1389 18.4816 13.1428 18.485 13.1459C18.4909 13.152 18.4986 13.1561 18.507 13.1575C18.5153 13.1589 18.5239 13.1576 18.5315 13.1538C18.5349 13.1522 18.5382 13.1502 18.5411 13.1477C18.5442 13.1451 18.5464 13.142 18.549 13.1394C18.5517 13.1357 18.5546 13.1321 18.5578 13.1289C18.5642 13.1221 18.5718 13.1164 18.5801 13.1122C18.5979 13.1021 18.6184 13.0978 18.6387 13.0998C18.6591 13.1018 18.6783 13.11 18.6938 13.1233C18.7094 13.1366 18.7204 13.1544 18.7255 13.1742C18.7305 13.194 18.7293 13.2149 18.7221 13.234C18.7191 13.2416 18.7154 13.249 18.7111 13.2559C18.7076 13.2609 18.7036 13.2656 18.6993 13.27C18.6894 13.2795 18.6778 13.2871 18.6651 13.2923C18.6596 13.2945 18.6539 13.2961 18.648 13.2971C18.6451 13.2976 18.6422 13.2976 18.6393 13.2971H18.6266C18.617 13.2977 18.6081 13.302 18.6016 13.309C18.5945 13.3162 18.5902 13.3256 18.5893 13.3357C18.5892 13.3445 18.5917 13.3531 18.5966 13.3605C18.6014 13.3678 18.6083 13.3735 18.6165 13.3769C18.6194 13.3782 18.6225 13.379 18.6257 13.3795H18.6454H18.6568C18.6646 13.3807 18.6721 13.3831 18.6792 13.3865C18.6904 13.3911 18.7005 13.398 18.709 13.4067C18.7193 13.418 18.7268 13.4316 18.731 13.4464C18.7351 13.4611 18.7359 13.4766 18.7331 13.4917L18.7331 13.4917Z" fill="url(#paint6_linear_6286_95)"/>
<defs>
<linearGradient id="paint0_linear_6286_95" x1="17.0313" y1="8.81843" x2="18.9085" y2="8.81843" gradientUnits="userSpaceOnUse">
<stop stop-color="#F2AD6C"/>
<stop offset="1" stop-color="white"/>
</linearGradient>
<linearGradient id="paint1_linear_6286_95" x1="18.8662" y1="9.71808" x2="19.1182" y2="9.71808" gradientUnits="userSpaceOnUse">
<stop stop-color="#F2AD6C"/>
<stop offset="1" stop-color="white"/>
</linearGradient>
<linearGradient id="paint2_linear_6286_95" x1="13.9318" y1="9.25312" x2="14.274" y2="9.25312" gradientUnits="userSpaceOnUse">
<stop stop-color="#F2AD6C"/>
<stop offset="1" stop-color="white"/>
</linearGradient>
<linearGradient id="paint3_linear_6286_95" x1="18.2567" y1="9.09645" x2="18.8877" y2="9.09645" gradientUnits="userSpaceOnUse">
<stop stop-color="#F2AD6C"/>
<stop offset="1" stop-color="white"/>
</linearGradient>
<linearGradient id="paint4_linear_6286_95" x1="9.88766" y1="8.13211" x2="18.9965" y2="8.13211" gradientUnits="userSpaceOnUse">
<stop stop-color="#F2AD6C"/>
<stop offset="1" stop-color="white"/>
</linearGradient>
<linearGradient id="paint5_linear_6286_95" x1="14.242" y1="8.6255" x2="15.0821" y2="8.6255" gradientUnits="userSpaceOnUse">
<stop stop-color="#F2AD6C"/>
<stop offset="1" stop-color="white"/>
</linearGradient>
<linearGradient id="paint6_linear_6286_95" x1="4.88272" y1="15.7753" x2="18.7361" y2="15.7753" gradientUnits="userSpaceOnUse">
<stop stop-color="#F2AD6C"/>
<stop offset="1" stop-color="white"/>
</linearGradient>
</defs>
</svg>
