<?xml version="1.0" encoding="UTF-8"?>
<svg width="59px" height="40px" viewBox="0 0 59 40" version="1.1" xmlns="http://www.w3.org/2000/svg" xmlns:xlink="http://www.w3.org/1999/xlink">
    <title>logo_lya</title>
    <g id="♦️---Pages" stroke="none" stroke-width="1" fill="none" fill-rule="evenodd" opacity="0.72">
        <g id="Component/-About/-Our-Vision" transform="translate(-366.000000, -680.000000)" fill="#FFFFFF" fill-rule="nonzero">
            <g id="#" transform="translate(80.000000, 80.000000)">
                <g transform="translate(106.000000, 600.000000)" id="logo_lya">
                    <path d="M202.1428,20.9143008 C202.1428,21.2714008 201.9714,21.6143008 201.6785,21.8143008 C200.5285,22.6214008 199.2857,21.8072008 199.2857,20.7143008 L199.2857,9.28575079 L190.7143,9.28575079 L190.7143,23.5714008 C190.7143,27.5072008 193.9214,30.7143008 197.8571,30.7143008 C199.5571,30.7143008 201.2071,30.1072008 202.5,29.0000008 C202.3643,30.0572008 201.7857,30.9286008 200.8143,31.5357008 C199.9071,32.1071008 198.7214,32.4072008 197.3928,32.4072008 C196.0214,32.4072008 194.6286,32.0857008 193.3643,31.4786008 C193.3643,31.4786008 193.1357,31.3714008 192.85,31.2071008 L192.85,38.8214008 C194.7571,39.5929008 196.85,40.0000008 198.8714,40.0000008 C202.0714,40.0000008 204.9928,39.0000008 207.1,37.1786008 C209.4643,35.1429008 210.7143,32.1643008 210.7143,28.5714008 L210.7143,9.28575079 L202.1428,9.28575079 L202.1428,20.9143008 Z M188.57142,23.5714008 L188.57142,0.714327787 L180,0.714327787 L180,22.1429008 C180,28.0286008 183.88571,30.7143008 187.5,30.7143008 C188.57856,30.7143008 189.65713,30.4643008 190.6214,30.0143008 C190.7643,29.9500008 190.9928,29.8072008 190.9928,29.8072008 C190.9928,29.8072008 190.7786,29.5786008 190.6857,29.4786008 C189.31428,27.9143008 188.57142,25.8857008 188.57142,23.5714008 Z M238.5714,17.8572008 L238.5714,9.28575079 L235.5142,9.28575079 C234.2357,2.55004079 227.1571,-1.87852921 220.0428,0.785756787 C216.0785,2.26433079 212.8571,7.00003079 212.8571,11.2357008 L212.8571,30.7143008 L213.2285,30.7143008 C215.4357,30.6214008 217.5,29.6857008 219.0357,28.0857008 C220.5785,26.4786008 221.4285,24.3714008 221.4285,22.1500008 L225,22.1500008 L225,13.5715008 L221.4285,13.5715008 L221.4285,11.2143008 C221.4285,10.3000008 221.9142,9.44289079 222.7142,9.00003079 C224.9071,7.77861079 227.1428,9.35003079 227.1428,11.4286008 L227.1428,19.2857008 C227.1428,22.3929008 228.3142,25.2786008 230.4428,27.4143008 C232.4785,29.4500008 235.2357,30.6214008 238.1999,30.7143008 L238.5642,30.7143008 L238.5642,22.1429008 C236.9642,22.1357008 235.7071,20.8500008 235.7071,19.2857008 L235.7071,17.8572008 L238.5714,17.8572008 Z"></path>
                </g>
            </g>
        </g>
    </g>
</svg>