<?xml version="1.0" encoding="UTF-8"?>
<svg width="134px" height="40px" viewBox="0 0 134 40" version="1.1" xmlns="http://www.w3.org/2000/svg" xmlns:xlink="http://www.w3.org/1999/xlink">
    <title>logo_spotify</title>
    <g id="♦️---Pages" stroke="none" stroke-width="1" fill="none" fill-rule="evenodd" opacity="0.72">
        <g id="Component/-About/-Our-Vision" transform="translate(-504.000000, -680.000000)" fill="#FFFFFF" fill-rule="nonzero">
            <g id="#" transform="translate(80.000000, 80.000000)">
                <g transform="translate(106.000000, 600.000000)" id="logo_spotify">
                    <path d="M338.571388,0 C327.525338,0 318.5714,8.95394 318.5714,20 C318.5714,31.0461 327.525338,40 338.571388,40 C349.617488,40 358.571388,31.0461 358.571388,20 C358.571388,8.95531 349.617488,0.00136472 338.571388,0 Z M347.743688,28.8448 C347.384788,29.4343 346.616388,29.6186 346.029588,29.2596 C341.333588,26.3896 335.421588,25.7414 328.460188,27.3313 C327.788728,27.4855 327.120018,27.0652 326.967168,26.3937 C326.812958,25.7223 327.231928,25.0536 327.904738,24.9007 C335.522588,23.1607 342.058288,23.9099 347.330188,27.1307 C347.916988,27.4923 348.103988,28.2579 347.743688,28.8448 Z M350.190688,23.4009 C349.738888,24.1351 348.778188,24.3644 348.045288,23.914 C342.670988,20.61 334.474488,19.6534 328.116288,21.5831 C327.291978,21.8328 326.421278,21.3675 326.170168,20.5445 C325.921788,19.7202 326.387168,18.8509 327.210088,18.5998 C334.473188,16.3958 343.503488,17.463 349.676188,21.2569 C350.410388,21.7086 350.642388,22.668 350.190688,23.4009 Z M350.400788,17.7291 C343.953888,13.9011 333.319988,13.549 327.165058,15.4159 C326.176998,15.7161 325.131618,15.158 324.832748,14.1699 C324.533868,13.1818 325.090678,12.1365 326.080098,11.8362 C333.145288,9.69226 344.888688,10.1058 352.310088,14.5111 C353.198488,15.0392 353.490588,16.187 352.963788,17.074 C352.438388,17.9638 351.287888,18.2572 350.400788,17.7291 Z M372.984188,18.4633 C369.531488,17.6404 368.915988,17.0618 368.915988,15.8471 C368.915988,14.6994 369.996888,13.9284 371.603088,13.9284 C373.160288,13.9284 374.703788,14.5152 376.323688,15.7216 C376.372788,15.7584 376.434288,15.7721 376.494288,15.7625 C376.554288,15.753 376.607588,15.7202 376.643088,15.6697 L378.328488,13.2924 C378.398088,13.1941 378.378988,13.059 378.286188,12.9853 C376.359188,11.4391 374.190688,10.6871 371.653588,10.6871 C367.925188,10.6871 365.321288,12.9253 365.321288,16.1256 C365.321288,19.5592 367.567688,20.7738 371.450288,21.7127 C374.754288,22.4742 375.312488,23.1116 375.312488,24.2511 C375.312488,25.5148 374.185188,26.2996 372.370088,26.2996 C370.354388,26.2996 368.709888,25.6199 366.871588,24.0273 C366.826588,23.9877 366.763788,23.97 366.705188,23.9727 C366.643688,23.9782 366.589188,24.0055 366.549588,24.0519 L364.659388,26.3023 C364.580288,26.3951 364.589788,26.5357 364.681288,26.6162 C366.821188,28.5268 369.452288,29.5353 372.293688,29.5353 C376.311388,29.5353 378.907208,27.3395 378.907208,23.9427 C378.913988,21.074 377.197088,19.4855 372.991088,18.4633 L372.984188,18.4633 Z M387.997488,15.0583 C386.256188,15.0583 384.827288,15.7448 383.649488,17.1491 L383.649488,15.5674 C383.649488,15.4418 383.548588,15.3408 383.422988,15.3408 L380.330488,15.3408 C380.204988,15.3408 380.103988,15.4432 380.103988,15.5674 L380.103988,33.145 C380.103988,33.2706 380.204988,33.3715 380.330488,33.3715 L383.422988,33.3715 C383.547188,33.3715 383.649488,33.2692 383.649488,33.145 L383.649488,27.596 C384.827288,28.9185 386.256188,29.564 387.997488,29.564 C391.233288,29.564 394.508595,27.0734 394.508595,22.3118 C394.514088,17.549 391.235988,15.057 388.000288,15.057 L387.997488,15.0583 Z M390.913988,22.3118 C390.913988,24.7369 389.420988,26.4292 387.281088,26.4292 C385.167088,26.4292 383.571688,24.6605 383.571688,22.3118 C383.571688,19.9645 385.167088,18.1945 387.281088,18.1945 C389.385488,18.1945 390.913988,19.9263 390.913988,22.3118 Z M402.904388,15.0583 C398.736488,15.0583 395.472088,18.2668 395.472088,22.3651 C395.472088,26.4183 398.714688,29.5926 402.852488,29.5926 C407.034088,29.5926 410.309388,26.3951 410.309388,22.3132 C410.310688,18.245 407.057288,15.0583 402.904388,15.0583 Z M402.904388,26.4524 C400.688088,26.4524 399.016288,24.6714 399.016288,22.3105 C399.016288,19.9386 400.629388,18.219 402.852488,18.219 C405.083888,18.219 406.765189,20 406.765189,22.3623 C406.766588,24.7329 405.142488,26.4524 402.904388,26.4524 Z M419.210088,15.3408 L415.807788,15.3408 L415.807788,11.8622 C415.807788,11.738 415.706888,11.6356 415.582688,11.6356 L412.491588,11.6356 C412.365988,11.6356 412.264988,11.738 412.264988,11.8622 L412.264988,15.3408 L410.778788,15.3408 C410.654688,15.3408 410.553688,15.4432 410.553688,15.5674 L410.553688,18.2245 C410.553688,18.3487 410.654688,18.451 410.778788,18.451 L412.264988,18.451 L412.264988,25.3265 C412.264988,28.1051 413.647488,29.5135 416.375588,29.5135 C417.485088,29.5135 418.405088,29.2842 419.271088,28.7929 C419.342088,28.7533 419.386088,28.6769 419.386088,28.5964 L419.386088,26.0662 C419.386088,25.9884 419.345088,25.9147 419.278088,25.8738 C419.211088,25.8315 419.127088,25.8287 419.059088,25.8628 C418.464088,26.1631 417.887688,26.3009 417.243488,26.3009 C416.251388,26.3009 415.809188,25.8506 415.809188,24.8407 L415.809188,18.451 L419.211088,18.451 C419.337088,18.451 419.437088,18.3487 419.437088,18.2245 L419.437088,15.5674 C419.442088,15.4418 419.341088,15.3408 419.214088,15.3408 L419.210088,15.3408 Z M431.065088,15.3545 L431.065088,14.9273 C431.065088,13.6704 431.547088,13.1095 432.628088,13.1095 C433.272088,13.1095 433.791088,13.2378 434.371088,13.4316 C434.442088,13.4534 434.517088,13.4425 434.574088,13.4002 C434.634088,13.3579 434.667088,13.2883 434.667088,13.216 L434.667088,10.6093 C434.667088,10.5097 434.603088,10.421 434.507088,10.3924 C433.894088,10.2095 433.111088,10.0225 431.937088,10.0225 C429.081088,10.0225 427.572088,11.6302 427.572088,14.6721 L427.572088,15.3258 L426.085088,15.3258 C425.961088,15.3258 425.859088,15.4282 425.859088,15.5524 L425.859088,18.2231 C425.859088,18.3473 425.961088,18.4497 426.085088,18.4497 L427.572088,18.4497 L427.572088,29.0563 C427.572088,29.1819 427.673088,29.2828 427.797088,29.2828 L430.889088,29.2828 C431.015088,29.2828 431.116088,29.1805 431.116088,29.0563 L431.116088,18.451 L434.002088,18.451 L438.424088,29.0549 C437.922088,30.1685 437.428088,30.391 436.755088,30.391 C436.210088,30.391 435.636088,30.2286 435.050088,29.9079 C434.996088,29.8779 434.930088,29.8724 434.870088,29.8915 C434.812088,29.912 434.761088,29.9556 434.736088,30.013 L433.688088,32.3125 C433.638088,32.4217 433.682088,32.5486 433.785088,32.6046 C434.880088,33.1969 435.866088,33.4493 437.088088,33.4493 C439.371088,33.4493 440.633088,32.3862 441.746088,29.5244 L447.110088,15.6629 C447.138088,15.5933 447.129088,15.5142 447.086088,15.4527 C447.044088,15.3913 446.975088,15.3545 446.900088,15.3545 L443.681088,15.3545 C443.584088,15.3545 443.498088,15.4159 443.467088,15.506 L440.169088,24.9253 L436.557088,15.5005 C436.524088,15.4132 436.440088,15.3545 436.345088,15.3545 L431.065088,15.3545 Z M424.191088,15.3408 L421.099088,15.3408 C420.973088,15.3408 420.872088,15.4432 420.872088,15.5674 L420.872088,29.0577 C420.872088,29.1832 420.975088,29.2842 421.099088,29.2842 L424.191088,29.2842 C424.315088,29.2842 424.418088,29.1818 424.418088,29.0577 L424.418088,15.5687 C424.418088,15.4432 424.317088,15.3422 424.191088,15.3408 C424.193088,15.3408 424.191088,15.3408 424.191088,15.3408 Z M422.663088,9.19823 C421.437088,9.19823 420.444088,10.1904 420.444088,11.4145 C420.444088,12.6401 421.439088,13.6336 422.663088,13.6336 C423.887088,13.6336 424.880088,12.6414 424.880088,11.4145 C424.880088,10.1904 423.887088,9.19823 422.663088,9.19823 Z M449.751088,19.6779 C448.527088,19.6779 447.576088,18.6953 447.576088,17.5012 C447.576088,16.3071 448.541088,15.3135 449.763088,15.3135 C450.988088,15.3135 451.939088,16.2961 451.939088,17.4889 C451.937088,18.683 450.973088,19.6779 449.751088,19.6779 Z M449.762088,15.5305 C448.647088,15.5305 447.804088,16.4162 447.804088,17.5012 C447.804088,18.5861 448.642088,19.4596 449.750088,19.4596 C450.865088,19.4596 451.708089,18.5739 451.708089,17.4889 C451.709088,16.4053 450.872088,15.5305 449.762088,15.5305 Z M450.245088,17.7127 L450.861088,18.5739 L450.342088,18.5739 L449.788088,17.7837 L449.312088,17.7837 L449.312088,18.5739 L448.878088,18.5739 L448.878088,16.2893 L449.896088,16.2893 C450.427088,16.2893 450.776088,16.5609 450.776088,17.0181 C450.779088,17.392 450.560088,17.6213 450.248088,17.7114 L450.245088,17.7127 Z M449.877088,16.6824 L449.310088,16.6824 L449.310088,17.4043 L449.877088,17.4043 C450.159088,17.4043 450.328088,17.2665 450.328088,17.0426 C450.328088,16.8079 450.159088,16.6824 449.877088,16.6824 Z"></path>
                </g>
            </g>
        </g>
    </g>
</svg>