<?xml version="1.0" encoding="UTF-8"?>
<svg width="100px" height="40px" viewBox="0 0 100 40" version="1.1" xmlns="http://www.w3.org/2000/svg" xmlns:xlink="http://www.w3.org/1999/xlink">
    <title>logo_ibm</title>
    <g id="♦️---Pages" stroke="none" stroke-width="1" fill="none" fill-rule="evenodd" opacity="0.72">
        <g id="Component/-About/-Our-Vision" transform="translate(-186.000000, -680.000000)" fill="#FFFFFF" fill-rule="nonzero">
            <g id="#" transform="translate(80.000000, 80.000000)">
                <g transform="translate(106.000000, 600.000000)" id="logo_ibm">
                    <path d="M7.10542736e-15,0 L7.10542736e-15,2.72727 L19.4318,2.72727 L19.4318,0 L7.10542736e-15,0 Z M22.2727,0 L22.2727,2.72727 L50,2.72727 C50,2.72727 47.1591,0 43.4091,0 L22.2727,0 Z M55.4545,0 L55.4545,2.72727 L72.2727,2.72727 L71.1364,0 L55.4545,0 Z M84.2045,0 L83.1818,2.72727 L99.7727,2.72727 L99.7727,0 L84.2045,0 Z M7.10542736e-15,5.34091 L7.10542736e-15,8.06818 L19.4318,8.06818 L19.4318,5.34091 L7.10542736e-15,5.34091 Z M22.2727,5.34091 L22.2727,8.06818 L53.1818,8.06818 C53.1818,8.06818 52.8409,5.90909 52.1591,5.34091 L22.2727,5.34091 Z M55.4545,5.34091 L55.4545,8.06818 L74.0909,8.06818 L73.1818,5.34091 L55.4545,5.34091 Z M82.2727,5.34091 L81.3636,8.06818 L99.8864,8.06818 L99.8864,5.34091 L82.2727,5.34091 Z M5.56818,10.6818 L5.56818,13.4091 L13.9773,13.4091 L13.9773,10.6818 L5.56818,10.6818 Z M27.8409,10.6818 L27.8409,13.4091 L36.25,13.4091 L36.25,10.6818 L27.8409,10.6818 Z M44.4318,10.6818 L44.4318,13.4091 L52.8409,13.4091 C52.8409,13.4091 53.4091,11.9318 53.4091,10.6818 L44.4318,10.6818 Z M61.0227,10.6818 L61.0227,13.4091 L76.0227,13.4091 L75,10.6818 L61.0227,10.6818 Z M80.3409,10.6818 L79.3182,13.4091 L94.3182,13.4091 L94.3182,10.6818 L80.3409,10.6818 Z M5.56818,16.0227 L5.56818,18.75 L13.9773,18.75 L13.9773,16.0227 L5.56818,16.0227 Z M27.8409,16.0227 L27.8409,18.75 L49.3182,18.75 C49.3182,18.75 51.1364,17.3864 51.7045,16.0227 L27.8409,16.0227 Z M61.0227,16.0227 L61.0227,18.75 L69.4318,18.75 L69.4318,17.2727 L70,18.75 L85.4545,18.75 L86.0227,17.2727 L86.0227,18.75 L94.4318,18.75 L94.4318,16.0227 L78.6364,16.0227 L77.8409,18.2955 L77.0454,16.0227 L61.0227,16.0227 Z M5.56818,21.25 L5.56818,23.9773 L13.9773,23.9773 L13.9773,21.25 L5.56818,21.25 Z M27.8409,21.25 L27.8409,23.9773 L51.7045,23.9773 C51.1364,22.6136 49.3182,21.25 49.3182,21.25 L27.8409,21.25 Z M61.0227,21.25 L61.0227,23.9773 L69.4318,23.9773 L69.4318,21.25 L61.0227,21.25 Z M70.9091,21.25 L71.9318,23.9773 L83.5227,23.9773 L84.5454,21.25 L70.9091,21.25 Z M86.0227,21.25 L86.0227,23.9773 L94.4318,23.9773 L94.4318,21.25 L86.0227,21.25 Z M5.56818,26.5909 L5.56818,29.3182 L13.9773,29.3182 L13.9773,26.5909 L5.56818,26.5909 Z M27.8409,26.5909 L27.8409,29.3182 L36.25,29.3182 L36.25,26.5909 L27.8409,26.5909 Z M44.4318,26.5909 L44.4318,29.3182 L53.4091,29.3182 C53.4091,28.0682 52.8409,26.5909 52.8409,26.5909 L44.4318,26.5909 Z M61.0227,26.5909 L61.0227,29.3182 L69.4318,29.3182 L69.4318,26.5909 L61.0227,26.5909 Z M72.8409,26.5909 L73.8636,29.3182 L81.5909,29.3182 L82.6136,26.5909 L72.8409,26.5909 Z M86.0227,26.5909 L86.0227,29.3182 L94.4318,29.3182 L94.4318,26.5909 L86.0227,26.5909 Z M0.113636,31.9318 L0.113636,34.6591 L19.5455,34.6591 L19.5455,31.9318 L0.113636,31.9318 Z M22.2727,31.9318 L22.2727,34.6591 L52.2727,34.6591 C52.9545,33.9773 53.2955,31.9318 53.2955,31.9318 L22.2727,31.9318 Z M55.5682,31.9318 L55.5682,34.6591 L69.4318,34.6591 L69.4318,31.9318 L55.5682,31.9318 Z M74.7727,31.9318 L75.7954,34.6591 L79.7727,34.6591 L80.6818,31.9318 L74.7727,31.9318 Z M86.0227,31.9318 L86.0227,34.6591 L100,34.6591 L100,31.9318 L86.0227,31.9318 Z M0.113636,37.2727 L0.113636,40 L19.5455,40 L19.5455,37.2727 L0.113636,37.2727 Z M22.2727,37.2727 L22.2727,40 L43.4091,40 C47.1591,40 50,37.2727 50,37.2727 L22.2727,37.2727 Z M55.5682,37.2727 L55.5682,40 L69.4318,40 L69.4318,37.2727 L55.5682,37.2727 Z M76.7045,37.2727 L77.7273,40 L77.8409,40 L78.8636,37.2727 L76.7045,37.2727 Z M86.0227,37.2727 L86.0227,40 L100,40 L100,37.2727 L86.0227,37.2727 Z"></path>
                </g>
            </g>
        </g>
    </g>
</svg>