<?xml version="1.0" encoding="UTF-8"?>
<svg width="98px" height="40px" viewBox="0 0 98 40" version="1.1" xmlns="http://www.w3.org/2000/svg" xmlns:xlink="http://www.w3.org/1999/xlink">
    <title>logo_hbo</title>
    <g id="♦️---Pages" stroke="none" stroke-width="1" fill="none" fill-rule="evenodd" opacity="0.72">
        <g id="Component/-About/-Our-Vision" transform="translate(-945.000000, -680.000000)" fill="#FFFFFF" fill-rule="nonzero">
            <g id="#" transform="translate(80.000000, 80.000000)">
                <g transform="translate(106.000000, 600.000000)" id="logo_hbo">
                    <path d="M776.766782,0.413793 L787.571382,0.413793 L787.571382,39.5402 L776.766782,39.5402 L776.766782,25.0575 L769.870182,25.0575 L769.870182,39.5402 L759.065588,39.5402 L759.065588,0.413793 L769.870182,0.413793 L769.870182,15.1724 L776.766782,15.1724 L776.766782,0.413793 Z M856.077082,20 C856.077082,31.0345 847.111582,40 836.077082,40 C827.594282,40 820.329982,34.6897 817.433382,27.2414 C817.456382,27.4943 817.456382,27.7701 817.456382,28.046 C817.456382,40 807.111582,39.5402 807.111582,39.5402 L789.870182,39.5402 L789.870182,0.413793 L806.421882,0.413793 C809.410382,0.413793 817.916182,2.04598 817.916182,10.4138 C817.916182,10.8736 817.893182,11.3103 817.870182,11.7241 C821.019582,4.8046 828.008082,0 836.077082,0 C847.111582,0 856.077082,8.96552 856.077082,20 Z M807.571382,27.1264 C807.571382,24.3678 805.272482,24.3678 805.272482,24.3678 L799.525382,24.3678 L799.525382,30.3448 L805.272482,30.3448 C805.272482,30.3448 807.571382,30.1149 807.571382,27.1264 Z M807.571382,12.7586 C807.571382,9.93103 805.272482,9.95401702 805.272482,9.95401702 L799.525382,9.95401702 L799.525382,15.8621 L805.272482,15.8621 C805.272482,15.8621 807.571382,15.5862 807.571382,12.7586 Z M816.329982,23.1264 C816.169082,22.1149 816.077082,21.0575 816.077082,20 C816.077082,18.9425 816.169082,17.931 816.306982,16.9195 C815.157582,18.6437 813.548382,19.3563 812.169082,19.6092 C810.789682,19.8621 814.398882,19.7471 816.329982,23.1264 Z M845.962182,20 C845.962182,14.5517 841.525382,10.1149 836.077082,10.1149 C830.628782,10.1149 826.191982,14.5517 826.191982,20 C826.191982,25.4483 830.628782,29.8851 836.077082,29.8851 C841.525382,29.8851 845.962182,25.4483 845.962182,20 Z M836.077082,11.954 C831.640282,11.954 828.031082,15.5632 828.031082,20 C828.031082,24.4368 831.640282,28.046 836.077082,28.046 C840.513882,28.046 844.123082,24.4368 844.123082,20 C844.123082,15.5632 840.513882,11.954 836.077082,11.954 Z"></path>
                </g>
            </g>
        </g>
    </g>
</svg>