<?xml version="1.0" encoding="UTF-8"?>
<svg width="133px" height="40px" viewBox="0 0 133 40" version="1.1" xmlns="http://www.w3.org/2000/svg" xmlns:xlink="http://www.w3.org/1999/xlink">
    <title>logo_amazon</title>
    <g id="♦️---Pages" stroke="none" stroke-width="1" fill="none" fill-rule="evenodd" opacity="0.72">
        <g id="Component/-About/-Our-Vision" transform="translate(-1122.000000, -680.000000)" fill="#FFFFFF">
            <g id="#" transform="translate(80.000000, 80.000000)">
                <g transform="translate(106.000000, 600.000000)" id="logo_amazon">
                    <path d="M1012.94746,1.36919079 L1012.94746,4.40098079 C1012.94746,4.79218079 1013.33866,5.08557079 1013.72986,5.18337079 L1020.77146,5.18337079 L1012.65406,16.8215008 C1012.16506,17.6039008 1012.16506,18.3863008 1012.16506,18.8753008 L1012.16506,21.9071008 C1012.16506,22.3961008 1012.65406,22.7873008 1013.14306,22.5917008 C1017.73966,20.1467008 1023.31426,20.4401008 1027.42186,22.5917008 C1027.91086,22.8851008 1028.39986,22.3961008 1028.39986,21.9071008 L1028.39986,18.6797008 C1028.39986,18.2885008 1028.20426,17.7995008 1027.71526,17.5061008 C1025.36806,16.1369008 1022.62966,15.8435008 1019.98906,15.8435008 L1027.03066,5.86797079 C1027.10776,5.73939079 1027.18156,5.61757079 1027.25146,5.50206079 C1027.71356,4.73906079 1028.00866,4.25175079 1028.00866,3.91198079 L1028.00866,1.36919079 C1028.00866,0.977995787 1027.61746,0.586797787 1027.22626,0.586797787 L1013.72986,0.586797787 C1013.24086,0.586797787 1012.94746,0.880196787 1012.94746,1.36919079 Z M959.548957,23.1785008 L963.656557,23.1785008 C964.047757,23.1785008 964.438957,22.8851008 964.243357,22.4939008 L964.243357,11.2469008 C964.243357,11.1681008 964.243257,11.0885008 964.243157,11.0083008 C964.240157,8.50117079 964.236457,5.37897079 967.079557,5.37897079 C969.713557,5.37897079 969.667557,8.21665079 969.630657,10.4952008 C969.626357,10.7547008 969.622357,11.0070008 969.622357,11.2469008 L969.622357,22.4939008 C969.622357,22.8851008 970.013557,23.2763008 970.404757,23.2763008 L974.512257,23.2763008 C974.903457,23.2763008 975.294657,22.8851008 975.294657,22.4939008 L975.294657,11.2469008 C975.294657,9.97555079 975.294657,8.21516079 975.685857,7.13936079 C976.077057,6.06357079 977.152857,5.37897079 978.130857,5.37897079 C979.402257,5.37897079 980.282457,5.86797079 980.575857,7.23716079 C980.729557,7.92875079 980.702057,9.46560079 980.683257,10.5194008 C980.678157,10.8069008 980.673657,11.0583008 980.673657,11.2469008 L980.673657,22.4939008 C980.673657,22.8851008 981.064857,23.2763008 981.456057,23.2763008 L985.563657,23.2763008 C985.954857,23.2763008 986.346057,22.8851008 986.346057,22.4939008 L986.346057,9.09535079 C986.346057,8.72577079 986.353257,8.35133079 986.360557,7.97586079 C986.399657,5.96679079 986.439257,3.92819079 985.368057,2.44499079 C984.194457,0.782396787 982.336257,0.097800287 980.575857,0.097800287 C978.130857,0.097800287 975.881457,1.36919079 974.903457,4.00978079 C973.827657,1.36919079 972.165057,0.097800287 969.622357,0.097800287 C967.177357,0.097800287 965.221357,1.36919079 964.243357,4.00978079 L964.145557,4.00978079 L964.145557,1.27139079 C964.047757,0.880196787 963.754357,0.586797787 963.363157,0.586797787 L959.548957,0.586797787 C959.157757,0.586797787 958.766557,0.977995787 958.766557,1.36919079 L958.766557,22.4939008 C958.864357,22.8851008 959.157757,23.1785008 959.548957,23.1785008 Z M1030.45356,11.9315008 C1030.35576,5.28117079 1033.68096,0.195599787 1039.64696,0.195599787 C1045.80796,0.195599787 1049.13296,5.37897079 1049.03596,12.1271008 C1049.03596,18.5819008 1045.41696,23.6675008 1039.64696,23.6675008 C1033.68096,23.6675008 1030.45356,18.4841008 1030.45356,11.9315008 Z M1036.51696,11.4736008 C1036.51396,14.1879008 1036.50896,19.3643008 1039.64696,19.3643008 C1042.77596,19.3643008 1042.97196,14.8655008 1043.06996,12.1271008 C1043.06996,10.3667008 1042.97196,8.21516079 1042.48296,6.55257079 C1041.99396,5.08557079 1041.01596,4.49878079 1039.74496,4.49878079 C1036.71296,4.49878079 1036.51696,8.70416079 1036.51696,11.2469008 C1036.51696,11.3204008 1036.51696,11.3960008 1036.51696,11.4736008 Z M1052.84996,23.1785008 L1056.95696,23.1785008 C1057.44596,23.1785008 1057.83796,22.8851008 1057.83796,22.4939008 L1057.83796,11.0513008 C1057.83796,9.58435079 1057.93496,8.31296079 1058.52196,7.04156079 C1058.91296,6.06357079 1059.89096,5.37897079 1060.86896,5.37897079 C1063.46796,5.37897079 1063.43896,8.16966079 1063.41596,10.4425008 C1063.41396,10.6507008 1063.41196,10.8544008 1063.41196,11.0513008 L1063.41196,22.4939008 C1063.50996,22.8851008 1063.80296,23.1785008 1064.19396,23.1785008 L1068.20396,23.1785008 C1068.59496,23.1785008 1068.98696,22.8851008 1068.98696,22.4939008 L1068.98696,9.19315079 C1068.98696,7.13936079 1068.98696,4.30318079 1067.91096,2.64059079 C1066.73696,0.880196787 1064.97696,0.195599787 1063.11896,0.195599787 C1060.28196,0.195599787 1058.71796,1.46699079 1057.54396,4.40098079 L1057.44596,4.40098079 L1057.44596,1.17359079 C1057.34896,0.880196787 1057.05496,0.586797787 1056.66396,0.586797787 L1052.84996,0.586797787 C1052.45896,0.586797787 1052.06696,0.880196787 1052.06696,1.27139079 L1052.06696,22.3961008 C1052.06696,22.7873008 1052.45896,23.1785008 1052.84996,23.1785008 Z M1009.31936,19.0852008 C1009.38736,19.1773008 1009.45596,19.2700008 1009.52456,19.3643008 C1009.81786,19.7555008 1009.81786,20.2445008 1009.42666,20.3423008 C1008.98666,20.6846008 1008.39986,21.1980008 1007.81306,21.7115008 C1007.22626,22.2249008 1006.63946,22.7384008 1006.19936,23.0807008 C1005.90596,23.2763008 1005.51476,23.3741008 1005.22136,23.1785008 C1004.17296,22.3547008 1003.81266,21.8177008 1003.35006,21.1283008 C1003.20856,20.9174008 1003.05746,20.6921008 1002.87416,20.4401008 C1000.62476,22.7873008 999.059957,23.4719008 996.125957,23.4719008 C992.702957,23.4719008 989.964657,21.3203008 989.964657,17.1149008 C989.964657,13.6919008 991.822757,11.4425008 994.365557,10.3667008 C996.224557,9.55850079 998.684657,9.28462079 1000.80756,9.04829079 C1001.25336,8.99866079 1001.68436,8.95068079 1002.09176,8.89976079 L1002.09176,8.41076079 C1002.09176,8.29055079 1002.09326,8.16738079 1002.09476,8.04217079 C1002.10546,7.14869079 1002.11746,6.15098079 1001.60276,5.37897079 C1001.11376,4.59658079 1000.23356,4.30318079 999.353357,4.30318079 C997.788557,4.30318079 996.321557,5.08557079 996.028157,6.74817079 C995.930357,7.13936079 995.734757,7.53056079 995.343557,7.53056079 L991.333757,7.13936079 C991.040357,7.04156079 990.649157,6.74817079 990.746957,6.25917079 C991.724957,1.46699079 996.028157,7.86955525e-07 999.940157,7.86955525e-07 C1001.99396,7.86955525e-07 1004.63456,0.488998787 1006.10156,2.05379079 C1007.98946,3.85186079 1007.97666,6.06315079 1007.96226,8.53573079 C1007.96096,8.75289079 1007.95976,8.97207079 1007.95976,9.19315079 L1007.95976,15.5501008 C1007.95976,17.2455008 1008.61096,18.1267008 1009.31936,19.0852008 Z M998.570957,19.3643008 C999.744557,19.3643008 1000.72256,18.6797008 1001.40716,17.5061008 C1002.18956,16.0391008 1002.18956,14.6699008 1002.18956,13.1051008 L1002.18956,12.2249008 C999.157757,12.2249008 996.028157,12.8117008 996.028157,16.3325008 C996.028157,18.1907008 997.006157,19.3643008 998.570957,19.3643008 Z M955.334057,19.0852008 C955.402057,19.1773008 955.470657,19.2700008 955.539157,19.3643008 C955.832557,19.7555008 955.930357,20.2445008 955.539157,20.3423008 C955.099057,20.6846008 954.512257,21.1980008 953.925457,21.7115008 C953.338657,22.2249008 952.751857,22.7384008 952.311757,23.0807008 C952.018357,23.2763008 951.627157,23.3741008 951.333757,23.1785008 C950.285357,22.3547008 949.925057,21.8177008 949.462557,21.1283008 C949.321057,20.9174008 949.169957,20.6921008 948.986657,20.4401008 C946.737257,22.7873008 945.172437,23.4719008 942.238447,23.4719008 C938.815467,23.4719008 936.077082,21.3203008 936.077082,17.1149008 C936.077082,13.6919008 937.935277,11.4425008 940.478057,10.3667008 C942.337027,9.55850079 944.797157,9.28462079 946.920057,9.04829079 C947.365857,8.99866079 947.796857,8.95068079 948.204257,8.89976079 L948.204257,8.41076079 C948.204257,8.29054079 948.205657,8.16737079 948.207157,8.04214079 C948.217957,7.14867079 948.229857,6.15097079 947.715257,5.37897079 C947.226257,4.59658079 946.346057,4.30318079 945.465837,4.30318079 C943.901047,4.30318079 942.434047,5.08557079 942.140647,6.74817079 C942.042847,7.13936079 941.847257,7.53056079 941.456057,7.53056079 L937.446277,7.13936079 C937.055077,7.04156079 936.761679,6.84597079 936.859478,6.25917079 C937.837477,1.46699079 942.140647,7.86955525e-07 946.052657,7.86955525e-07 C948.008657,7.86955525e-07 950.649257,0.488998787 952.116157,2.05379079 C954.004157,3.85186079 953.991357,6.06316079 953.976957,8.53574079 C953.975657,8.75290079 953.974357,8.97207079 953.974357,9.19315079 L953.974357,15.5501008 C953.974357,17.2455008 954.625657,18.1267008 955.334057,19.0852008 Z M944.683437,19.3643008 C945.857037,19.3643008 946.835057,18.6797008 947.519657,17.5061008 C948.302057,16.0391008 948.302057,14.6699008 948.302057,13.1051008 L948.302057,12.2249008 C945.270237,12.2249008 942.140647,12.8117008 942.140647,16.3325008 C942.140647,18.1907008 943.118647,19.3643008 944.683437,19.3643008 Z M990.062357,40.0000008 C999.744557,40.0000008 1010.89366,36.9682008 1018.61986,31.2958008 C1019.89126,30.4157008 1018.81546,28.9487008 1017.44626,29.4377008 C1008.83996,33.1540008 999.353357,34.9144008 990.844757,34.9144008 C978.130857,34.9144008 965.808157,31.4914008 955.930357,25.7213008 C955.050157,25.1345008 954.463357,26.0147008 955.147957,26.6993008 C964.438957,35.0122008 976.566057,40.0000008 990.062357,40.0000008 Z M1012.93056,27.2764008 C1015.41536,26.9780008 1020.87986,26.3219008 1021.84726,27.5795008 C1022.76136,28.8592008 1020.94156,33.4707008 1019.98116,35.9046008 C1019.91396,36.0748008 1019.85096,36.2344008 1019.79346,36.3814008 C1019.50006,37.0660008 1020.08686,37.3594008 1020.77146,36.8704008 C1024.97686,33.4474008 1026.05266,26.1125008 1025.17246,25.1345008 C1024.29226,24.1565008 1017.05506,23.1785008 1012.65406,26.3081008 C1011.96946,26.6993008 1012.06726,27.3839008 1012.84966,27.2861008 L1012.93056,27.2764008 Z"></path>
                </g>
            </g>
        </g>
    </g>
</svg>