<?xml version="1.0" encoding="UTF-8"?>
<svg width="149px" height="40px" viewBox="0 0 149 40" version="1.1" xmlns="http://www.w3.org/2000/svg" xmlns:xlink="http://www.w3.org/1999/xlink">
    <title>logo_netflix</title>
    <g id="♦️---Pages" stroke="none" stroke-width="1" fill="none" fill-rule="evenodd" opacity="0.72">
        <g id="Component/-About/-Our-Vision" transform="translate(-717.000000, -680.000000)" fill="#FFFFFF" fill-rule="nonzero">
            <g id="#" transform="translate(80.000000, 80.000000)">
                <g transform="translate(106.000000, 600.000000)" id="logo_netflix">
                    <path d="M657.571588,37.3563 C659.640588,37.5862 661.709588,37.8161 663.663588,38.046 L668.145588,26.8966 L672.398588,39.0805 C674.582588,39.3103 676.766588,39.6552 678.950588,40 L671.479588,18.6207 L679.065588,0 L672.743588,0 L672.628588,0.114943 L668.605588,10.1149 L665.042588,0 L658.720588,0 L665.157588,18.3908 L657.571588,37.3563 Z M652.743588,36.8966 L652.743588,0 L646.421588,0 L646.421588,36.4368 C648.605588,36.5517 650.674588,36.7816 652.743588,36.8966 Z M605.502288,34.8276 L610.559788,34.8276 L610.559788,21.3793 L618.145988,21.3793 L618.145988,15.6322 L610.559788,15.6322 L610.559788,5.74713 L619.295388,5.74713 L619.295388,0 L604.352888,0 L604.352888,34.8276 L605.502288,34.8276 Z M586.076988,35.1724 C588.145988,35.0575 590.214988,35.0575 592.398888,34.9425 L592.398888,5.74713 L598.260888,5.74713 L598.260888,0 L580.214988,0 L580.214988,5.74713 L586.076988,5.74713 L586.076988,35.1724 Z M537.916098,39.0805 L537.916098,17.1264 L545.387388,38.2759 L552.283888,37.5862 L552.283888,0 L546.306888,0 L546.306888,22.7586 L538.260928,0 L531.939088,0 L531.939088,39.8851 C534.008058,39.6552 535.962078,39.4253 537.916098,39.0805 Z M574.122988,5.74713 L574.122988,0 L559.065488,0 L559.065488,36.8966 C564.008088,36.4368 569.065488,36.092 574.008088,35.8621 L574.008088,30.1149 C571.134488,30.2299 568.260888,30.4598 565.272388,30.6897 L565.272388,21.3793 L572.858588,21.3793 L572.858588,15.6322 L565.272388,15.6322 L565.272388,5.74713 L574.122988,5.74713 Z M631.824588,29.7701 L631.824588,0 L625.502288,0 L625.502288,35.2874 C630.559788,35.5172 635.502588,35.7471 640.559588,36.092 L640.559588,30.3448 C637.571588,30 634.697588,29.8851 631.824588,29.7701 Z"></path>
                </g>
            </g>
        </g>
    </g>
</svg>